<ttFont>
    <TTGlyph name="A" xMin="26" yMin="0" xMax="410" yMax="720">
      <contour>
        <pt x="405" y="0" on="1"/>
        <pt x="360" y="0" on="0"/>
        <pt x="344" y="12" on="0"/>
        <pt x="342" y="46" on="1"/>
        <pt x="329" y="245" on="1"/>
        <pt x="177" y="245" on="1"/>
        <pt x="85" y="0" on="1"/>
        <pt x="80" y="0" on="1"/>
        <pt x="47" y="0" on="0"/>
        <pt x="27" y="4" on="0"/>
        <pt x="27" y="13" on="1"/>
        <pt x="27" y="16" on="1"/>
        <pt x="27" y="21" on="0"/>
        <pt x="182" y="421" on="0"/>
        <pt x="297" y="720" on="1"/>
        <pt x="361" y="720" on="1"/>
        <pt x="410" y="0" on="1"/>
      </contour>
      <contour>
        <pt x="318" y="592" on="1"/>
        <pt x="299" y="592" on="1"/>
        <pt x="208" y="325" on="1"/>
        <pt x="195" y="300" on="1"/>
        <pt x="331" y="300" on="1"/>
        <pt x="318" y="325" on="1"/>
      </contour>
    </TTGlyph>
    <TTGlyph name="AE" xMin="51" yMin="0" xMax="694" yMax="720">
      <contour>
        <pt x="104" y="0" on="1"/>
        <pt x="71" y="0" on="0"/>
        <pt x="51" y="4" on="0"/>
        <pt x="51" y="13" on="1"/>
        <pt x="50" y="19" on="0"/>
        <pt x="61" y="46" on="1"/>
        <pt x="311" y="720" on="1"/>
        <pt x="694" y="720" on="1"/>
        <pt x="685" y="667" on="1"/>
        <pt x="474" y="667" on="1"/>
        <pt x="474" y="642" on="1"/>
        <pt x="443" y="443" on="1"/>
        <pt x="435" y="418" on="1"/>
        <pt x="632" y="418" on="1"/>
        <pt x="623" y="361" on="1"/>
        <pt x="426" y="361" on="1"/>
        <pt x="426" y="336" on="1"/>
        <pt x="385" y="82" on="1"/>
        <pt x="378" y="57" on="1"/>
        <pt x="599" y="57" on="1"/>
        <pt x="590" y="0" on="1"/>
        <pt x="307" y="0" on="1"/>
        <pt x="341" y="220" on="1"/>
        <pt x="349" y="245" on="1"/>
        <pt x="201" y="245" on="1"/>
        <pt x="109" y="0" on="1"/>
      </contour>
      <contour>
        <pt x="358" y="300" on="1"/>
        <pt x="358" y="325" on="1"/>
        <pt x="412" y="667" on="1"/>
        <pt x="345" y="667" on="1"/>
        <pt x="232" y="325" on="1"/>
        <pt x="219" y="300" on="1"/>
      </contour>
    </TTGlyph>
    <TTGlyph name="Aacute" xMin="26" yMin="0" xMax="486" yMax="927">
      <contour>
        <pt x="405" y="0" on="1"/>
        <pt x="360" y="0" on="0"/>
        <pt x="344" y="12" on="0"/>
        <pt x="342" y="46" on="1"/>
        <pt x="329" y="245" on="1"/>
        <pt x="177" y="245" on="1"/>
        <pt x="85" y="0" on="1"/>
        <pt x="80" y="0" on="1"/>
        <pt x="47" y="0" on="0"/>
        <pt x="27" y="4" on="0"/>
        <pt x="27" y="13" on="1"/>
        <pt x="27" y="16" on="1"/>
        <pt x="27" y="21" on="0"/>
        <pt x="182" y="421" on="0"/>
        <pt x="297" y="720" on="1"/>
        <pt x="361" y="720" on="1"/>
        <pt x="410" y="0" on="1"/>
      </contour>
      <contour>
        <pt x="318" y="592" on="1"/>
        <pt x="299" y="592" on="1"/>
        <pt x="208" y="325" on="1"/>
        <pt x="195" y="300" on="1"/>
        <pt x="331" y="300" on="1"/>
        <pt x="318" y="325" on="1"/>
      </contour>
      <contour>
        <pt x="486" y="896" on="1"/>
        <pt x="352" y="782" on="1"/>
        <pt x="323" y="818" on="1"/>
        <pt x="403" y="894" on="1"/>
        <pt x="442" y="927" on="0"/>
        <pt x="459" y="927" on="0"/>
      </contour>
    </TTGlyph>
    <TTGlyph name="Acircumflex" xMin="26" yMin="0" xMax="471" yMax="927">
      <component glyphName="A" x="0" y="0" flags="0x1004"/>
      <component glyphName="circumflex" x="72" y="195" flags="0x1004"/>
    </TTGlyph>
    <TTGlyph name="Adieresis" xMin="26" yMin="0" xMax="468" yMax="914">
      <contour>
        <pt x="405" y="0" on="1"/>
        <pt x="360" y="0" on="0"/>
        <pt x="344" y="12" on="0"/>
        <pt x="342" y="46" on="1"/>
        <pt x="329" y="245" on="1"/>
        <pt x="177" y="245" on="1"/>
        <pt x="85" y="0" on="1"/>
        <pt x="80" y="0" on="1"/>
        <pt x="47" y="0" on="0"/>
        <pt x="27" y="4" on="0"/>
        <pt x="27" y="13" on="1"/>
        <pt x="27" y="16" on="1"/>
        <pt x="27" y="21" on="0"/>
        <pt x="182" y="421" on="0"/>
        <pt x="297" y="720" on="1"/>
        <pt x="361" y="720" on="1"/>
        <pt x="410" y="0" on="1"/>
      </contour>
      <contour>
        <pt x="318" y="592" on="1"/>
        <pt x="299" y="592" on="1"/>
        <pt x="208" y="325" on="1"/>
        <pt x="195" y="300" on="1"/>
        <pt x="331" y="300" on="1"/>
        <pt x="318" y="325" on="1"/>
      </contour>
      <contour>
        <pt x="268" y="914" on="0"/>
        <pt x="304" y="914" on="0"/>
        <pt x="325" y="892" on="0"/>
        <pt x="325" y="855" on="0"/>
        <pt x="292" y="823" on="0"/>
        <pt x="255" y="823" on="0"/>
        <pt x="232" y="845" on="0"/>
        <pt x="232" y="856" on="1"/>
        <pt x="232" y="885" on="0"/>
      </contour>
      <contour>
        <pt x="411" y="914" on="0"/>
        <pt x="446" y="914" on="0"/>
        <pt x="468" y="892" on="0"/>
        <pt x="468" y="855" on="0"/>
        <pt x="435" y="823" on="0"/>
        <pt x="398" y="823" on="0"/>
        <pt x="375" y="845" on="0"/>
        <pt x="375" y="856" on="1"/>
        <pt x="375" y="885" on="0"/>
      </contour>
    </TTGlyph>
    <TTGlyph name="Agrave" xMin="26" yMin="0" xMax="410" yMax="927">
      <component glyphName="A" x="0" y="0" flags="0x1004"/>
      <component glyphName="grave" x="92" y="195" flags="0x1004"/>
    </TTGlyph>
    <TTGlyph name="Aring" xMin="26" yMin="0" xMax="428" yMax="914">
      <component glyphName="A" x="0" y="0" flags="0x1004"/>
      <component glyphName="ring" x="118" y="183" flags="0x1004"/>
    </TTGlyph>
    <TTGlyph name="Atilde" xMin="26" yMin="0" xMax="481" yMax="847">
      <contour>
        <pt x="405" y="0" on="1"/>
        <pt x="360" y="0" on="0"/>
        <pt x="344" y="12" on="0"/>
        <pt x="342" y="46" on="1"/>
        <pt x="329" y="245" on="1"/>
        <pt x="177" y="245" on="1"/>
        <pt x="85" y="0" on="1"/>
        <pt x="80" y="0" on="1"/>
        <pt x="47" y="0" on="0"/>
        <pt x="27" y="4" on="0"/>
        <pt x="27" y="13" on="1"/>
        <pt x="27" y="16" on="1"/>
        <pt x="27" y="21" on="0"/>
        <pt x="182" y="421" on="0"/>
        <pt x="297" y="720" on="1"/>
        <pt x="361" y="720" on="1"/>
        <pt x="410" y="0" on="1"/>
      </contour>
      <contour>
        <pt x="318" y="592" on="1"/>
        <pt x="299" y="592" on="1"/>
        <pt x="208" y="325" on="1"/>
        <pt x="195" y="300" on="1"/>
        <pt x="331" y="300" on="1"/>
        <pt x="318" y="325" on="1"/>
      </contour>
      <contour>
        <pt x="306" y="847" on="1"/>
        <pt x="422" y="843" on="1"/>
        <pt x="449" y="843" on="0"/>
        <pt x="469" y="847" on="1"/>
        <pt x="481" y="845" on="1"/>
        <pt x="478" y="824" on="1"/>
        <pt x="475" y="802" on="0"/>
        <pt x="458" y="794" on="0"/>
        <pt x="414" y="794" on="1"/>
        <pt x="298" y="797" on="1"/>
        <pt x="265" y="797" on="0"/>
        <pt x="251" y="794" on="1"/>
        <pt x="238" y="796" on="1"/>
        <pt x="242" y="817" on="1"/>
        <pt x="247" y="840" on="0"/>
        <pt x="262" y="847" on="0"/>
      </contour>
    </TTGlyph>
    <TTGlyph name="B" xMin="75" yMin="-8" xMax="449" yMax="732">
      <contour>
        <pt x="449" y="627" on="1"/>
        <pt x="449" y="553" on="0"/>
        <pt x="414" y="417" on="0"/>
        <pt x="386" y="395" on="1"/>
        <pt x="426" y="370" on="0"/>
        <pt x="426" y="246" on="0"/>
        <pt x="420" y="171" on="0"/>
        <pt x="394" y="81" on="0"/>
        <pt x="347" y="27" on="0"/>
        <pt x="263" y="-7" on="0"/>
        <pt x="209" y="-7" on="1"/>
        <pt x="203" y="-7" on="0"/>
        <pt x="197" y="-7" on="1"/>
        <pt x="75" y="0" on="1"/>
        <pt x="189" y="722" on="1"/>
        <pt x="294" y="732" on="1"/>
        <pt x="383" y="732" on="0"/>
        <pt x="449" y="680" on="0"/>
      </contour>
      <contour>
        <pt x="235" y="419" on="1"/>
        <pt x="310" y="419" on="0"/>
        <pt x="346" y="450" on="1"/>
        <pt x="375" y="474" on="0"/>
        <pt x="380" y="541" on="1"/>
        <pt x="382" y="566" on="0"/>
        <pt x="382" y="645" on="0"/>
        <pt x="337" y="675" on="0"/>
        <pt x="275" y="675" on="1"/>
        <pt x="240" y="675" on="1"/>
        <pt x="240" y="650" on="1"/>
        <pt x="208" y="444" on="1"/>
        <pt x="200" y="419" on="1"/>
      </contour>
      <contour>
        <pt x="206" y="50" on="1"/>
        <pt x="285" y="50" on="0"/>
        <pt x="323" y="100" on="1"/>
        <pt x="353" y="140" on="0"/>
        <pt x="359" y="220" on="1"/>
        <pt x="361" y="249" on="0"/>
        <pt x="361" y="330" on="0"/>
        <pt x="320" y="362" on="0"/>
        <pt x="266" y="362" on="1"/>
        <pt x="191" y="362" on="1"/>
        <pt x="191" y="337" on="1"/>
        <pt x="149" y="75" on="1"/>
        <pt x="141" y="50" on="1"/>
      </contour>
    </TTGlyph>
    <TTGlyph name="C" xMin="98" yMin="-7" xMax="448" yMax="734">
      <contour>
        <pt x="403" y="668" on="1"/>
        <pt x="391" y="669" on="1"/>
        <pt x="342" y="675" on="1"/>
        <pt x="337" y="676" on="0"/>
        <pt x="332" y="676" on="1"/>
        <pt x="291" y="676" on="0"/>
        <pt x="221" y="568" on="0"/>
        <pt x="202" y="480" on="1"/>
        <pt x="163" y="306" on="0"/>
        <pt x="163" y="174" on="1"/>
        <pt x="163" y="117" on="0"/>
        <pt x="200" y="57" on="0"/>
        <pt x="245" y="57" on="1"/>
        <pt x="268" y="57" on="0"/>
        <pt x="333" y="66" on="0"/>
        <pt x="347" y="67" on="1"/>
        <pt x="338" y="10" on="1"/>
        <pt x="327" y="8" on="0"/>
        <pt x="257" y="-7" on="0"/>
        <pt x="234" y="-7" on="1"/>
        <pt x="159" y="-7" on="0"/>
        <pt x="98" y="75" on="0"/>
        <pt x="98" y="217" on="0"/>
        <pt x="110" y="358" on="0"/>
        <pt x="145" y="528" on="0"/>
        <pt x="198" y="657" on="0"/>
        <pt x="285" y="733" on="0"/>
        <pt x="334" y="733" on="1"/>
        <pt x="342" y="733" on="0"/>
        <pt x="351" y="732" on="1"/>
        <pt x="448" y="712" on="1"/>
        <pt x="441" y="668" on="0"/>
      </contour>
    </TTGlyph>
    <TTGlyph name="Ccedilla" xMin="98" yMin="-155" xMax="448" yMax="734">
      <contour>
        <pt x="403" y="668" on="1"/>
        <pt x="391" y="669" on="1"/>
        <pt x="342" y="675" on="1"/>
        <pt x="337" y="676" on="0"/>
        <pt x="332" y="676" on="1"/>
        <pt x="291" y="676" on="0"/>
        <pt x="221" y="568" on="0"/>
        <pt x="202" y="480" on="1"/>
        <pt x="163" y="306" on="0"/>
        <pt x="163" y="174" on="1"/>
        <pt x="163" y="117" on="0"/>
        <pt x="200" y="57" on="0"/>
        <pt x="245" y="57" on="1"/>
        <pt x="268" y="57" on="0"/>
        <pt x="333" y="66" on="0"/>
        <pt x="347" y="67" on="1"/>
        <pt x="338" y="10" on="1"/>
        <pt x="324" y="8" on="0"/>
        <pt x="273" y="-3" on="0"/>
        <pt x="258" y="-5" on="1"/>
        <pt x="241" y="-109" on="1"/>
        <pt x="236" y="-139" on="0"/>
        <pt x="219" y="-155" on="0"/>
        <pt x="189" y="-155" on="1"/>
        <pt x="154" y="-155" on="1"/>
        <pt x="114" y="-155" on="0"/>
        <pt x="106" y="-147" on="0"/>
        <pt x="106" y="-126" on="0"/>
        <pt x="108" y="-109" on="1"/>
        <pt x="195" y="-109" on="1"/>
        <pt x="212" y="-6" on="1"/>
        <pt x="149" y="0" on="0"/>
        <pt x="98" y="81" on="0"/>
        <pt x="98" y="217" on="0"/>
        <pt x="110" y="358" on="0"/>
        <pt x="145" y="528" on="0"/>
        <pt x="198" y="657" on="0"/>
        <pt x="285" y="733" on="0"/>
        <pt x="334" y="733" on="1"/>
        <pt x="342" y="733" on="0"/>
        <pt x="351" y="732" on="1"/>
        <pt x="448" y="712" on="1"/>
        <pt x="441" y="668" on="0"/>
      </contour>
    </TTGlyph>
    <TTGlyph name="D" xMin="75" yMin="-7" xMax="488" yMax="732">
      <contour>
        <pt x="426" y="732" on="0"/>
        <pt x="488" y="651" on="0"/>
        <pt x="488" y="512" on="0"/>
        <pt x="476" y="374" on="0"/>
        <pt x="442" y="208" on="0"/>
        <pt x="390" y="80" on="0"/>
        <pt x="299" y="-7" on="0"/>
        <pt x="241" y="-7" on="1"/>
        <pt x="236" y="-7" on="0"/>
        <pt x="75" y="0" on="1"/>
        <pt x="189" y="722" on="1"/>
        <pt x="351" y="732" on="1"/>
      </contour>
      <contour>
        <pt x="243" y="50" on="1"/>
        <pt x="290" y="50" on="0"/>
        <pt x="365" y="165" on="0"/>
        <pt x="384" y="250" on="1"/>
        <pt x="423" y="419" on="0"/>
        <pt x="423" y="559" on="1"/>
        <pt x="423" y="616" on="0"/>
        <pt x="386" y="675" on="0"/>
        <pt x="342" y="675" on="1"/>
        <pt x="240" y="675" on="1"/>
        <pt x="240" y="650" on="1"/>
        <pt x="149" y="75" on="1"/>
        <pt x="141" y="50" on="1"/>
      </contour>
    </TTGlyph>
    <TTGlyph name="E" xMin="75" yMin="0" xMax="452" yMax="720">
      <contour>
        <pt x="242" y="667" on="1"/>
        <pt x="242" y="642" on="1"/>
        <pt x="211" y="443" on="1"/>
        <pt x="203" y="418" on="1"/>
        <pt x="390" y="418" on="1"/>
        <pt x="381" y="361" on="1"/>
        <pt x="194" y="361" on="1"/>
        <pt x="194" y="336" on="1"/>
        <pt x="153" y="82" on="1"/>
        <pt x="146" y="57" on="1"/>
        <pt x="357" y="57" on="1"/>
        <pt x="348" y="0" on="1"/>
        <pt x="75" y="0" on="1"/>
        <pt x="189" y="720" on="1"/>
        <pt x="452" y="720" on="1"/>
        <pt x="443" y="667" on="1"/>
      </contour>
    </TTGlyph>
    <TTGlyph name="E_S" xMin="75" yMin="-6" xMax="743" yMax="733">
      <contour>
        <pt x="706" y="670" on="1"/>
        <pt x="693" y="671" on="1"/>
        <pt x="638" y="677" on="1"/>
        <pt x="568" y="677" on="0"/>
        <pt x="516" y="616" on="0"/>
        <pt x="516" y="559" on="1"/>
        <pt x="516" y="524" on="0"/>
        <pt x="578" y="445" on="0"/>
        <pt x="652" y="383" on="0"/>
        <pt x="714" y="296" on="0"/>
        <pt x="714" y="253" on="1"/>
        <pt x="714" y="-5" on="0"/>
        <pt x="504" y="-6" on="1"/>
        <pt x="75" y="0" on="1"/>
        <pt x="189" y="720" on="1"/>
        <pt x="422" y="720" on="1"/>
        <pt x="413" y="667" on="1"/>
        <pt x="242" y="667" on="1"/>
        <pt x="242" y="642" on="1"/>
        <pt x="211" y="443" on="1"/>
        <pt x="203" y="418" on="1"/>
        <pt x="360" y="418" on="1"/>
        <pt x="351" y="361" on="1"/>
        <pt x="194" y="361" on="1"/>
        <pt x="194" y="336" on="1"/>
        <pt x="153" y="82" on="1"/>
        <pt x="146" y="57" on="1"/>
        <pt x="516" y="59" on="1"/>
        <pt x="598" y="59" on="0"/>
        <pt x="625" y="114" on="1"/>
        <pt x="648" y="160" on="0"/>
        <pt x="648" y="231" on="1"/>
        <pt x="648" y="262" on="0"/>
        <pt x="586" y="341" on="0"/>
        <pt x="512" y="408" on="0"/>
        <pt x="450" y="502" on="0"/>
        <pt x="450" y="546" on="1"/>
        <pt x="450" y="641" on="0"/>
        <pt x="527" y="732" on="0"/>
        <pt x="635" y="732" on="1"/>
        <pt x="638" y="732" on="0"/>
        <pt x="640" y="732" on="1"/>
        <pt x="743" y="712" on="1"/>
        <pt x="739" y="687" on="0"/>
        <pt x="722" y="670" on="0"/>
      </contour>
    </TTGlyph>
    <TTGlyph name="E_s" xMin="75" yMin="-6" xMax="632" yMax="720">
      <contour>
        <pt x="242" y="667" on="1"/>
        <pt x="242" y="642" on="1"/>
        <pt x="211" y="443" on="1"/>
        <pt x="203" y="418" on="1"/>
        <pt x="360" y="418" on="1"/>
        <pt x="351" y="361" on="1"/>
        <pt x="194" y="361" on="1"/>
        <pt x="194" y="336" on="1"/>
        <pt x="153" y="82" on="1"/>
        <pt x="146" y="57" on="1"/>
        <pt x="363" y="53" on="1"/>
        <pt x="482" y="51" on="1"/>
        <pt x="513" y="52" on="0"/>
        <pt x="552" y="127" on="0"/>
        <pt x="552" y="171" on="1"/>
        <pt x="552" y="176" on="0"/>
        <pt x="551" y="197" on="0"/>
        <pt x="520" y="236" on="0"/>
        <pt x="476" y="272" on="0"/>
        <pt x="454" y="292" on="1"/>
        <pt x="402" y="339" on="0"/>
        <pt x="400" y="391" on="1"/>
        <pt x="400" y="441" on="0"/>
        <pt x="427" y="508" on="0"/>
        <pt x="440" y="518" on="1"/>
        <pt x="476" y="544" on="0"/>
        <pt x="539" y="546" on="1"/>
        <pt x="632" y="535" on="1"/>
        <pt x="627" y="491" on="0"/>
        <pt x="592" y="489" on="1"/>
        <pt x="587" y="489" on="0"/>
        <pt x="577" y="491" on="1"/>
        <pt x="537" y="495" on="1"/>
        <pt x="458" y="492" on="0"/>
        <pt x="458" y="416" on="1"/>
        <pt x="458" y="367" on="0"/>
        <pt x="536" y="306" on="1"/>
        <pt x="565" y="284" on="0"/>
        <pt x="590" y="254" on="1"/>
        <pt x="615" y="222" on="0"/>
        <pt x="615" y="147" on="0"/>
        <pt x="591" y="64" on="0"/>
        <pt x="524" y="-5" on="0"/>
        <pt x="475" y="-6" on="1"/>
        <pt x="75" y="0" on="1"/>
        <pt x="189" y="720" on="1"/>
        <pt x="422" y="720" on="1"/>
        <pt x="413" y="667" on="1"/>
      </contour>
    </TTGlyph>
    <TTGlyph name="Eacute" xMin="75" yMin="0" xMax="477" yMax="927">
      <contour>
        <pt x="242" y="667" on="1"/>
        <pt x="242" y="642" on="1"/>
        <pt x="211" y="443" on="1"/>
        <pt x="203" y="418" on="1"/>
        <pt x="390" y="418" on="1"/>
        <pt x="381" y="361" on="1"/>
        <pt x="194" y="361" on="1"/>
        <pt x="194" y="336" on="1"/>
        <pt x="153" y="82" on="1"/>
        <pt x="146" y="57" on="1"/>
        <pt x="357" y="57" on="1"/>
        <pt x="348" y="0" on="1"/>
        <pt x="75" y="0" on="1"/>
        <pt x="189" y="720" on="1"/>
        <pt x="452" y="720" on="1"/>
        <pt x="443" y="667" on="1"/>
      </contour>
      <contour>
        <pt x="477" y="896" on="1"/>
        <pt x="343" y="782" on="1"/>
        <pt x="314" y="818" on="1"/>
        <pt x="394" y="894" on="1"/>
        <pt x="433" y="927" on="0"/>
        <pt x="450" y="927" on="0"/>
      </contour>
    </TTGlyph>
    <TTGlyph name="Ecircumflex" xMin="75" yMin="0" xMax="458" yMax="927">
      <contour>
        <pt x="242" y="667" on="1"/>
        <pt x="242" y="642" on="1"/>
        <pt x="211" y="443" on="1"/>
        <pt x="203" y="418" on="1"/>
        <pt x="390" y="418" on="1"/>
        <pt x="381" y="361" on="1"/>
        <pt x="194" y="361" on="1"/>
        <pt x="194" y="336" on="1"/>
        <pt x="153" y="82" on="1"/>
        <pt x="146" y="57" on="1"/>
        <pt x="357" y="57" on="1"/>
        <pt x="348" y="0" on="1"/>
        <pt x="75" y="0" on="1"/>
        <pt x="189" y="720" on="1"/>
        <pt x="452" y="720" on="1"/>
        <pt x="443" y="667" on="1"/>
      </contour>
      <contour>
        <pt x="449" y="812" on="1"/>
        <pt x="342" y="878" on="1"/>
        <pt x="214" y="812" on="1"/>
        <pt x="223" y="867" on="1"/>
        <pt x="336" y="927" on="1"/>
        <pt x="362" y="927" on="1"/>
        <pt x="458" y="866" on="1"/>
      </contour>
    </TTGlyph>
    <TTGlyph name="Edieresis" xMin="75" yMin="0" xMax="469" yMax="915">
      <contour>
        <pt x="242" y="667" on="1"/>
        <pt x="242" y="642" on="1"/>
        <pt x="211" y="443" on="1"/>
        <pt x="203" y="418" on="1"/>
        <pt x="390" y="418" on="1"/>
        <pt x="381" y="361" on="1"/>
        <pt x="194" y="361" on="1"/>
        <pt x="194" y="336" on="1"/>
        <pt x="153" y="82" on="1"/>
        <pt x="146" y="57" on="1"/>
        <pt x="357" y="57" on="1"/>
        <pt x="348" y="0" on="1"/>
        <pt x="75" y="0" on="1"/>
        <pt x="189" y="720" on="1"/>
        <pt x="452" y="720" on="1"/>
        <pt x="443" y="667" on="1"/>
      </contour>
      <contour>
        <pt x="269" y="915" on="0"/>
        <pt x="304" y="915" on="0"/>
        <pt x="326" y="894" on="0"/>
        <pt x="326" y="856" on="0"/>
        <pt x="293" y="824" on="0"/>
        <pt x="256" y="824" on="0"/>
        <pt x="233" y="846" on="0"/>
        <pt x="233" y="857" on="1"/>
        <pt x="233" y="886" on="0"/>
      </contour>
      <contour>
        <pt x="412" y="915" on="0"/>
        <pt x="448" y="915" on="0"/>
        <pt x="469" y="894" on="0"/>
        <pt x="469" y="856" on="0"/>
        <pt x="436" y="824" on="0"/>
        <pt x="399" y="824" on="0"/>
        <pt x="376" y="846" on="0"/>
        <pt x="376" y="857" on="1"/>
        <pt x="376" y="886" on="0"/>
      </contour>
    </TTGlyph>
    <TTGlyph name="Egrave" xMin="75" yMin="0" xMax="452" yMax="927">
      <contour>
        <pt x="242" y="667" on="1"/>
        <pt x="242" y="642" on="1"/>
        <pt x="211" y="443" on="1"/>
        <pt x="203" y="418" on="1"/>
        <pt x="390" y="418" on="1"/>
        <pt x="381" y="361" on="1"/>
        <pt x="194" y="361" on="1"/>
        <pt x="194" y="336" on="1"/>
        <pt x="153" y="82" on="1"/>
        <pt x="146" y="57" on="1"/>
        <pt x="357" y="57" on="1"/>
        <pt x="348" y="0" on="1"/>
        <pt x="75" y="0" on="1"/>
        <pt x="189" y="720" on="1"/>
        <pt x="452" y="720" on="1"/>
        <pt x="443" y="667" on="1"/>
      </contour>
      <contour>
        <pt x="277" y="903" on="1"/>
        <pt x="304" y="927" on="0"/>
        <pt x="323" y="927" on="0"/>
        <pt x="350" y="894" on="1"/>
        <pt x="406" y="818" on="1"/>
        <pt x="365" y="782" on="1"/>
        <pt x="269" y="896" on="1"/>
      </contour>
    </TTGlyph>
    <TTGlyph name="Eth" xMin="60" yMin="-7" xMax="493" yMax="732">
      <contour>
        <pt x="431" y="732" on="0"/>
        <pt x="493" y="651" on="0"/>
        <pt x="493" y="522" on="0"/>
        <pt x="460" y="309" on="0"/>
        <pt x="450" y="250" on="0"/>
        <pt x="429" y="156" on="0"/>
        <pt x="409" y="107" on="0"/>
        <pt x="374" y="45" on="0"/>
        <pt x="354" y="30" on="1"/>
        <pt x="303" y="-7" on="0"/>
        <pt x="239" y="-7" on="1"/>
        <pt x="60" y="0" on="1"/>
        <pt x="174" y="722" on="1"/>
        <pt x="356" y="732" on="1"/>
      </contour>
      <contour>
        <pt x="248" y="50" on="1"/>
        <pt x="289" y="50" on="0"/>
        <pt x="314" y="76" on="1"/>
        <pt x="344" y="106" on="0"/>
        <pt x="367" y="171" on="0"/>
        <pt x="378" y="209" on="0"/>
        <pt x="392" y="281" on="0"/>
        <pt x="399" y="324" on="0"/>
        <pt x="428" y="502" on="0"/>
        <pt x="428" y="616" on="0"/>
        <pt x="391" y="675" on="0"/>
        <pt x="347" y="675" on="1"/>
        <pt x="220" y="675" on="1"/>
        <pt x="223" y="636" on="1"/>
        <pt x="194" y="454" on="1"/>
        <pt x="184" y="420" on="1"/>
        <pt x="312" y="420" on="1"/>
        <pt x="304" y="369" on="1"/>
        <pt x="175" y="369" on="1"/>
        <pt x="175" y="331" on="1"/>
        <pt x="135" y="78" on="1"/>
        <pt x="125" y="50" on="1"/>
      </contour>
    </TTGlyph>
    <TTGlyph name="Euro" xMin="61" yMin="-6" xMax="419" yMax="545">
      <contour>
        <pt x="173" y="-6" on="0"/>
        <pt x="126" y="42" on="0"/>
        <pt x="126" y="133" on="0"/>
        <pt x="134" y="191" on="1"/>
        <pt x="141" y="203" on="1"/>
        <pt x="127" y="204" on="0"/>
        <pt x="82" y="204" on="0"/>
        <pt x="73" y="202" on="1"/>
        <pt x="61" y="204" on="1"/>
        <pt x="64" y="225" on="1"/>
        <pt x="67" y="247" on="0"/>
        <pt x="84" y="255" on="0"/>
        <pt x="128" y="255" on="1"/>
        <pt x="148" y="255" on="1"/>
        <pt x="146" y="267" on="1"/>
        <pt x="150" y="293" on="1"/>
        <pt x="155" y="302" on="1"/>
        <pt x="143" y="303" on="0"/>
        <pt x="100" y="303" on="0"/>
        <pt x="92" y="301" on="1"/>
        <pt x="79" y="303" on="1"/>
        <pt x="83" y="324" on="1"/>
        <pt x="88" y="347" on="0"/>
        <pt x="102" y="354" on="0"/>
        <pt x="147" y="354" on="1"/>
        <pt x="164" y="354" on="1"/>
        <pt x="162" y="369" on="1"/>
        <pt x="181" y="468" on="0"/>
        <pt x="244" y="545" on="0"/>
        <pt x="321" y="545" on="1"/>
        <pt x="419" y="538" on="1"/>
        <pt x="413" y="504" on="0"/>
        <pt x="398" y="492" on="0"/>
        <pt x="361" y="492" on="1"/>
        <pt x="312" y="492" on="1"/>
        <pt x="271" y="492" on="0"/>
        <pt x="233" y="437" on="0"/>
        <pt x="219" y="366" on="1"/>
        <pt x="211" y="350" on="1"/>
        <pt x="300" y="343" on="0"/>
        <pt x="333" y="343" on="0"/>
        <pt x="348" y="346" on="1"/>
        <pt x="361" y="344" on="1"/>
        <pt x="358" y="323" on="1"/>
        <pt x="355" y="301" on="0"/>
        <pt x="338" y="293" on="0"/>
        <pt x="260" y="293" on="0"/>
        <pt x="205" y="298" on="1"/>
        <pt x="207" y="288" on="1"/>
        <pt x="203" y="263" on="1"/>
        <pt x="197" y="250" on="1"/>
        <pt x="267" y="244" on="0"/>
        <pt x="315" y="244" on="0"/>
        <pt x="330" y="247" on="1"/>
        <pt x="342" y="245" on="1"/>
        <pt x="339" y="224" on="1"/>
        <pt x="336" y="202" on="0"/>
        <pt x="319" y="194" on="0"/>
        <pt x="255" y="194" on="0"/>
        <pt x="189" y="198" on="1"/>
        <pt x="191" y="186" on="1"/>
        <pt x="185" y="132" on="0"/>
        <pt x="185" y="106" on="1"/>
        <pt x="185" y="47" on="0"/>
        <pt x="242" y="47" on="1"/>
        <pt x="341" y="47" on="1"/>
        <pt x="334" y="1" on="1"/>
        <pt x="234" y="-6" on="1"/>
      </contour>
    </TTGlyph>
    <TTGlyph name="F" xMin="79" yMin="0" xMax="452" yMax="720">
      <contour>
        <pt x="133" y="0" on="1"/>
        <pt x="85" y="0" on="0"/>
        <pt x="81" y="8" on="1"/>
        <pt x="79" y="12" on="0"/>
        <pt x="79" y="28" on="0"/>
        <pt x="82" y="46" on="1"/>
        <pt x="189" y="720" on="1"/>
        <pt x="452" y="720" on="1"/>
        <pt x="443" y="667" on="1"/>
        <pt x="242" y="667" on="1"/>
        <pt x="242" y="642" on="1"/>
        <pt x="211" y="443" on="1"/>
        <pt x="203" y="418" on="1"/>
        <pt x="390" y="418" on="1"/>
        <pt x="381" y="361" on="1"/>
        <pt x="194" y="361" on="1"/>
        <pt x="194" y="336" on="1"/>
        <pt x="141" y="0" on="1"/>
      </contour>
    </TTGlyph>
    <TTGlyph name="G" xMin="108" yMin="-7" xMax="478" yMax="733">
      <contour>
        <pt x="336" y="60" on="1"/>
        <pt x="336" y="85" on="1"/>
        <pt x="371" y="307" on="1"/>
        <pt x="378" y="350" on="0"/>
        <pt x="392" y="365" on="0"/>
        <pt x="426" y="365" on="1"/>
        <pt x="443" y="365" on="1"/>
        <pt x="387" y="10" on="1"/>
        <pt x="372" y="8" on="0"/>
        <pt x="342" y="3" on="1"/>
        <pt x="282" y="-7" on="0"/>
        <pt x="244" y="-7" on="1"/>
        <pt x="169" y="-7" on="0"/>
        <pt x="108" y="75" on="0"/>
        <pt x="108" y="215" on="0"/>
        <pt x="119" y="352" on="0"/>
        <pt x="151" y="517" on="0"/>
        <pt x="201" y="646" on="0"/>
        <pt x="288" y="733" on="0"/>
        <pt x="344" y="733" on="1"/>
        <pt x="478" y="712" on="1"/>
        <pt x="471" y="668" on="0"/>
        <pt x="433" y="668" on="1"/>
        <pt x="343" y="675" on="1"/>
        <pt x="298" y="675" on="0"/>
        <pt x="227" y="556" on="0"/>
        <pt x="209" y="469" on="1"/>
        <pt x="172" y="290" on="0"/>
        <pt x="172" y="168" on="1"/>
        <pt x="172" y="110" on="0"/>
        <pt x="209" y="50" on="0"/>
        <pt x="253" y="50" on="1"/>
        <pt x="269" y="50" on="0"/>
        <pt x="332" y="60" on="0"/>
      </contour>
    </TTGlyph>
    <TTGlyph name="H" xMin="75" yMin="0" xMax="491" yMax="720">
      <contour>
        <pt x="378" y="0" on="1"/>
        <pt x="330" y="0" on="0"/>
        <pt x="326" y="8" on="1"/>
        <pt x="324" y="12" on="0"/>
        <pt x="324" y="28" on="0"/>
        <pt x="373" y="336" on="1"/>
        <pt x="381" y="361" on="1"/>
        <pt x="190" y="361" on="1"/>
        <pt x="190" y="336" on="1"/>
        <pt x="144" y="46" on="1"/>
        <pt x="139" y="12" on="0"/>
        <pt x="122" y="0" on="0"/>
        <pt x="79" y="0" on="1"/>
        <pt x="75" y="0" on="1"/>
        <pt x="189" y="720" on="1"/>
        <pt x="193" y="720" on="1"/>
        <pt x="240" y="720" on="0"/>
        <pt x="244" y="712" on="1"/>
        <pt x="246" y="708" on="0"/>
        <pt x="246" y="692" on="0"/>
        <pt x="207" y="443" on="1"/>
        <pt x="199" y="418" on="1"/>
        <pt x="390" y="418" on="1"/>
        <pt x="390" y="443" on="1"/>
        <pt x="434" y="720" on="1"/>
        <pt x="438" y="720" on="1"/>
        <pt x="485" y="720" on="0"/>
        <pt x="489" y="712" on="1"/>
        <pt x="491" y="708" on="0"/>
        <pt x="491" y="692" on="0"/>
        <pt x="382" y="0" on="1"/>
      </contour>
    </TTGlyph>
    <TTGlyph name="I" xMin="79" yMin="0" xMax="247" yMax="720">
      <contour>
        <pt x="133" y="0" on="1"/>
        <pt x="85" y="0" on="0"/>
        <pt x="81" y="8" on="1"/>
        <pt x="79" y="12" on="0"/>
        <pt x="79" y="28" on="0"/>
        <pt x="189" y="720" on="1"/>
        <pt x="194" y="720" on="1"/>
        <pt x="241" y="720" on="0"/>
        <pt x="245" y="712" on="1"/>
        <pt x="247" y="708" on="0"/>
        <pt x="247" y="692" on="0"/>
        <pt x="138" y="0" on="1"/>
      </contour>
    </TTGlyph>
    <TTGlyph name="Iacute" xMin="79" yMin="0" xMax="378" yMax="927">
      <contour>
        <pt x="133" y="0" on="1"/>
        <pt x="85" y="0" on="0"/>
        <pt x="81" y="8" on="1"/>
        <pt x="79" y="12" on="0"/>
        <pt x="79" y="28" on="0"/>
        <pt x="189" y="720" on="1"/>
        <pt x="194" y="720" on="1"/>
        <pt x="241" y="720" on="0"/>
        <pt x="245" y="712" on="1"/>
        <pt x="247" y="708" on="0"/>
        <pt x="247" y="692" on="0"/>
        <pt x="138" y="0" on="1"/>
      </contour>
      <contour>
        <pt x="378" y="896" on="1"/>
        <pt x="244" y="782" on="1"/>
        <pt x="215" y="818" on="1"/>
        <pt x="295" y="894" on="1"/>
        <pt x="334" y="927" on="0"/>
        <pt x="351" y="927" on="0"/>
      </contour>
    </TTGlyph>
    <TTGlyph name="Icircumflex" xMin="79" yMin="0" xMax="363" yMax="927">
      <contour>
        <pt x="133" y="0" on="1"/>
        <pt x="85" y="0" on="0"/>
        <pt x="81" y="8" on="1"/>
        <pt x="79" y="12" on="0"/>
        <pt x="79" y="28" on="0"/>
        <pt x="189" y="720" on="1"/>
        <pt x="194" y="720" on="1"/>
        <pt x="241" y="720" on="0"/>
        <pt x="245" y="712" on="1"/>
        <pt x="247" y="708" on="0"/>
        <pt x="247" y="692" on="0"/>
        <pt x="138" y="0" on="1"/>
      </contour>
      <contour>
        <pt x="354" y="812" on="1"/>
        <pt x="247" y="878" on="1"/>
        <pt x="119" y="812" on="1"/>
        <pt x="128" y="867" on="1"/>
        <pt x="241" y="927" on="1"/>
        <pt x="267" y="927" on="1"/>
        <pt x="363" y="866" on="1"/>
      </contour>
    </TTGlyph>
    <TTGlyph name="Idieresis" xMin="79" yMin="0" xMax="362" yMax="915">
      <contour>
        <pt x="133" y="0" on="1"/>
        <pt x="85" y="0" on="0"/>
        <pt x="81" y="8" on="1"/>
        <pt x="79" y="12" on="0"/>
        <pt x="79" y="28" on="0"/>
        <pt x="189" y="720" on="1"/>
        <pt x="194" y="720" on="1"/>
        <pt x="241" y="720" on="0"/>
        <pt x="245" y="712" on="1"/>
        <pt x="247" y="708" on="0"/>
        <pt x="247" y="692" on="0"/>
        <pt x="138" y="0" on="1"/>
      </contour>
      <contour>
        <pt x="162" y="915" on="0"/>
        <pt x="198" y="915" on="0"/>
        <pt x="219" y="894" on="0"/>
        <pt x="219" y="856" on="0"/>
        <pt x="186" y="824" on="0"/>
        <pt x="149" y="824" on="0"/>
        <pt x="126" y="846" on="0"/>
        <pt x="126" y="857" on="1"/>
        <pt x="126" y="886" on="0"/>
      </contour>
      <contour>
        <pt x="305" y="915" on="0"/>
        <pt x="340" y="915" on="0"/>
        <pt x="362" y="894" on="0"/>
        <pt x="362" y="856" on="0"/>
        <pt x="329" y="824" on="0"/>
        <pt x="292" y="824" on="0"/>
        <pt x="269" y="846" on="0"/>
        <pt x="269" y="857" on="1"/>
        <pt x="269" y="886" on="0"/>
      </contour>
    </TTGlyph>
    <TTGlyph name="Igrave" xMin="79" yMin="0" xMax="294" yMax="927">
      <component glyphName="I" x="0" y="0" flags="0x1004"/>
      <component glyphName="grave" x="37" y="195" flags="0x1004"/>
    </TTGlyph>
    <TTGlyph name="J" xMin="-8" yMin="-200" xMax="290" yMax="720">
      <contour>
        <pt x="-8" y="-200" on="1"/>
        <pt x="-8" y="-150" on="1"/>
        <pt x="25" y="-150" on="0"/>
        <pt x="54" y="-128" on="0"/>
        <pt x="72" y="-113" on="0"/>
        <pt x="88" y="-82" on="0"/>
        <pt x="99" y="-59" on="0"/>
        <pt x="111" y="-15" on="0"/>
        <pt x="118" y="14" on="0"/>
        <pt x="124" y="43" on="1"/>
        <pt x="134" y="99" on="0"/>
        <pt x="140" y="139" on="1"/>
        <pt x="232" y="720" on="1"/>
        <pt x="237" y="720" on="1"/>
        <pt x="284" y="720" on="0"/>
        <pt x="288" y="712" on="1"/>
        <pt x="290" y="708" on="0"/>
        <pt x="290" y="692" on="0"/>
        <pt x="195" y="87" on="0"/>
        <pt x="183" y="23" on="0"/>
        <pt x="164" y="-58" on="0"/>
        <pt x="144" y="-105" on="0"/>
        <pt x="113" y="-156" on="0"/>
        <pt x="94" y="-170" on="1"/>
        <pt x="53" y="-200" on="0"/>
      </contour>
    </TTGlyph>
    <TTGlyph name="K" xMin="75" yMin="0" xMax="469" yMax="720">
      <contour>
        <pt x="371" y="0" on="1"/>
        <pt x="324" y="0" on="0"/>
        <pt x="298" y="13" on="0"/>
        <pt x="287" y="46" on="1"/>
        <pt x="208" y="363" on="1"/>
        <pt x="414" y="720" on="1"/>
        <pt x="418" y="720" on="1"/>
        <pt x="449" y="720" on="0"/>
        <pt x="469" y="717" on="0"/>
        <pt x="469" y="710" on="1"/>
        <pt x="469" y="709" on="0"/>
        <pt x="469" y="705" on="0"/>
        <pt x="359" y="511" on="0"/>
        <pt x="276" y="363" on="1"/>
        <pt x="375" y="0" on="1"/>
      </contour>
      <contour>
        <pt x="79" y="0" on="1"/>
        <pt x="75" y="0" on="1"/>
        <pt x="189" y="720" on="1"/>
        <pt x="193" y="720" on="1"/>
        <pt x="240" y="720" on="0"/>
        <pt x="244" y="712" on="1"/>
        <pt x="246" y="708" on="0"/>
        <pt x="246" y="692" on="0"/>
        <pt x="144" y="46" on="1"/>
        <pt x="139" y="12" on="0"/>
        <pt x="122" y="0" on="0"/>
      </contour>
    </TTGlyph>
    <TTGlyph name="L" xMin="75" yMin="0" xMax="328" yMax="720">
      <contour>
        <pt x="197" y="720" on="1"/>
        <pt x="244" y="720" on="0"/>
        <pt x="248" y="712" on="1"/>
        <pt x="250" y="708" on="0"/>
        <pt x="250" y="692" on="0"/>
        <pt x="153" y="82" on="1"/>
        <pt x="146" y="57" on="1"/>
        <pt x="275" y="57" on="1"/>
        <pt x="322" y="57" on="0"/>
        <pt x="326" y="49" on="1"/>
        <pt x="328" y="45" on="0"/>
        <pt x="328" y="38" on="1"/>
        <pt x="324" y="0" on="1"/>
        <pt x="75" y="0" on="1"/>
        <pt x="189" y="720" on="1"/>
      </contour>
    </TTGlyph>
    <TTGlyph name="Lslash" xMin="43" yMin="0" xMax="328" yMax="720">
      <component glyphName="L" x="0" y="0" flags="0x1004"/>
      <component glyphName="endash" x="-64" y="0" flags="0x1004"/>
    </TTGlyph>
    <TTGlyph name="M" xMin="70" yMin="0" xMax="618" yMax="720">
      <contour>
        <pt x="505" y="0" on="1"/>
        <pt x="456" y="0" on="0"/>
        <pt x="452" y="8" on="1"/>
        <pt x="450" y="12" on="0"/>
        <pt x="450" y="29" on="0"/>
        <pt x="537" y="578" on="1"/>
        <pt x="532" y="578" on="1"/>
        <pt x="525" y="560" on="1"/>
        <pt x="394" y="347" on="1"/>
        <pt x="363" y="301" on="1"/>
        <pt x="311" y="301" on="1"/>
        <pt x="294" y="346" on="1"/>
        <pt x="228" y="560" on="1"/>
        <pt x="228" y="578" on="1"/>
        <pt x="223" y="578" on="1"/>
        <pt x="139" y="46" on="1"/>
        <pt x="134" y="12" on="0"/>
        <pt x="117" y="0" on="0"/>
        <pt x="74" y="0" on="1"/>
        <pt x="70" y="0" on="1"/>
        <pt x="184" y="720" on="1"/>
        <pt x="189" y="720" on="1"/>
        <pt x="232" y="720" on="0"/>
        <pt x="251" y="708" on="0"/>
        <pt x="261" y="674" on="1"/>
        <pt x="345" y="400" on="1"/>
        <pt x="360" y="400" on="1"/>
        <pt x="560" y="720" on="1"/>
        <pt x="565" y="720" on="1"/>
        <pt x="612" y="720" on="0"/>
        <pt x="616" y="712" on="1"/>
        <pt x="618" y="708" on="0"/>
        <pt x="618" y="692" on="0"/>
        <pt x="509" y="0" on="1"/>
      </contour>
    </TTGlyph>
    <TTGlyph name="N" xMin="70" yMin="0" xMax="494" yMax="720">
      <contour>
        <pt x="381" y="0" on="1"/>
        <pt x="338" y="0" on="0"/>
        <pt x="320" y="12" on="0"/>
        <pt x="313" y="46" on="1"/>
        <pt x="223" y="521" on="1"/>
        <pt x="223" y="548" on="1"/>
        <pt x="218" y="548" on="1"/>
        <pt x="139" y="46" on="1"/>
        <pt x="134" y="12" on="0"/>
        <pt x="117" y="0" on="0"/>
        <pt x="74" y="0" on="1"/>
        <pt x="70" y="0" on="1"/>
        <pt x="184" y="720" on="1"/>
        <pt x="189" y="720" on="1"/>
        <pt x="232" y="720" on="0"/>
        <pt x="249" y="708" on="0"/>
        <pt x="255" y="674" on="1"/>
        <pt x="343" y="188" on="1"/>
        <pt x="343" y="161" on="1"/>
        <pt x="348" y="161" on="1"/>
        <pt x="437" y="720" on="1"/>
        <pt x="441" y="720" on="1"/>
        <pt x="488" y="720" on="0"/>
        <pt x="492" y="712" on="1"/>
        <pt x="494" y="708" on="0"/>
        <pt x="494" y="692" on="0"/>
        <pt x="385" y="0" on="1"/>
      </contour>
    </TTGlyph>
    <TTGlyph name="Ntilde" xMin="70" yMin="0" xMax="494" yMax="847">
      <contour>
        <pt x="381" y="0" on="1"/>
        <pt x="338" y="0" on="0"/>
        <pt x="320" y="12" on="0"/>
        <pt x="313" y="46" on="1"/>
        <pt x="223" y="521" on="1"/>
        <pt x="223" y="548" on="1"/>
        <pt x="218" y="548" on="1"/>
        <pt x="139" y="46" on="1"/>
        <pt x="134" y="12" on="0"/>
        <pt x="117" y="0" on="0"/>
        <pt x="74" y="0" on="1"/>
        <pt x="70" y="0" on="1"/>
        <pt x="184" y="720" on="1"/>
        <pt x="189" y="720" on="1"/>
        <pt x="232" y="720" on="0"/>
        <pt x="249" y="708" on="0"/>
        <pt x="255" y="674" on="1"/>
        <pt x="343" y="188" on="1"/>
        <pt x="343" y="161" on="1"/>
        <pt x="348" y="161" on="1"/>
        <pt x="437" y="720" on="1"/>
        <pt x="441" y="720" on="1"/>
        <pt x="488" y="720" on="0"/>
        <pt x="492" y="712" on="1"/>
        <pt x="494" y="708" on="0"/>
        <pt x="494" y="692" on="0"/>
        <pt x="385" y="0" on="1"/>
      </contour>
      <contour>
        <pt x="306" y="847" on="1"/>
        <pt x="422" y="843" on="1"/>
        <pt x="449" y="843" on="0"/>
        <pt x="469" y="847" on="1"/>
        <pt x="481" y="845" on="1"/>
        <pt x="478" y="824" on="1"/>
        <pt x="475" y="802" on="0"/>
        <pt x="458" y="794" on="0"/>
        <pt x="414" y="794" on="1"/>
        <pt x="298" y="797" on="1"/>
        <pt x="265" y="797" on="0"/>
        <pt x="251" y="794" on="1"/>
        <pt x="238" y="796" on="1"/>
        <pt x="242" y="817" on="1"/>
        <pt x="247" y="840" on="0"/>
        <pt x="262" y="847" on="0"/>
      </contour>
    </TTGlyph>
    <TTGlyph name="O" xMin="102" yMin="-7" xMax="493" yMax="732">
      <contour>
        <pt x="407" y="102" on="0"/>
        <pt x="305" y="-7" on="0"/>
        <pt x="165" y="-7" on="0"/>
        <pt x="102" y="78" on="0"/>
        <pt x="102" y="262" on="0"/>
        <pt x="130" y="451" on="0"/>
        <pt x="187" y="624" on="0"/>
        <pt x="290" y="732" on="0"/>
        <pt x="430" y="732" on="0"/>
        <pt x="493" y="651" on="0"/>
        <pt x="493" y="468" on="0"/>
        <pt x="464" y="277" on="0"/>
      </contour>
      <contour>
        <pt x="170" y="115" on="0"/>
        <pt x="206" y="50" on="0"/>
        <pt x="291" y="50" on="0"/>
        <pt x="361" y="157" on="0"/>
        <pt x="402" y="317" on="0"/>
        <pt x="424" y="479" on="0"/>
        <pt x="424" y="611" on="0"/>
        <pt x="388" y="675" on="0"/>
        <pt x="305" y="675" on="0"/>
        <pt x="234" y="568" on="0"/>
        <pt x="213" y="488" on="1"/>
        <pt x="170" y="324" on="0"/>
        <pt x="170" y="181" on="1"/>
      </contour>
    </TTGlyph>
    <TTGlyph name="OE" xMin="85" yMin="-7" xMax="729" yMax="732">
      <contour>
        <pt x="153" y="-7" on="0"/>
        <pt x="85" y="63" on="0"/>
        <pt x="85" y="199" on="0"/>
        <pt x="142" y="552" on="0"/>
        <pt x="164" y="610" on="1"/>
        <pt x="197" y="696" on="0"/>
        <pt x="267" y="720" on="1"/>
        <pt x="303" y="732" on="0"/>
        <pt x="356" y="732" on="1"/>
        <pt x="446" y="720" on="1"/>
        <pt x="729" y="720" on="1"/>
        <pt x="720" y="667" on="1"/>
        <pt x="502" y="667" on="1"/>
        <pt x="502" y="642" on="1"/>
        <pt x="471" y="443" on="1"/>
        <pt x="463" y="418" on="1"/>
        <pt x="667" y="418" on="1"/>
        <pt x="658" y="361" on="1"/>
        <pt x="455" y="361" on="1"/>
        <pt x="455" y="336" on="1"/>
        <pt x="414" y="82" on="1"/>
        <pt x="407" y="57" on="1"/>
        <pt x="634" y="57" on="1"/>
        <pt x="625" y="0" on="1"/>
        <pt x="332" y="0" on="1"/>
        <pt x="239" y="-7" on="1"/>
      </contour>
      <contour>
        <pt x="187" y="441" on="0"/>
        <pt x="181" y="406" on="0"/>
        <pt x="152" y="224" on="0"/>
        <pt x="152" y="107" on="0"/>
        <pt x="195" y="50" on="0"/>
        <pt x="248" y="50" on="1"/>
        <pt x="341" y="57" on="1"/>
        <pt x="437" y="663" on="1"/>
        <pt x="347" y="675" on="1"/>
        <pt x="306" y="675" on="0"/>
        <pt x="272" y="653" on="0"/>
        <pt x="252" y="640" on="0"/>
        <pt x="233" y="606" on="0"/>
        <pt x="221" y="585" on="0"/>
        <pt x="207" y="535" on="0"/>
        <pt x="199" y="507" on="0"/>
      </contour>
    </TTGlyph>
    <TTGlyph name="Oacute" xMin="102" yMin="-7" xMax="493" yMax="927">
      <contour>
        <pt x="407" y="102" on="0"/>
        <pt x="305" y="-7" on="0"/>
        <pt x="165" y="-7" on="0"/>
        <pt x="102" y="78" on="0"/>
        <pt x="102" y="262" on="0"/>
        <pt x="130" y="451" on="0"/>
        <pt x="187" y="624" on="0"/>
        <pt x="290" y="732" on="0"/>
        <pt x="430" y="732" on="0"/>
        <pt x="493" y="651" on="0"/>
        <pt x="493" y="468" on="0"/>
        <pt x="464" y="277" on="0"/>
      </contour>
      <contour>
        <pt x="170" y="115" on="0"/>
        <pt x="206" y="50" on="0"/>
        <pt x="291" y="50" on="0"/>
        <pt x="361" y="157" on="0"/>
        <pt x="402" y="317" on="0"/>
        <pt x="424" y="479" on="0"/>
        <pt x="424" y="611" on="0"/>
        <pt x="388" y="675" on="0"/>
        <pt x="305" y="675" on="0"/>
        <pt x="234" y="568" on="0"/>
        <pt x="213" y="488" on="1"/>
        <pt x="170" y="324" on="0"/>
        <pt x="170" y="181" on="1"/>
      </contour>
      <contour>
        <pt x="484" y="896" on="1"/>
        <pt x="350" y="782" on="1"/>
        <pt x="321" y="818" on="1"/>
        <pt x="401" y="894" on="1"/>
        <pt x="440" y="927" on="0"/>
        <pt x="457" y="927" on="0"/>
      </contour>
    </TTGlyph>
    <TTGlyph name="Ocircumflex" xMin="102" yMin="-7" xMax="509" yMax="927">
      <contour>
        <pt x="407" y="102" on="0"/>
        <pt x="305" y="-7" on="0"/>
        <pt x="165" y="-7" on="0"/>
        <pt x="102" y="78" on="0"/>
        <pt x="102" y="262" on="0"/>
        <pt x="130" y="451" on="0"/>
        <pt x="187" y="624" on="0"/>
        <pt x="290" y="732" on="0"/>
        <pt x="430" y="732" on="0"/>
        <pt x="493" y="651" on="0"/>
        <pt x="493" y="468" on="0"/>
        <pt x="464" y="277" on="0"/>
      </contour>
      <contour>
        <pt x="170" y="115" on="0"/>
        <pt x="206" y="50" on="0"/>
        <pt x="291" y="50" on="0"/>
        <pt x="361" y="157" on="0"/>
        <pt x="402" y="317" on="0"/>
        <pt x="424" y="479" on="0"/>
        <pt x="424" y="611" on="0"/>
        <pt x="388" y="675" on="0"/>
        <pt x="305" y="675" on="0"/>
        <pt x="234" y="568" on="0"/>
        <pt x="213" y="488" on="1"/>
        <pt x="170" y="324" on="0"/>
        <pt x="170" y="181" on="1"/>
      </contour>
      <contour>
        <pt x="500" y="812" on="1"/>
        <pt x="393" y="878" on="1"/>
        <pt x="265" y="812" on="1"/>
        <pt x="274" y="867" on="1"/>
        <pt x="387" y="927" on="1"/>
        <pt x="413" y="927" on="1"/>
        <pt x="509" y="866" on="1"/>
      </contour>
    </TTGlyph>
    <TTGlyph name="Odieresis" xMin="102" yMin="-7" xMax="496" yMax="915">
      <contour>
        <pt x="407" y="102" on="0"/>
        <pt x="305" y="-7" on="0"/>
        <pt x="165" y="-7" on="0"/>
        <pt x="102" y="78" on="0"/>
        <pt x="102" y="262" on="0"/>
        <pt x="130" y="451" on="0"/>
        <pt x="187" y="624" on="0"/>
        <pt x="290" y="732" on="0"/>
        <pt x="430" y="732" on="0"/>
        <pt x="493" y="651" on="0"/>
        <pt x="493" y="468" on="0"/>
        <pt x="464" y="277" on="0"/>
      </contour>
      <contour>
        <pt x="170" y="115" on="0"/>
        <pt x="206" y="50" on="0"/>
        <pt x="291" y="50" on="0"/>
        <pt x="361" y="157" on="0"/>
        <pt x="402" y="317" on="0"/>
        <pt x="424" y="479" on="0"/>
        <pt x="424" y="611" on="0"/>
        <pt x="388" y="675" on="0"/>
        <pt x="305" y="675" on="0"/>
        <pt x="234" y="568" on="0"/>
        <pt x="213" y="488" on="1"/>
        <pt x="170" y="324" on="0"/>
        <pt x="170" y="181" on="1"/>
      </contour>
      <contour>
        <pt x="296" y="915" on="0"/>
        <pt x="332" y="915" on="0"/>
        <pt x="353" y="894" on="0"/>
        <pt x="353" y="856" on="0"/>
        <pt x="320" y="824" on="0"/>
        <pt x="283" y="824" on="0"/>
        <pt x="260" y="846" on="0"/>
        <pt x="260" y="857" on="1"/>
        <pt x="260" y="886" on="0"/>
      </contour>
      <contour>
        <pt x="439" y="915" on="0"/>
        <pt x="474" y="915" on="0"/>
        <pt x="496" y="894" on="0"/>
        <pt x="496" y="856" on="0"/>
        <pt x="463" y="824" on="0"/>
        <pt x="426" y="824" on="0"/>
        <pt x="403" y="846" on="0"/>
        <pt x="403" y="857" on="1"/>
        <pt x="403" y="886" on="0"/>
      </contour>
    </TTGlyph>
    <TTGlyph name="Ograve" xMin="102" yMin="-7" xMax="493" yMax="927">
      <contour>
        <pt x="407" y="102" on="0"/>
        <pt x="305" y="-7" on="0"/>
        <pt x="165" y="-7" on="0"/>
        <pt x="102" y="78" on="0"/>
        <pt x="102" y="262" on="0"/>
        <pt x="130" y="451" on="0"/>
        <pt x="187" y="624" on="0"/>
        <pt x="290" y="732" on="0"/>
        <pt x="430" y="732" on="0"/>
        <pt x="493" y="651" on="0"/>
        <pt x="493" y="468" on="0"/>
        <pt x="464" y="277" on="0"/>
      </contour>
      <contour>
        <pt x="170" y="115" on="0"/>
        <pt x="206" y="50" on="0"/>
        <pt x="291" y="50" on="0"/>
        <pt x="361" y="157" on="0"/>
        <pt x="402" y="317" on="0"/>
        <pt x="424" y="479" on="0"/>
        <pt x="424" y="611" on="0"/>
        <pt x="388" y="675" on="0"/>
        <pt x="305" y="675" on="0"/>
        <pt x="234" y="568" on="0"/>
        <pt x="213" y="488" on="1"/>
        <pt x="170" y="324" on="0"/>
        <pt x="170" y="181" on="1"/>
      </contour>
      <contour>
        <pt x="295" y="903" on="1"/>
        <pt x="322" y="927" on="0"/>
        <pt x="341" y="927" on="0"/>
        <pt x="368" y="894" on="1"/>
        <pt x="424" y="818" on="1"/>
        <pt x="383" y="782" on="1"/>
        <pt x="287" y="896" on="1"/>
      </contour>
    </TTGlyph>
    <TTGlyph name="Oslash" xMin="65" yMin="-50" xMax="522" yMax="802">
      <contour>
        <pt x="126" y="59" on="1"/>
        <pt x="108" y="98" on="0"/>
        <pt x="108" y="244" on="0"/>
        <pt x="128" y="366" on="1"/>
        <pt x="160" y="567" on="0"/>
        <pt x="258" y="732" on="0"/>
        <pt x="362" y="732" on="1"/>
        <pt x="389" y="732" on="0"/>
        <pt x="410" y="726" on="1"/>
        <pt x="454" y="802" on="1"/>
        <pt x="522" y="802" on="1"/>
        <pt x="463" y="697" on="1"/>
        <pt x="499" y="657" on="0"/>
        <pt x="499" y="562" on="1"/>
        <pt x="499" y="498" on="0"/>
        <pt x="479" y="366" on="1"/>
        <pt x="447" y="164" on="0"/>
        <pt x="349" y="-7" on="0"/>
        <pt x="245" y="-7" on="1"/>
        <pt x="197" y="-7" on="0"/>
        <pt x="167" y="11" on="1"/>
        <pt x="133" y="-50" on="1"/>
        <pt x="65" y="-50" on="1"/>
      </contour>
      <contour>
        <pt x="254" y="50" on="1"/>
        <pt x="318" y="50" on="0"/>
        <pt x="391" y="205" on="0"/>
        <pt x="433" y="470" on="0"/>
        <pt x="433" y="538" on="1"/>
        <pt x="433" y="675" on="0"/>
        <pt x="353" y="675" on="1"/>
        <pt x="290" y="675" on="0"/>
        <pt x="216" y="524" on="0"/>
        <pt x="173" y="251" on="0"/>
        <pt x="173" y="188" on="1"/>
        <pt x="173" y="50" on="0"/>
      </contour>
    </TTGlyph>
    <TTGlyph name="Otilde" xMin="102" yMin="-7" xMax="504" yMax="903">
      <component glyphName="O" x="0" y="0" flags="0x1004"/>
      <component glyphName="tilde" x="88" y="183" flags="0x1004"/>
    </TTGlyph>
    <TTGlyph name="P" xMin="75" yMin="0" xMax="488" yMax="732">
      <contour>
        <pt x="80" y="0" on="1"/>
        <pt x="75" y="0" on="1"/>
        <pt x="189" y="722" on="1"/>
        <pt x="324" y="732" on="1"/>
        <pt x="419" y="732" on="0"/>
        <pt x="488" y="680" on="0"/>
        <pt x="488" y="572" on="0"/>
        <pt x="482" y="501" on="0"/>
        <pt x="456" y="420" on="0"/>
        <pt x="409" y="374" on="0"/>
        <pt x="324" y="342" on="0"/>
        <pt x="263" y="342" on="1"/>
        <pt x="188" y="342" on="1"/>
        <pt x="188" y="317" on="1"/>
        <pt x="145" y="46" on="1"/>
        <pt x="140" y="12" on="0"/>
        <pt x="122" y="0" on="0"/>
      </contour>
      <contour>
        <pt x="272" y="399" on="1"/>
        <pt x="370" y="399" on="0"/>
        <pt x="398" y="460" on="1"/>
        <pt x="413" y="492" on="0"/>
        <pt x="422" y="557" on="0"/>
        <pt x="422" y="645" on="0"/>
        <pt x="377" y="675" on="0"/>
        <pt x="315" y="675" on="1"/>
        <pt x="240" y="675" on="1"/>
        <pt x="240" y="650" on="1"/>
        <pt x="205" y="424" on="1"/>
        <pt x="197" y="399" on="1"/>
      </contour>
    </TTGlyph>
    <TTGlyph name="Q" xMin="75" yMin="-171" xMax="544" yMax="732">
      <contour>
        <pt x="100" y="-124" on="1"/>
        <pt x="88" y="-125" on="1"/>
        <pt x="75" y="-123" on="1"/>
        <pt x="78" y="-106" on="1"/>
        <pt x="81" y="-85" on="0"/>
        <pt x="87" y="-81" on="1"/>
        <pt x="200" y="-3" on="1"/>
        <pt x="148" y="7" on="0"/>
        <pt x="102" y="91" on="0"/>
        <pt x="102" y="264" on="0"/>
        <pt x="131" y="453" on="0"/>
        <pt x="189" y="624" on="0"/>
        <pt x="291" y="732" on="0"/>
        <pt x="429" y="732" on="0"/>
        <pt x="492" y="648" on="0"/>
        <pt x="492" y="494" on="0"/>
        <pt x="467" y="313" on="0"/>
        <pt x="423" y="129" on="0"/>
        <pt x="346" y="2" on="0"/>
        <pt x="301" y="2" on="1"/>
        <pt x="173" y="-77" on="1"/>
        <pt x="200" y="-79" on="0"/>
        <pt x="477" y="-115" on="0"/>
        <pt x="527" y="-115" on="0"/>
        <pt x="532" y="-114" on="1"/>
        <pt x="544" y="-116" on="1"/>
        <pt x="541" y="-135" on="1"/>
        <pt x="537" y="-162" on="0"/>
        <pt x="521" y="-171" on="0"/>
        <pt x="447" y="-171" on="0"/>
        <pt x="135" y="-124" on="0"/>
      </contour>
      <contour>
        <pt x="248" y="50" on="1"/>
        <pt x="291" y="50" on="0"/>
        <pt x="364" y="156" on="0"/>
        <pt x="384" y="235" on="1"/>
        <pt x="428" y="403" on="0"/>
        <pt x="428" y="542" on="1"/>
        <pt x="428" y="609" on="0"/>
        <pt x="390" y="675" on="0"/>
        <pt x="303" y="675" on="0"/>
        <pt x="231" y="570" on="0"/>
        <pt x="210" y="492" on="1"/>
        <pt x="167" y="332" on="0"/>
        <pt x="167" y="50" on="0"/>
      </contour>
    </TTGlyph>
    <TTGlyph name="R" xMin="75" yMin="0" xMax="449" yMax="732">
      <contour>
        <pt x="412" y="0" on="1"/>
        <pt x="361" y="0" on="0"/>
        <pt x="339" y="11" on="0"/>
        <pt x="329" y="46" on="1"/>
        <pt x="241" y="342" on="1"/>
        <pt x="188" y="342" on="1"/>
        <pt x="188" y="317" on="1"/>
        <pt x="145" y="46" on="1"/>
        <pt x="146" y="46" on="1"/>
        <pt x="141" y="12" on="0"/>
        <pt x="124" y="0" on="0"/>
        <pt x="81" y="0" on="1"/>
        <pt x="75" y="0" on="1"/>
        <pt x="189" y="722" on="1"/>
        <pt x="304" y="732" on="1"/>
        <pt x="387" y="732" on="0"/>
        <pt x="449" y="682" on="0"/>
        <pt x="449" y="584" on="0"/>
        <pt x="442" y="538" on="1"/>
        <pt x="412" y="343" on="0"/>
        <pt x="309" y="343" on="1"/>
        <pt x="307" y="343" on="0"/>
        <pt x="304" y="343" on="1"/>
        <pt x="416" y="0" on="1"/>
      </contour>
      <contour>
        <pt x="252" y="399" on="1"/>
        <pt x="335" y="399" on="0"/>
        <pt x="360" y="466" on="1"/>
        <pt x="382" y="523" on="0"/>
        <pt x="382" y="613" on="1"/>
        <pt x="382" y="647" on="0"/>
        <pt x="345" y="675" on="0"/>
        <pt x="295" y="675" on="1"/>
        <pt x="244" y="675" on="1"/>
        <pt x="205" y="424" on="1"/>
        <pt x="197" y="399" on="1"/>
      </contour>
    </TTGlyph>
    <TTGlyph name="S" xMin="39" yMin="-7" xMax="419" yMax="733">
      <contour>
        <pt x="382" y="670" on="1"/>
        <pt x="369" y="671" on="1"/>
        <pt x="314" y="677" on="1"/>
        <pt x="244" y="677" on="0"/>
        <pt x="192" y="616" on="0"/>
        <pt x="192" y="559" on="1"/>
        <pt x="192" y="524" on="0"/>
        <pt x="254" y="445" on="0"/>
        <pt x="328" y="383" on="0"/>
        <pt x="390" y="296" on="0"/>
        <pt x="390" y="253" on="1"/>
        <pt x="390" y="-6" on="0"/>
        <pt x="180" y="-7" on="1"/>
        <pt x="39" y="13" on="1"/>
        <pt x="47" y="69" on="1"/>
        <pt x="192" y="59" on="1"/>
        <pt x="274" y="59" on="0"/>
        <pt x="301" y="114" on="1"/>
        <pt x="324" y="160" on="0"/>
        <pt x="324" y="231" on="1"/>
        <pt x="324" y="262" on="0"/>
        <pt x="262" y="341" on="0"/>
        <pt x="188" y="408" on="0"/>
        <pt x="126" y="502" on="0"/>
        <pt x="126" y="546" on="1"/>
        <pt x="126" y="641" on="0"/>
        <pt x="203" y="732" on="0"/>
        <pt x="311" y="732" on="1"/>
        <pt x="314" y="732" on="0"/>
        <pt x="316" y="732" on="1"/>
        <pt x="419" y="712" on="1"/>
        <pt x="415" y="687" on="0"/>
        <pt x="398" y="670" on="0"/>
      </contour>
    </TTGlyph>
    <TTGlyph name="Scaron" xMin="39" yMin="-7" xMax="463" yMax="927">
      <contour>
        <pt x="369" y="671" on="1"/>
        <pt x="314" y="677" on="1"/>
        <pt x="244" y="677" on="0"/>
        <pt x="192" y="616" on="0"/>
        <pt x="192" y="559" on="1"/>
        <pt x="192" y="524" on="0"/>
        <pt x="254" y="445" on="0"/>
        <pt x="328" y="383" on="0"/>
        <pt x="390" y="296" on="0"/>
        <pt x="390" y="253" on="1"/>
        <pt x="390" y="-6" on="0"/>
        <pt x="180" y="-7" on="1"/>
        <pt x="39" y="13" on="1"/>
        <pt x="47" y="69" on="1"/>
        <pt x="192" y="59" on="1"/>
        <pt x="274" y="59" on="0"/>
        <pt x="301" y="114" on="1"/>
        <pt x="314" y="140" on="0"/>
        <pt x="324" y="195" on="0"/>
        <pt x="324" y="262" on="0"/>
        <pt x="262" y="341" on="0"/>
        <pt x="188" y="408" on="0"/>
        <pt x="126" y="502" on="0"/>
        <pt x="126" y="546" on="1"/>
        <pt x="126" y="641" on="0"/>
        <pt x="203" y="732" on="0"/>
        <pt x="311" y="732" on="1"/>
        <pt x="314" y="732" on="0"/>
        <pt x="316" y="732" on="1"/>
        <pt x="419" y="712" on="1"/>
        <pt x="415" y="687" on="0"/>
        <pt x="398" y="670" on="0"/>
        <pt x="382" y="670" on="1"/>
      </contour>
      <contour>
        <pt x="455" y="873" on="1"/>
        <pt x="342" y="822" on="1"/>
        <pt x="316" y="822" on="1"/>
        <pt x="220" y="872" on="1"/>
        <pt x="228" y="927" on="1"/>
        <pt x="337" y="871" on="1"/>
        <pt x="463" y="927" on="1"/>
      </contour>
    </TTGlyph>
    <TTGlyph name="T" xMin="130" yMin="0" xMax="422" yMax="720">
      <contour>
        <pt x="141" y="0" on="1"/>
        <pt x="133" y="0" on="1"/>
        <pt x="234" y="642" on="1"/>
        <pt x="242" y="667" on="1"/>
        <pt x="130" y="667" on="1"/>
        <pt x="139" y="720" on="1"/>
        <pt x="422" y="720" on="1"/>
        <pt x="413" y="667" on="1"/>
        <pt x="300" y="667" on="1"/>
        <pt x="300" y="642" on="1"/>
        <pt x="206" y="46" on="1"/>
        <pt x="201" y="12" on="0"/>
        <pt x="184" y="0" on="0"/>
      </contour>
    </TTGlyph>
    <TTGlyph name="Thorn" xMin="32" yMin="-200" xMax="425" yMax="736">
      <contour>
        <pt x="34" y="-192" on="1"/>
        <pt x="32" y="-188" on="0"/>
        <pt x="32" y="-172" on="0"/>
        <pt x="35" y="-154" on="1"/>
        <pt x="169" y="690" on="1"/>
        <pt x="174" y="724" on="0"/>
        <pt x="190" y="736" on="0"/>
        <pt x="234" y="736" on="1"/>
        <pt x="209" y="577" on="1"/>
        <pt x="313" y="604" on="1"/>
        <pt x="375" y="604" on="0"/>
        <pt x="425" y="549" on="0"/>
        <pt x="425" y="445" on="0"/>
        <pt x="397" y="269" on="0"/>
        <pt x="389" y="220" on="0"/>
        <pt x="373" y="145" on="0"/>
        <pt x="360" y="107" on="0"/>
        <pt x="338" y="55" on="0"/>
        <pt x="314" y="30" on="0"/>
        <pt x="297" y="16" on="1"/>
        <pt x="267" y="-7" on="0"/>
        <pt x="212" y="-7" on="1"/>
        <pt x="124" y="39" on="1"/>
        <pt x="86" y="-200" on="1"/>
        <pt x="38" y="-200" on="0"/>
      </contour>
      <contour>
        <pt x="364" y="425" on="0"/>
        <pt x="364" y="509" on="0"/>
        <pt x="335" y="551" on="0"/>
        <pt x="300" y="551" on="1"/>
        <pt x="198" y="526" on="1"/>
        <pt x="198" y="501" on="1"/>
        <pt x="137" y="116" on="1"/>
        <pt x="128" y="91" on="1"/>
        <pt x="219" y="46" on="1"/>
        <pt x="278" y="46" on="0"/>
        <pt x="307" y="129" on="1"/>
        <pt x="323" y="176" on="0"/>
      </contour>
    </TTGlyph>
    <TTGlyph name="U" xMin="101" yMin="-7" xMax="507" yMax="720">
      <contour>
        <pt x="454" y="720" on="1"/>
        <pt x="501" y="720" on="0"/>
        <pt x="505" y="712" on="1"/>
        <pt x="507" y="708" on="0"/>
        <pt x="507" y="692" on="0"/>
        <pt x="504" y="674" on="1"/>
        <pt x="433" y="217" on="0"/>
        <pt x="349" y="-7" on="0"/>
        <pt x="233" y="-7" on="1"/>
        <pt x="159" y="-7" on="0"/>
        <pt x="101" y="51" on="0"/>
        <pt x="101" y="114" on="1"/>
        <pt x="101" y="148" on="0"/>
        <pt x="127" y="323" on="0"/>
        <pt x="190" y="720" on="1"/>
        <pt x="197" y="720" on="1"/>
        <pt x="244" y="720" on="0"/>
        <pt x="248" y="712" on="1"/>
        <pt x="250" y="708" on="0"/>
        <pt x="250" y="692" on="0"/>
        <pt x="166" y="160" on="0"/>
        <pt x="167" y="88" on="0"/>
        <pt x="200" y="50" on="0"/>
        <pt x="291" y="50" on="0"/>
        <pt x="315" y="87" on="1"/>
        <pt x="350" y="141" on="0"/>
        <pt x="390" y="368" on="1"/>
        <pt x="407" y="466" on="0"/>
        <pt x="447" y="720" on="1"/>
      </contour>
    </TTGlyph>
    <TTGlyph name="Uacute" xMin="101" yMin="-7" xMax="507" yMax="927">
      <contour>
        <pt x="454" y="720" on="1"/>
        <pt x="501" y="720" on="0"/>
        <pt x="505" y="712" on="1"/>
        <pt x="507" y="708" on="0"/>
        <pt x="507" y="692" on="0"/>
        <pt x="504" y="674" on="1"/>
        <pt x="433" y="217" on="0"/>
        <pt x="349" y="-7" on="0"/>
        <pt x="233" y="-7" on="1"/>
        <pt x="159" y="-7" on="0"/>
        <pt x="101" y="51" on="0"/>
        <pt x="101" y="114" on="1"/>
        <pt x="101" y="148" on="0"/>
        <pt x="127" y="323" on="0"/>
        <pt x="190" y="720" on="1"/>
        <pt x="197" y="720" on="1"/>
        <pt x="244" y="720" on="0"/>
        <pt x="248" y="712" on="1"/>
        <pt x="250" y="708" on="0"/>
        <pt x="250" y="692" on="0"/>
        <pt x="166" y="160" on="0"/>
        <pt x="167" y="88" on="0"/>
        <pt x="200" y="50" on="0"/>
        <pt x="291" y="50" on="0"/>
        <pt x="315" y="87" on="1"/>
        <pt x="350" y="141" on="0"/>
        <pt x="390" y="368" on="1"/>
        <pt x="407" y="466" on="0"/>
        <pt x="447" y="720" on="1"/>
      </contour>
      <contour>
        <pt x="487" y="896" on="1"/>
        <pt x="353" y="782" on="1"/>
        <pt x="324" y="818" on="1"/>
        <pt x="404" y="894" on="1"/>
        <pt x="443" y="927" on="0"/>
        <pt x="460" y="927" on="0"/>
      </contour>
    </TTGlyph>
    <TTGlyph name="Ucircumflex" xMin="101" yMin="-7" xMax="507" yMax="927">
      <component glyphName="U" x="0" y="0" flags="0x1004"/>
      <component glyphName="circumflex" x="95" y="195" flags="0x1004"/>
    </TTGlyph>
    <TTGlyph name="Udieresis" xMin="101" yMin="-7" xMax="507" yMax="915">
      <contour>
        <pt x="454" y="720" on="1"/>
        <pt x="501" y="720" on="0"/>
        <pt x="505" y="712" on="1"/>
        <pt x="507" y="708" on="0"/>
        <pt x="507" y="692" on="0"/>
        <pt x="504" y="674" on="1"/>
        <pt x="433" y="217" on="0"/>
        <pt x="349" y="-7" on="0"/>
        <pt x="233" y="-7" on="1"/>
        <pt x="159" y="-7" on="0"/>
        <pt x="101" y="51" on="0"/>
        <pt x="101" y="114" on="1"/>
        <pt x="101" y="148" on="0"/>
        <pt x="127" y="323" on="0"/>
        <pt x="190" y="720" on="1"/>
        <pt x="197" y="720" on="1"/>
        <pt x="244" y="720" on="0"/>
        <pt x="248" y="712" on="1"/>
        <pt x="250" y="708" on="0"/>
        <pt x="250" y="692" on="0"/>
        <pt x="166" y="160" on="0"/>
        <pt x="167" y="88" on="0"/>
        <pt x="200" y="50" on="0"/>
        <pt x="291" y="50" on="0"/>
        <pt x="315" y="87" on="1"/>
        <pt x="350" y="141" on="0"/>
        <pt x="390" y="368" on="1"/>
        <pt x="407" y="466" on="0"/>
        <pt x="447" y="720" on="1"/>
      </contour>
      <contour>
        <pt x="295" y="915" on="0"/>
        <pt x="330" y="915" on="0"/>
        <pt x="352" y="894" on="0"/>
        <pt x="352" y="856" on="0"/>
        <pt x="319" y="824" on="0"/>
        <pt x="282" y="824" on="0"/>
        <pt x="259" y="846" on="0"/>
        <pt x="259" y="857" on="1"/>
        <pt x="259" y="886" on="0"/>
      </contour>
      <contour>
        <pt x="438" y="915" on="0"/>
        <pt x="474" y="915" on="0"/>
        <pt x="495" y="894" on="0"/>
        <pt x="495" y="856" on="0"/>
        <pt x="462" y="824" on="0"/>
        <pt x="425" y="824" on="0"/>
        <pt x="402" y="846" on="0"/>
        <pt x="402" y="857" on="1"/>
        <pt x="402" y="886" on="0"/>
      </contour>
    </TTGlyph>
    <TTGlyph name="Ugrave" xMin="101" yMin="-7" xMax="507" yMax="927">
      <contour>
        <pt x="454" y="720" on="1"/>
        <pt x="501" y="720" on="0"/>
        <pt x="505" y="712" on="1"/>
        <pt x="507" y="708" on="0"/>
        <pt x="507" y="692" on="0"/>
        <pt x="504" y="674" on="1"/>
        <pt x="433" y="217" on="0"/>
        <pt x="349" y="-7" on="0"/>
        <pt x="233" y="-7" on="1"/>
        <pt x="159" y="-7" on="0"/>
        <pt x="101" y="51" on="0"/>
        <pt x="101" y="114" on="1"/>
        <pt x="101" y="148" on="0"/>
        <pt x="127" y="323" on="0"/>
        <pt x="190" y="720" on="1"/>
        <pt x="197" y="720" on="1"/>
        <pt x="244" y="720" on="0"/>
        <pt x="248" y="712" on="1"/>
        <pt x="250" y="708" on="0"/>
        <pt x="250" y="692" on="0"/>
        <pt x="166" y="160" on="0"/>
        <pt x="167" y="88" on="0"/>
        <pt x="200" y="50" on="0"/>
        <pt x="291" y="50" on="0"/>
        <pt x="315" y="87" on="1"/>
        <pt x="350" y="141" on="0"/>
        <pt x="390" y="368" on="1"/>
        <pt x="407" y="466" on="0"/>
        <pt x="447" y="720" on="1"/>
      </contour>
      <contour>
        <pt x="298" y="903" on="1"/>
        <pt x="325" y="927" on="0"/>
        <pt x="344" y="927" on="0"/>
        <pt x="371" y="894" on="1"/>
        <pt x="427" y="818" on="1"/>
        <pt x="386" y="782" on="1"/>
        <pt x="290" y="896" on="1"/>
      </contour>
    </TTGlyph>
    <TTGlyph name="V" xMin="92" yMin="0" xMax="446" yMax="720">
      <contour>
        <pt x="407" y="720" on="1"/>
        <pt x="432" y="720" on="0"/>
        <pt x="445" y="717" on="0"/>
        <pt x="445" y="709" on="1"/>
        <pt x="445" y="705" on="1"/>
        <pt x="445" y="704" on="1"/>
        <pt x="445" y="704" on="0"/>
        <pt x="386" y="547" on="0"/>
        <pt x="214" y="80" on="1"/>
        <pt x="192" y="20" on="0"/>
        <pt x="174" y="0" on="0"/>
        <pt x="144" y="0" on="1"/>
        <pt x="127" y="0" on="0"/>
        <pt x="116" y="12" on="1"/>
        <pt x="94" y="36" on="0"/>
        <pt x="92" y="80" on="1"/>
        <pt x="92" y="720" on="1"/>
        <pt x="102" y="720" on="1"/>
        <pt x="142" y="720" on="0"/>
        <pt x="156" y="708" on="0"/>
        <pt x="156" y="674" on="1"/>
        <pt x="156" y="127" on="1"/>
        <pt x="169" y="127" on="1"/>
        <pt x="392" y="720" on="1"/>
      </contour>
    </TTGlyph>
    <TTGlyph name="W" xMin="80" yMin="0" xMax="662" yMax="720">
      <contour>
        <pt x="633" y="720" on="1"/>
        <pt x="662" y="720" on="0"/>
        <pt x="662" y="703" on="1"/>
        <pt x="662" y="684" on="0"/>
        <pt x="449" y="80" on="1"/>
        <pt x="428" y="20" on="0"/>
        <pt x="411" y="0" on="0"/>
        <pt x="381" y="0" on="1"/>
        <pt x="364" y="0" on="0"/>
        <pt x="353" y="12" on="1"/>
        <pt x="331" y="36" on="0"/>
        <pt x="329" y="80" on="1"/>
        <pt x="329" y="409" on="1"/>
        <pt x="316" y="409" on="1"/>
        <pt x="199" y="80" on="1"/>
        <pt x="177" y="19" on="0"/>
        <pt x="161" y="0" on="0"/>
        <pt x="131" y="0" on="1"/>
        <pt x="114" y="0" on="0"/>
        <pt x="103" y="12" on="1"/>
        <pt x="80" y="37" on="0"/>
        <pt x="80" y="80" on="1"/>
        <pt x="80" y="720" on="1"/>
        <pt x="92" y="720" on="1"/>
        <pt x="128" y="720" on="0"/>
        <pt x="139" y="709" on="0"/>
        <pt x="140" y="674" on="1"/>
        <pt x="145" y="128" on="1"/>
        <pt x="162" y="128" on="1"/>
        <pt x="284" y="466" on="1"/>
        <pt x="309" y="520" on="1"/>
        <pt x="366" y="520" on="1"/>
        <pt x="388" y="465" on="1"/>
        <pt x="388" y="128" on="1"/>
        <pt x="404" y="128" on="1"/>
        <pt x="600" y="720" on="1"/>
      </contour>
    </TTGlyph>
    <TTGlyph name="X" xMin="25" yMin="0" xMax="469" yMax="720">
      <contour>
        <pt x="334" y="0" on="1"/>
        <pt x="300" y="0" on="0"/>
        <pt x="287" y="11" on="0"/>
        <pt x="281" y="46" on="1"/>
        <pt x="247" y="283" on="1"/>
        <pt x="228" y="283" on="1"/>
        <pt x="115" y="46" on="1"/>
        <pt x="98" y="12" on="0"/>
        <pt x="80" y="0" on="0"/>
        <pt x="48" y="0" on="1"/>
        <pt x="25" y="0" on="1"/>
        <pt x="213" y="356" on="1"/>
        <pt x="149" y="720" on="1"/>
        <pt x="172" y="720" on="1"/>
        <pt x="204" y="720" on="0"/>
        <pt x="218" y="708" on="0"/>
        <pt x="224" y="674" on="1"/>
        <pt x="259" y="421" on="1"/>
        <pt x="278" y="421" on="1"/>
        <pt x="414" y="720" on="1"/>
        <pt x="441" y="720" on="1"/>
        <pt x="469" y="720" on="0"/>
        <pt x="469" y="708" on="1"/>
        <pt x="469" y="688" on="0"/>
        <pt x="289" y="356" on="1"/>
        <pt x="355" y="0" on="1"/>
      </contour>
    </TTGlyph>
    <TTGlyph name="Y" xMin="139" yMin="0" xMax="462" yMax="720">
      <contour>
        <pt x="216" y="0" on="1"/>
        <pt x="168" y="0" on="0"/>
        <pt x="164" y="8" on="1"/>
        <pt x="162" y="12" on="0"/>
        <pt x="162" y="28" on="0"/>
        <pt x="212" y="347" on="1"/>
        <pt x="139" y="720" on="1"/>
        <pt x="154" y="720" on="1"/>
        <pt x="192" y="720" on="0"/>
        <pt x="207" y="709" on="0"/>
        <pt x="213" y="674" on="1"/>
        <pt x="256" y="432" on="1"/>
        <pt x="261" y="432" on="1"/>
        <pt x="408" y="720" on="1"/>
        <pt x="435" y="720" on="1"/>
        <pt x="462" y="720" on="0"/>
        <pt x="462" y="709" on="1"/>
        <pt x="462" y="689" on="0"/>
        <pt x="275" y="347" on="1"/>
        <pt x="221" y="0" on="1"/>
      </contour>
    </TTGlyph>
    <TTGlyph name="Yacute" xMin="139" yMin="0" xMax="470" yMax="927">
      <component glyphName="Y" x="0" y="0" flags="0x1004"/>
      <component glyphName="acute" x="196" y="195" flags="0x1004"/>
    </TTGlyph>
    <TTGlyph name="Ydieresis" xMin="139" yMin="0" xMax="462" yMax="903">
      <component glyphName="Y" x="0" y="0" flags="0x1004"/>
      <component glyphName="dieresis" x="62" y="183" flags="0x1004"/>
    </TTGlyph>
    <TTGlyph name="Z" xMin="37" yMin="0" xMax="447" yMax="720">
      <contour>
        <pt x="207" y="720" on="1"/>
        <pt x="447" y="720" on="1"/>
        <pt x="438" y="667" on="1"/>
        <pt x="112" y="57" on="1"/>
        <pt x="270" y="57" on="1"/>
        <pt x="304" y="57" on="0"/>
        <pt x="324" y="50" on="0"/>
        <pt x="324" y="28" on="0"/>
        <pt x="320" y="0" on="1"/>
        <pt x="37" y="0" on="1"/>
        <pt x="46" y="57" on="1"/>
        <pt x="369" y="667" on="1"/>
        <pt x="152" y="667" on="1"/>
        <pt x="159" y="707" on="0"/>
        <pt x="172" y="720" on="0"/>
      </contour>
    </TTGlyph>
    <TTGlyph name="Zcaron" xMin="37" yMin="0" xMax="460" yMax="927">
      <component glyphName="Z" x="0" y="0" flags="0x1004"/>
      <component glyphName="caron" x="54" y="195" flags="0x1004"/>
    </TTGlyph>
    <TTGlyph name="a" xMin="64" yMin="-7" xMax="396" yMax="550">
      <contour>
        <pt x="100" y="-7" on="0"/>
        <pt x="64" y="37" on="0"/>
        <pt x="64" y="150" on="0"/>
        <pt x="80" y="290" on="0"/>
        <pt x="115" y="446" on="0"/>
        <pt x="186" y="550" on="0"/>
        <pt x="233" y="550" on="1"/>
        <pt x="248" y="550" on="0"/>
        <pt x="286" y="537" on="0"/>
        <pt x="338" y="521" on="0"/>
        <pt x="362" y="513" on="0"/>
        <pt x="374" y="508" on="1"/>
        <pt x="396" y="498" on="0"/>
        <pt x="396" y="485" on="1"/>
        <pt x="396" y="481" on="0"/>
        <pt x="321" y="0" on="1"/>
        <pt x="286" y="0" on="0"/>
        <pt x="264" y="7" on="0"/>
        <pt x="266" y="21" on="1"/>
        <pt x="275" y="87" on="1"/>
        <pt x="159" y="-7" on="1"/>
      </contour>
      <contour>
        <pt x="239" y="493" on="1"/>
        <pt x="201" y="493" on="0"/>
        <pt x="145" y="325" on="0"/>
        <pt x="125" y="160" on="0"/>
        <pt x="125" y="75" on="0"/>
        <pt x="139" y="52" on="0"/>
        <pt x="169" y="52" on="1"/>
        <pt x="287" y="138" on="1"/>
        <pt x="287" y="163" on="1"/>
        <pt x="332" y="440" on="1"/>
        <pt x="340" y="465" on="1"/>
        <pt x="254" y="493" on="0"/>
      </contour>
    </TTGlyph>
    <TTGlyph name="aacute" xMin="29" yMin="-7" xMax="401" yMax="738">
      <contour>
        <pt x="65" y="-7" on="0"/>
        <pt x="29" y="37" on="0"/>
        <pt x="29" y="150" on="0"/>
        <pt x="45" y="290" on="0"/>
        <pt x="80" y="446" on="0"/>
        <pt x="151" y="550" on="0"/>
        <pt x="198" y="550" on="1"/>
        <pt x="214" y="550" on="0"/>
        <pt x="251" y="537" on="0"/>
        <pt x="303" y="521" on="0"/>
        <pt x="327" y="513" on="0"/>
        <pt x="340" y="508" on="1"/>
        <pt x="361" y="498" on="0"/>
        <pt x="361" y="485" on="1"/>
        <pt x="361" y="481" on="0"/>
        <pt x="286" y="0" on="1"/>
        <pt x="251" y="0" on="0"/>
        <pt x="229" y="7" on="0"/>
        <pt x="231" y="21" on="1"/>
        <pt x="240" y="87" on="1"/>
        <pt x="124" y="-7" on="1"/>
      </contour>
      <contour>
        <pt x="204" y="493" on="1"/>
        <pt x="166" y="493" on="0"/>
        <pt x="110" y="325" on="0"/>
        <pt x="90" y="160" on="0"/>
        <pt x="90" y="75" on="0"/>
        <pt x="104" y="52" on="0"/>
        <pt x="134" y="52" on="1"/>
        <pt x="252" y="138" on="1"/>
        <pt x="252" y="163" on="1"/>
        <pt x="297" y="440" on="1"/>
        <pt x="305" y="465" on="1"/>
        <pt x="219" y="493" on="0"/>
      </contour>
      <contour>
        <pt x="401" y="707" on="1"/>
        <pt x="267" y="593" on="1"/>
        <pt x="238" y="629" on="1"/>
        <pt x="318" y="705" on="1"/>
        <pt x="357" y="738" on="0"/>
        <pt x="374" y="738" on="0"/>
      </contour>
    </TTGlyph>
    <TTGlyph name="acircumflex" xMin="29" yMin="-7" xMax="393" yMax="742">
      <contour>
        <pt x="65" y="-7" on="0"/>
        <pt x="29" y="37" on="0"/>
        <pt x="29" y="150" on="0"/>
        <pt x="45" y="290" on="0"/>
        <pt x="80" y="446" on="0"/>
        <pt x="151" y="550" on="0"/>
        <pt x="198" y="550" on="1"/>
        <pt x="214" y="550" on="0"/>
        <pt x="251" y="537" on="0"/>
        <pt x="303" y="521" on="0"/>
        <pt x="327" y="513" on="0"/>
        <pt x="340" y="508" on="1"/>
        <pt x="361" y="498" on="0"/>
        <pt x="361" y="485" on="1"/>
        <pt x="361" y="481" on="0"/>
        <pt x="286" y="0" on="1"/>
        <pt x="251" y="0" on="0"/>
        <pt x="229" y="7" on="0"/>
        <pt x="231" y="21" on="1"/>
        <pt x="240" y="87" on="1"/>
        <pt x="124" y="-7" on="1"/>
      </contour>
      <contour>
        <pt x="204" y="493" on="1"/>
        <pt x="166" y="493" on="0"/>
        <pt x="110" y="325" on="0"/>
        <pt x="90" y="160" on="0"/>
        <pt x="90" y="75" on="0"/>
        <pt x="104" y="52" on="0"/>
        <pt x="134" y="52" on="1"/>
        <pt x="252" y="138" on="1"/>
        <pt x="252" y="163" on="1"/>
        <pt x="297" y="440" on="1"/>
        <pt x="305" y="465" on="1"/>
        <pt x="219" y="493" on="0"/>
      </contour>
      <contour>
        <pt x="384" y="627" on="1"/>
        <pt x="277" y="693" on="1"/>
        <pt x="149" y="627" on="1"/>
        <pt x="158" y="682" on="1"/>
        <pt x="271" y="742" on="1"/>
        <pt x="297" y="742" on="1"/>
        <pt x="393" y="681" on="1"/>
      </contour>
    </TTGlyph>
    <TTGlyph name="acute" xMin="111" yMin="587" xMax="274" yMax="732">
      <contour>
        <pt x="274" y="701" on="1"/>
        <pt x="140" y="587" on="1"/>
        <pt x="111" y="623" on="1"/>
        <pt x="191" y="699" on="1"/>
        <pt x="230" y="732" on="0"/>
        <pt x="247" y="732" on="0"/>
      </contour>
    </TTGlyph>
    <TTGlyph name="adieresis" xMin="29" yMin="-7" xMax="410" yMax="711">
      <contour>
        <pt x="65" y="-7" on="0"/>
        <pt x="29" y="37" on="0"/>
        <pt x="29" y="150" on="0"/>
        <pt x="45" y="290" on="0"/>
        <pt x="80" y="446" on="0"/>
        <pt x="151" y="550" on="0"/>
        <pt x="198" y="550" on="1"/>
        <pt x="214" y="550" on="0"/>
        <pt x="251" y="537" on="0"/>
        <pt x="303" y="521" on="0"/>
        <pt x="327" y="513" on="0"/>
        <pt x="340" y="508" on="1"/>
        <pt x="361" y="498" on="0"/>
        <pt x="361" y="485" on="1"/>
        <pt x="361" y="481" on="0"/>
        <pt x="286" y="0" on="1"/>
        <pt x="251" y="0" on="0"/>
        <pt x="229" y="7" on="0"/>
        <pt x="231" y="21" on="1"/>
        <pt x="240" y="87" on="1"/>
        <pt x="124" y="-7" on="1"/>
      </contour>
      <contour>
        <pt x="204" y="493" on="1"/>
        <pt x="166" y="493" on="0"/>
        <pt x="110" y="325" on="0"/>
        <pt x="90" y="160" on="0"/>
        <pt x="90" y="75" on="0"/>
        <pt x="104" y="52" on="0"/>
        <pt x="134" y="52" on="1"/>
        <pt x="252" y="138" on="1"/>
        <pt x="252" y="163" on="1"/>
        <pt x="297" y="440" on="1"/>
        <pt x="305" y="465" on="1"/>
        <pt x="219" y="493" on="0"/>
      </contour>
      <contour>
        <pt x="210" y="711" on="0"/>
        <pt x="246" y="711" on="0"/>
        <pt x="267" y="690" on="0"/>
        <pt x="267" y="652" on="0"/>
        <pt x="234" y="620" on="0"/>
        <pt x="197" y="620" on="0"/>
        <pt x="174" y="642" on="0"/>
        <pt x="174" y="653" on="1"/>
        <pt x="174" y="682" on="0"/>
      </contour>
      <contour>
        <pt x="353" y="711" on="0"/>
        <pt x="388" y="711" on="0"/>
        <pt x="410" y="690" on="0"/>
        <pt x="410" y="652" on="0"/>
        <pt x="377" y="620" on="0"/>
        <pt x="340" y="620" on="0"/>
        <pt x="317" y="642" on="0"/>
        <pt x="317" y="653" on="1"/>
        <pt x="317" y="682" on="0"/>
      </contour>
    </TTGlyph>
    <TTGlyph name="ae" xMin="74" yMin="-7" xMax="562" yMax="544">
      <contour>
        <pt x="496" y="375" on="1"/>
        <pt x="501" y="412" on="0"/>
        <pt x="501" y="438" on="1"/>
        <pt x="501" y="491" on="0"/>
        <pt x="441" y="491" on="1"/>
        <pt x="412" y="491" on="0"/>
        <pt x="394" y="467" on="0"/>
        <pt x="385" y="453" on="0"/>
        <pt x="381" y="432" on="1"/>
        <pt x="377" y="410" on="0"/>
        <pt x="368" y="355" on="1"/>
        <pt x="360" y="330" on="1"/>
        <pt x="494" y="330" on="1"/>
      </contour>
      <contour>
        <pt x="504" y="10" on="1"/>
        <pt x="415" y="-7" on="0"/>
        <pt x="316" y="-7" on="0"/>
        <pt x="286" y="20" on="0"/>
        <pt x="277" y="57" on="1"/>
        <pt x="143" y="-7" on="1"/>
        <pt x="104" y="-7" on="0"/>
        <pt x="74" y="21" on="0"/>
        <pt x="74" y="91" on="0"/>
        <pt x="96" y="225" on="1"/>
        <pt x="113" y="332" on="0"/>
        <pt x="298" y="332" on="1"/>
        <pt x="302" y="332" on="1"/>
        <pt x="302" y="357" on="1"/>
        <pt x="311" y="415" on="1"/>
        <pt x="312" y="422" on="0"/>
        <pt x="319" y="454" on="0"/>
        <pt x="319" y="461" on="1"/>
        <pt x="319" y="491" on="0"/>
        <pt x="270" y="491" on="1"/>
        <pt x="205" y="482" on="0"/>
        <pt x="202" y="482" on="1"/>
        <pt x="172" y="482" on="0"/>
        <pt x="172" y="512" on="1"/>
        <pt x="172" y="515" on="0"/>
        <pt x="174" y="527" on="1"/>
        <pt x="279" y="544" on="1"/>
        <pt x="349" y="544" on="0"/>
        <pt x="369" y="513" on="1"/>
        <pt x="406" y="544" on="0"/>
        <pt x="450" y="544" on="1"/>
        <pt x="514" y="544" on="0"/>
        <pt x="562" y="501" on="0"/>
        <pt x="562" y="424" on="0"/>
        <pt x="549" y="335" on="1"/>
        <pt x="545" y="276" on="1"/>
        <pt x="345" y="276" on="1"/>
        <pt x="345" y="251" on="1"/>
        <pt x="327" y="136" on="0"/>
        <pt x="327" y="74" on="0"/>
        <pt x="347" y="46" on="0"/>
        <pt x="371" y="46" on="1"/>
        <pt x="425" y="46" on="0"/>
        <pt x="512" y="59" on="1"/>
      </contour>
      <contour>
        <pt x="289" y="276" on="1"/>
        <pt x="229" y="276" on="0"/>
        <pt x="159" y="259" on="0"/>
        <pt x="155" y="233" on="1"/>
        <pt x="150" y="201" on="0"/>
        <pt x="144" y="162" on="1"/>
        <pt x="131" y="86" on="0"/>
        <pt x="131" y="71" on="1"/>
        <pt x="131" y="46" on="0"/>
        <pt x="151" y="46" on="1"/>
        <pt x="260" y="93" on="1"/>
        <pt x="285" y="251" on="1"/>
        <pt x="293" y="276" on="1"/>
      </contour>
    </TTGlyph>
    <TTGlyph name="agrave" xMin="29" yMin="-7" xMax="361" yMax="738">
      <contour>
        <pt x="65" y="-7" on="0"/>
        <pt x="29" y="37" on="0"/>
        <pt x="29" y="150" on="0"/>
        <pt x="45" y="290" on="0"/>
        <pt x="80" y="446" on="0"/>
        <pt x="151" y="550" on="0"/>
        <pt x="198" y="550" on="1"/>
        <pt x="214" y="550" on="0"/>
        <pt x="251" y="537" on="0"/>
        <pt x="303" y="521" on="0"/>
        <pt x="327" y="513" on="0"/>
        <pt x="340" y="508" on="1"/>
        <pt x="361" y="498" on="0"/>
        <pt x="361" y="485" on="1"/>
        <pt x="361" y="481" on="0"/>
        <pt x="286" y="0" on="1"/>
        <pt x="251" y="0" on="0"/>
        <pt x="229" y="7" on="0"/>
        <pt x="231" y="21" on="1"/>
        <pt x="240" y="87" on="1"/>
        <pt x="124" y="-7" on="1"/>
      </contour>
      <contour>
        <pt x="204" y="493" on="1"/>
        <pt x="166" y="493" on="0"/>
        <pt x="110" y="325" on="0"/>
        <pt x="90" y="160" on="0"/>
        <pt x="90" y="75" on="0"/>
        <pt x="104" y="52" on="0"/>
        <pt x="134" y="52" on="1"/>
        <pt x="252" y="138" on="1"/>
        <pt x="252" y="163" on="1"/>
        <pt x="297" y="440" on="1"/>
        <pt x="305" y="465" on="1"/>
        <pt x="219" y="493" on="0"/>
      </contour>
      <contour>
        <pt x="230" y="714" on="1"/>
        <pt x="257" y="738" on="0"/>
        <pt x="276" y="738" on="0"/>
        <pt x="303" y="705" on="1"/>
        <pt x="359" y="629" on="1"/>
        <pt x="318" y="593" on="1"/>
        <pt x="222" y="707" on="1"/>
      </contour>
    </TTGlyph>
    <TTGlyph name="ampersand" xMin="74" yMin="-7" xMax="573" yMax="701">
      <contour>
        <pt x="436" y="420" on="1"/>
        <pt x="436" y="445" on="1"/>
        <pt x="443" y="489" on="1"/>
        <pt x="496" y="489" on="0"/>
        <pt x="500" y="480" on="1"/>
        <pt x="502" y="475" on="0"/>
        <pt x="502" y="463" on="0"/>
        <pt x="500" y="443" on="1"/>
        <pt x="492" y="420" on="1"/>
        <pt x="573" y="420" on="1"/>
        <pt x="568" y="384" on="0"/>
        <pt x="550" y="366" on="0"/>
        <pt x="514" y="366" on="1"/>
        <pt x="484" y="366" on="1"/>
        <pt x="484" y="341" on="1"/>
        <pt x="462" y="207" on="1"/>
        <pt x="444" y="99" on="0"/>
        <pt x="337" y="-7" on="0"/>
        <pt x="152" y="-7" on="0"/>
        <pt x="74" y="67" on="0"/>
        <pt x="74" y="229" on="0"/>
        <pt x="144" y="361" on="0"/>
        <pt x="196" y="397" on="1"/>
        <pt x="178" y="412" on="0"/>
        <pt x="163" y="428" on="0"/>
        <pt x="147" y="465" on="0"/>
        <pt x="147" y="551" on="0"/>
        <pt x="181" y="639" on="0"/>
        <pt x="208" y="661" on="1"/>
        <pt x="258" y="701" on="0"/>
        <pt x="320" y="701" on="1"/>
        <pt x="438" y="692" on="1"/>
        <pt x="435" y="677" on="1"/>
        <pt x="434" y="672" on="0"/>
        <pt x="433" y="661" on="0"/>
        <pt x="427" y="656" on="0"/>
        <pt x="425" y="652" on="0"/>
        <pt x="413" y="650" on="0"/>
        <pt x="408" y="648" on="0"/>
        <pt x="387" y="646" on="0"/>
        <pt x="381" y="645" on="1"/>
        <pt x="311" y="645" on="1"/>
        <pt x="210" y="645" on="0"/>
        <pt x="210" y="485" on="1"/>
        <pt x="210" y="445" on="0"/>
        <pt x="246" y="425" on="0"/>
        <pt x="290" y="425" on="1"/>
        <pt x="280" y="366" on="1"/>
        <pt x="224" y="366" on="0"/>
        <pt x="139" y="252" on="0"/>
        <pt x="139" y="158" on="1"/>
        <pt x="139" y="49" on="0"/>
        <pt x="246" y="49" on="1"/>
        <pt x="372" y="49" on="0"/>
        <pt x="398" y="207" on="1"/>
        <pt x="420" y="341" on="1"/>
        <pt x="427" y="366" on="1"/>
        <pt x="374" y="366" on="1"/>
        <pt x="383" y="420" on="1"/>
      </contour>
    </TTGlyph>
    <TTGlyph name="aring" xMin="29" yMin="-7" xMax="361" yMax="749">
      <contour>
        <pt x="65" y="-7" on="0"/>
        <pt x="29" y="37" on="0"/>
        <pt x="29" y="150" on="0"/>
        <pt x="45" y="290" on="0"/>
        <pt x="80" y="446" on="0"/>
        <pt x="151" y="550" on="0"/>
        <pt x="198" y="550" on="1"/>
        <pt x="214" y="550" on="0"/>
        <pt x="251" y="537" on="0"/>
        <pt x="303" y="521" on="0"/>
        <pt x="327" y="513" on="0"/>
        <pt x="340" y="508" on="1"/>
        <pt x="361" y="498" on="0"/>
        <pt x="361" y="485" on="1"/>
        <pt x="361" y="481" on="0"/>
        <pt x="286" y="0" on="1"/>
        <pt x="251" y="0" on="0"/>
        <pt x="229" y="7" on="0"/>
        <pt x="231" y="21" on="1"/>
        <pt x="240" y="87" on="1"/>
        <pt x="124" y="-7" on="1"/>
      </contour>
      <contour>
        <pt x="204" y="493" on="1"/>
        <pt x="166" y="493" on="0"/>
        <pt x="110" y="325" on="0"/>
        <pt x="90" y="160" on="0"/>
        <pt x="90" y="75" on="0"/>
        <pt x="104" y="52" on="0"/>
        <pt x="134" y="52" on="1"/>
        <pt x="252" y="138" on="1"/>
        <pt x="252" y="163" on="1"/>
        <pt x="297" y="440" on="1"/>
        <pt x="305" y="465" on="1"/>
        <pt x="219" y="493" on="0"/>
      </contour>
      <contour>
        <pt x="310" y="749" on="0"/>
        <pt x="351" y="710" on="0"/>
        <pt x="351" y="643" on="0"/>
        <pt x="291" y="586" on="0"/>
        <pt x="223" y="586" on="0"/>
        <pt x="183" y="626" on="0"/>
        <pt x="183" y="692" on="0"/>
        <pt x="242" y="749" on="0"/>
      </contour>
      <contour>
        <pt x="225" y="647" on="0"/>
        <pt x="245" y="627" on="0"/>
        <pt x="280" y="627" on="0"/>
        <pt x="308" y="656" on="0"/>
        <pt x="308" y="689" on="0"/>
        <pt x="289" y="708" on="0"/>
        <pt x="256" y="708" on="0"/>
        <pt x="225" y="680" on="0"/>
      </contour>
    </TTGlyph>
    <TTGlyph name="asciicircum" xMin="134" yMin="607" xMax="477" yMax="732">
      <contour>
        <pt x="469" y="607" on="1"/>
        <pt x="313" y="683" on="1"/>
        <pt x="134" y="607" on="1"/>
        <pt x="142" y="662" on="1"/>
        <pt x="307" y="732" on="1"/>
        <pt x="333" y="732" on="1"/>
        <pt x="477" y="661" on="1"/>
      </contour>
    </TTGlyph>
    <TTGlyph name="asciitilde" xMin="96" yMin="298" xMax="378" yMax="359">
      <contour>
        <pt x="163" y="359" on="1"/>
        <pt x="332" y="348" on="1"/>
        <pt x="352" y="348" on="0"/>
        <pt x="365" y="351" on="1"/>
        <pt x="378" y="349" on="1"/>
        <pt x="374" y="328" on="1"/>
        <pt x="369" y="305" on="0"/>
        <pt x="355" y="298" on="0"/>
        <pt x="311" y="298" on="1"/>
        <pt x="140" y="308" on="1"/>
        <pt x="125" y="308" on="0"/>
        <pt x="109" y="306" on="1"/>
        <pt x="96" y="308" on="1"/>
        <pt x="100" y="329" on="1"/>
        <pt x="105" y="352" on="0"/>
        <pt x="119" y="359" on="0"/>
      </contour>
    </TTGlyph>
    <TTGlyph name="asterisk" xMin="121" yMin="495" xMax="371" yMax="732">
      <contour>
        <pt x="316" y="520" on="1"/>
        <pt x="267" y="495" on="1"/>
        <pt x="239" y="573" on="1"/>
        <pt x="189" y="497" on="1"/>
        <pt x="149" y="522" on="1"/>
        <pt x="207" y="587" on="1"/>
        <pt x="121" y="587" on="1"/>
        <pt x="130" y="633" on="1"/>
        <pt x="216" y="633" on="1"/>
        <pt x="178" y="706" on="1"/>
        <pt x="226" y="732" on="1"/>
        <pt x="254" y="654" on="1"/>
        <pt x="304" y="731" on="1"/>
        <pt x="344" y="705" on="1"/>
        <pt x="286" y="638" on="1"/>
        <pt x="371" y="638" on="1"/>
        <pt x="363" y="592" on="1"/>
        <pt x="276" y="592" on="1"/>
      </contour>
    </TTGlyph>
    <TTGlyph name="at" xMin="79" yMin="-16" xMax="588" yMax="544">
      <contour>
        <pt x="282" y="264" on="1"/>
        <pt x="275" y="230" on="0"/>
        <pt x="275" y="206" on="0"/>
        <pt x="280" y="204" on="1"/>
        <pt x="357" y="236" on="1"/>
        <pt x="357" y="247" on="1"/>
        <pt x="373" y="350" on="1"/>
        <pt x="298" y="350" on="0"/>
        <pt x="294" y="330" on="1"/>
      </contour>
      <contour>
        <pt x="530" y="453" on="1"/>
        <pt x="531" y="463" on="1"/>
        <pt x="531" y="489" on="0"/>
        <pt x="501" y="489" on="1"/>
        <pt x="498" y="489" on="0"/>
        <pt x="250" y="473" on="1"/>
        <pt x="203" y="471" on="0"/>
        <pt x="188" y="448" on="1"/>
        <pt x="178" y="433" on="0"/>
        <pt x="173" y="401" on="1"/>
        <pt x="139" y="181" on="0"/>
        <pt x="139" y="81" on="0"/>
        <pt x="167" y="37" on="0"/>
        <pt x="200" y="37" on="1"/>
        <pt x="381" y="37" on="1"/>
        <pt x="411" y="37" on="0"/>
        <pt x="429" y="30" on="0"/>
        <pt x="429" y="12" on="0"/>
        <pt x="425" y="-16" on="1"/>
        <pt x="189" y="-16" on="1"/>
        <pt x="129" y="-16" on="0"/>
        <pt x="79" y="44" on="0"/>
        <pt x="79" y="170" on="0"/>
        <pt x="115" y="399" on="1"/>
        <pt x="125" y="466" on="0"/>
        <pt x="179" y="525" on="0"/>
        <pt x="260" y="531" on="1"/>
        <pt x="508" y="544" on="0"/>
        <pt x="516" y="544" on="1"/>
        <pt x="556" y="544" on="0"/>
        <pt x="588" y="512" on="0"/>
        <pt x="588" y="465" on="0"/>
        <pt x="585" y="447" on="1"/>
        <pt x="560" y="290" on="1"/>
        <pt x="546" y="198" on="0"/>
        <pt x="526" y="182" on="1"/>
        <pt x="501" y="161" on="0"/>
        <pt x="443" y="157" on="0"/>
        <pt x="375" y="157" on="0"/>
        <pt x="352" y="172" on="0"/>
        <pt x="348" y="189" on="1"/>
        <pt x="281" y="152" on="1"/>
        <pt x="244" y="152" on="0"/>
        <pt x="220" y="165" on="0"/>
        <pt x="220" y="215" on="0"/>
        <pt x="231" y="283" on="1"/>
        <pt x="237" y="319" on="1"/>
        <pt x="251" y="402" on="0"/>
        <pt x="386" y="402" on="1"/>
        <pt x="432" y="402" on="1"/>
        <pt x="405" y="229" on="1"/>
        <pt x="395" y="210" on="1"/>
        <pt x="419" y="210" on="1"/>
        <pt x="471" y="210" on="0"/>
        <pt x="496" y="236" on="0"/>
        <pt x="504" y="288" on="1"/>
      </contour>
    </TTGlyph>
    <TTGlyph name="atilde" xMin="29" yMin="-7" xMax="390" yMax="692">
      <contour>
        <pt x="65" y="-7" on="0"/>
        <pt x="29" y="37" on="0"/>
        <pt x="29" y="150" on="0"/>
        <pt x="45" y="290" on="0"/>
        <pt x="80" y="446" on="0"/>
        <pt x="151" y="550" on="0"/>
        <pt x="198" y="550" on="1"/>
        <pt x="214" y="550" on="0"/>
        <pt x="251" y="537" on="0"/>
        <pt x="303" y="521" on="0"/>
        <pt x="327" y="513" on="0"/>
        <pt x="340" y="508" on="1"/>
        <pt x="361" y="498" on="0"/>
        <pt x="361" y="485" on="1"/>
        <pt x="361" y="481" on="0"/>
        <pt x="286" y="0" on="1"/>
        <pt x="251" y="0" on="0"/>
        <pt x="229" y="7" on="0"/>
        <pt x="231" y="21" on="1"/>
        <pt x="240" y="87" on="1"/>
        <pt x="124" y="-7" on="1"/>
      </contour>
      <contour>
        <pt x="204" y="493" on="1"/>
        <pt x="166" y="493" on="0"/>
        <pt x="110" y="325" on="0"/>
        <pt x="90" y="160" on="0"/>
        <pt x="90" y="75" on="0"/>
        <pt x="104" y="52" on="0"/>
        <pt x="134" y="52" on="1"/>
        <pt x="252" y="138" on="1"/>
        <pt x="252" y="163" on="1"/>
        <pt x="297" y="440" on="1"/>
        <pt x="305" y="465" on="1"/>
        <pt x="219" y="493" on="0"/>
      </contour>
      <contour>
        <pt x="215" y="692" on="1"/>
        <pt x="331" y="688" on="1"/>
        <pt x="358" y="688" on="0"/>
        <pt x="378" y="692" on="1"/>
        <pt x="390" y="690" on="1"/>
        <pt x="387" y="669" on="1"/>
        <pt x="384" y="647" on="0"/>
        <pt x="367" y="639" on="0"/>
        <pt x="323" y="639" on="1"/>
        <pt x="207" y="642" on="1"/>
        <pt x="174" y="642" on="0"/>
        <pt x="160" y="639" on="1"/>
        <pt x="147" y="641" on="1"/>
        <pt x="151" y="662" on="1"/>
        <pt x="156" y="685" on="0"/>
        <pt x="170" y="692" on="0"/>
      </contour>
    </TTGlyph>
    <TTGlyph name="b" xMin="55" yMin="-13" xMax="385" yMax="732">
      <contour>
        <pt x="222" y="724" on="1"/>
        <pt x="224" y="720" on="0"/>
        <pt x="224" y="703" on="0"/>
        <pt x="199" y="544" on="1"/>
        <pt x="273" y="544" on="1"/>
        <pt x="336" y="544" on="0"/>
        <pt x="385" y="494" on="0"/>
        <pt x="385" y="382" on="0"/>
        <pt x="369" y="244" on="0"/>
        <pt x="335" y="90" on="0"/>
        <pt x="267" y="-13" on="0"/>
        <pt x="222" y="-13" on="1"/>
        <pt x="204" y="-13" on="0"/>
        <pt x="121" y="53" on="1"/>
        <pt x="115" y="13" on="0"/>
        <pt x="98" y="0" on="0"/>
        <pt x="55" y="0" on="1"/>
        <pt x="170" y="732" on="1"/>
        <pt x="218" y="732" on="0"/>
      </contour>
      <contour>
        <pt x="215" y="41" on="1"/>
        <pt x="249" y="41" on="0"/>
        <pt x="302" y="202" on="0"/>
        <pt x="324" y="367" on="0"/>
        <pt x="324" y="454" on="0"/>
        <pt x="298" y="491" on="0"/>
        <pt x="268" y="491" on="1"/>
        <pt x="181" y="491" on="1"/>
        <pt x="186" y="472" on="1"/>
        <pt x="131" y="117" on="1"/>
        <pt x="123" y="92" on="1"/>
        <pt x="207" y="41" on="0"/>
      </contour>
    </TTGlyph>
    <TTGlyph name="backslash" xMin="120" yMin="-200" xMax="331" yMax="732">
      <contour>
        <pt x="331" y="-200" on="1"/>
        <pt x="267" y="-200" on="1"/>
        <pt x="120" y="732" on="1"/>
        <pt x="184" y="732" on="1"/>
      </contour>
    </TTGlyph>
    <TTGlyph name="bar" xMin="36" yMin="-200" xMax="234" yMax="732">
      <contour>
        <pt x="232" y="724" on="1"/>
        <pt x="234" y="720" on="0"/>
        <pt x="234" y="702" on="0"/>
        <pt x="231" y="686" on="1"/>
        <pt x="91" y="-200" on="1"/>
        <pt x="42" y="-200" on="0"/>
        <pt x="38" y="-192" on="1"/>
        <pt x="36" y="-188" on="0"/>
        <pt x="36" y="-172" on="0"/>
        <pt x="39" y="-154" on="1"/>
        <pt x="179" y="732" on="1"/>
        <pt x="228" y="732" on="0"/>
      </contour>
    </TTGlyph>
    <TTGlyph name="braceleft" xMin="70" yMin="-70" xMax="338" yMax="772">
      <contour>
        <pt x="128" y="-70" on="1"/>
        <pt x="97" y="-70" on="0"/>
        <pt x="79" y="-65" on="0"/>
        <pt x="79" y="-50" on="0"/>
        <pt x="83" y="-24" on="1"/>
        <pt x="116" y="189" on="1"/>
        <pt x="70" y="343" on="1"/>
        <pt x="74" y="369" on="1"/>
        <pt x="169" y="524" on="1"/>
        <pt x="209" y="772" on="1"/>
        <pt x="289" y="772" on="1"/>
        <pt x="320" y="772" on="0"/>
        <pt x="338" y="767" on="0"/>
        <pt x="338" y="752" on="0"/>
        <pt x="334" y="726" on="1"/>
        <pt x="254" y="726" on="1"/>
        <pt x="222" y="524" on="1"/>
        <pt x="121" y="356" on="1"/>
        <pt x="169" y="189" on="1"/>
        <pt x="136" y="-24" on="1"/>
        <pt x="163" y="-24" on="1"/>
        <pt x="194" y="-24" on="0"/>
        <pt x="212" y="-29" on="0"/>
        <pt x="212" y="-44" on="0"/>
        <pt x="208" y="-70" on="1"/>
      </contour>
    </TTGlyph>
    <TTGlyph name="braceright" xMin="8" yMin="-70" xMax="282" yMax="772">
      <contour>
        <pt x="88" y="-70" on="1"/>
        <pt x="8" y="-70" on="1"/>
        <pt x="14" y="-36" on="0"/>
        <pt x="29" y="-24" on="0"/>
        <pt x="69" y="-24" on="1"/>
        <pt x="96" y="-24" on="1"/>
        <pt x="129" y="189" on="1"/>
        <pt x="231" y="356" on="1"/>
        <pt x="182" y="524" on="1"/>
        <pt x="214" y="726" on="1"/>
        <pt x="134" y="726" on="1"/>
        <pt x="140" y="761" on="0"/>
        <pt x="155" y="772" on="0"/>
        <pt x="195" y="772" on="1"/>
        <pt x="275" y="772" on="1"/>
        <pt x="235" y="524" on="1"/>
        <pt x="282" y="369" on="1"/>
        <pt x="278" y="343" on="1"/>
        <pt x="182" y="189" on="1"/>
        <pt x="149" y="-24" on="1"/>
        <pt x="144" y="-58" on="0"/>
        <pt x="128" y="-70" on="0"/>
      </contour>
    </TTGlyph>
    <TTGlyph name="bracketleft" xMin="52" yMin="-70" xMax="311" yMax="772">
      <contour>
        <pt x="101" y="-70" on="1"/>
        <pt x="70" y="-70" on="0"/>
        <pt x="52" y="-65" on="0"/>
        <pt x="52" y="-50" on="0"/>
        <pt x="182" y="772" on="1"/>
        <pt x="262" y="772" on="1"/>
        <pt x="293" y="772" on="0"/>
        <pt x="311" y="767" on="0"/>
        <pt x="311" y="752" on="0"/>
        <pt x="307" y="726" on="1"/>
        <pt x="227" y="726" on="1"/>
        <pt x="109" y="-24" on="1"/>
        <pt x="136" y="-24" on="1"/>
        <pt x="167" y="-24" on="0"/>
        <pt x="185" y="-29" on="0"/>
        <pt x="185" y="-44" on="0"/>
        <pt x="181" y="-70" on="1"/>
      </contour>
    </TTGlyph>
    <TTGlyph name="bracketright" xMin="-3" yMin="-70" xMax="263" yMax="772">
      <contour>
        <pt x="76" y="-70" on="1"/>
        <pt x="-3" y="-70" on="1"/>
        <pt x="2" y="-36" on="0"/>
        <pt x="17" y="-24" on="0"/>
        <pt x="57" y="-24" on="1"/>
        <pt x="84" y="-24" on="1"/>
        <pt x="202" y="726" on="1"/>
        <pt x="122" y="726" on="1"/>
        <pt x="128" y="761" on="0"/>
        <pt x="143" y="772" on="0"/>
        <pt x="183" y="772" on="1"/>
        <pt x="263" y="772" on="1"/>
        <pt x="137" y="-24" on="1"/>
        <pt x="132" y="-58" on="0"/>
        <pt x="116" y="-70" on="0"/>
      </contour>
    </TTGlyph>
    <TTGlyph name="breve" xMin="134" yMin="607" xMax="417" yMax="732">
      <contour>
        <pt x="409" y="607" on="1"/>
        <pt x="283" y="683" on="1"/>
        <pt x="134" y="607" on="1"/>
        <pt x="142" y="662" on="1"/>
        <pt x="277" y="732" on="1"/>
        <pt x="303" y="732" on="1"/>
        <pt x="417" y="661" on="1"/>
      </contour>
    </TTGlyph>
    <TTGlyph name="brokenbar" xMin="32" yMin="-196" xMax="233" yMax="732">
      <contour>
        <pt x="231" y="722" on="1"/>
        <pt x="233" y="718" on="0"/>
        <pt x="233" y="706" on="0"/>
        <pt x="231" y="686" on="1"/>
        <pt x="173" y="322" on="1"/>
        <pt x="135" y="322" on="0"/>
        <pt x="114" y="327" on="0"/>
        <pt x="114" y="344" on="0"/>
        <pt x="118" y="368" on="1"/>
        <pt x="175" y="732" on="1"/>
        <pt x="227" y="732" on="0"/>
      </contour>
      <contour>
        <pt x="149" y="204" on="1"/>
        <pt x="151" y="200" on="0"/>
        <pt x="151" y="188" on="0"/>
        <pt x="149" y="168" on="1"/>
        <pt x="91" y="-196" on="1"/>
        <pt x="53" y="-196" on="0"/>
        <pt x="32" y="-191" on="0"/>
        <pt x="32" y="-174" on="0"/>
        <pt x="36" y="-150" on="1"/>
        <pt x="93" y="214" on="1"/>
        <pt x="145" y="214" on="0"/>
      </contour>
    </TTGlyph>
    <TTGlyph name="bullet" xMin="88" yMin="232" xMax="228" yMax="369">
      <contour>
        <pt x="194" y="369" on="0"/>
        <pt x="228" y="336" on="0"/>
        <pt x="228" y="281" on="0"/>
        <pt x="177" y="232" on="0"/>
        <pt x="122" y="232" on="0"/>
        <pt x="88" y="266" on="0"/>
        <pt x="88" y="290" on="1"/>
        <pt x="88" y="325" on="0"/>
        <pt x="140" y="369" on="0"/>
      </contour>
    </TTGlyph>
    <TTGlyph name="c" xMin="71" yMin="-7" xMax="348" yMax="550">
      <contour>
        <pt x="306" y="486" on="1"/>
        <pt x="240" y="496" on="1"/>
        <pt x="205" y="496" on="0"/>
        <pt x="152" y="330" on="0"/>
        <pt x="132" y="165" on="0"/>
        <pt x="132" y="79" on="0"/>
        <pt x="157" y="46" on="0"/>
        <pt x="188" y="46" on="1"/>
        <pt x="276" y="56" on="1"/>
        <pt x="269" y="10" on="1"/>
        <pt x="179" y="-7" on="1"/>
        <pt x="119" y="-7" on="0"/>
        <pt x="71" y="41" on="0"/>
        <pt x="71" y="151" on="0"/>
        <pt x="86" y="289" on="0"/>
        <pt x="120" y="445" on="0"/>
        <pt x="189" y="550" on="0"/>
        <pt x="235" y="550" on="1"/>
        <pt x="245" y="550" on="0"/>
        <pt x="348" y="531" on="1"/>
        <pt x="340" y="486" on="0"/>
      </contour>
    </TTGlyph>
    <TTGlyph name="c_s" xMin="71" yMin="-7" xMax="569" yMax="552">
      <contour>
        <pt x="286" y="495" on="1"/>
        <pt x="240" y="496" on="1"/>
        <pt x="205" y="496" on="0"/>
        <pt x="152" y="330" on="0"/>
        <pt x="132" y="165" on="0"/>
        <pt x="132" y="79" on="0"/>
        <pt x="157" y="46" on="0"/>
        <pt x="188" y="46" on="1"/>
        <pt x="300" y="52" on="1"/>
        <pt x="419" y="51" on="1"/>
        <pt x="450" y="52" on="0"/>
        <pt x="489" y="127" on="0"/>
        <pt x="489" y="171" on="1"/>
        <pt x="489" y="176" on="0"/>
        <pt x="488" y="197" on="0"/>
        <pt x="457" y="236" on="0"/>
        <pt x="413" y="272" on="0"/>
        <pt x="391" y="292" on="1"/>
        <pt x="339" y="339" on="0"/>
        <pt x="337" y="391" on="1"/>
        <pt x="337" y="441" on="0"/>
        <pt x="364" y="508" on="0"/>
        <pt x="378" y="518" on="1"/>
        <pt x="413" y="544" on="0"/>
        <pt x="476" y="546" on="1"/>
        <pt x="569" y="535" on="1"/>
        <pt x="564" y="491" on="0"/>
        <pt x="529" y="489" on="1"/>
        <pt x="524" y="489" on="0"/>
        <pt x="514" y="491" on="1"/>
        <pt x="474" y="495" on="1"/>
        <pt x="395" y="492" on="0"/>
        <pt x="395" y="416" on="1"/>
        <pt x="395" y="367" on="0"/>
        <pt x="473" y="306" on="1"/>
        <pt x="502" y="284" on="0"/>
        <pt x="526" y="254" on="1"/>
        <pt x="552" y="222" on="0"/>
        <pt x="552" y="147" on="0"/>
        <pt x="528" y="63" on="0"/>
        <pt x="461" y="-6" on="0"/>
        <pt x="412" y="-7" on="1"/>
        <pt x="294" y="-1" on="1"/>
        <pt x="179" y="-7" on="1"/>
        <pt x="119" y="-7" on="0"/>
        <pt x="71" y="41" on="0"/>
        <pt x="71" y="151" on="0"/>
        <pt x="86" y="289" on="0"/>
        <pt x="120" y="445" on="0"/>
        <pt x="189" y="550" on="0"/>
        <pt x="235" y="550" on="1"/>
        <pt x="247" y="552" on="1"/>
        <pt x="266" y="552" on="0"/>
        <pt x="328" y="540" on="1"/>
        <pt x="320" y="495" on="0"/>
      </contour>
    </TTGlyph>
    <TTGlyph name="caron" xMin="163" yMin="627" xMax="406" yMax="732">
      <contour>
        <pt x="398" y="678" on="1"/>
        <pt x="285" y="627" on="1"/>
        <pt x="259" y="627" on="1"/>
        <pt x="163" y="677" on="1"/>
        <pt x="171" y="732" on="1"/>
        <pt x="280" y="676" on="1"/>
        <pt x="406" y="732" on="1"/>
      </contour>
    </TTGlyph>
    <TTGlyph name="ccedilla" xMin="43" yMin="-155" xMax="348" yMax="550">
      <contour>
        <pt x="306" y="486" on="1"/>
        <pt x="240" y="496" on="1"/>
        <pt x="205" y="496" on="0"/>
        <pt x="152" y="330" on="0"/>
        <pt x="132" y="165" on="0"/>
        <pt x="132" y="79" on="0"/>
        <pt x="157" y="46" on="0"/>
        <pt x="188" y="46" on="1"/>
        <pt x="276" y="56" on="1"/>
        <pt x="269" y="10" on="1"/>
        <pt x="196" y="-3" on="1"/>
        <pt x="179" y="-109" on="1"/>
        <pt x="174" y="-139" on="0"/>
        <pt x="157" y="-155" on="0"/>
        <pt x="127" y="-155" on="1"/>
        <pt x="92" y="-155" on="1"/>
        <pt x="52" y="-155" on="0"/>
        <pt x="44" y="-147" on="0"/>
        <pt x="44" y="-126" on="0"/>
        <pt x="46" y="-109" on="1"/>
        <pt x="133" y="-109" on="1"/>
        <pt x="150" y="-5" on="1"/>
        <pt x="107" y="-1" on="0"/>
        <pt x="71" y="47" on="0"/>
        <pt x="71" y="151" on="0"/>
        <pt x="86" y="289" on="0"/>
        <pt x="120" y="445" on="0"/>
        <pt x="189" y="550" on="0"/>
        <pt x="235" y="550" on="1"/>
        <pt x="245" y="550" on="0"/>
        <pt x="348" y="531" on="1"/>
        <pt x="340" y="486" on="0"/>
      </contour>
    </TTGlyph>
    <TTGlyph name="cedilla" xMin="-16" yMin="-155" xMax="138" yMax="0">
      <contour>
        <pt x="68" y="-155" on="1"/>
        <pt x="33" y="-155" on="1"/>
        <pt x="-7" y="-155" on="0"/>
        <pt x="-15" y="-147" on="0"/>
        <pt x="-15" y="-126" on="0"/>
        <pt x="-13" y="-109" on="1"/>
        <pt x="74" y="-109" on="1"/>
        <pt x="92" y="0" on="1"/>
        <pt x="138" y="0" on="1"/>
        <pt x="120" y="-109" on="1"/>
        <pt x="115" y="-139" on="0"/>
        <pt x="98" y="-155" on="0"/>
      </contour>
    </TTGlyph>
    <TTGlyph name="cent" xMin="56" yMin="-118" xMax="369" yMax="634">
      <contour>
        <pt x="147" y="-118" on="0"/>
        <pt x="131" y="-113" on="0"/>
        <pt x="131" y="-92" on="0"/>
        <pt x="134" y="-72" on="1"/>
        <pt x="145" y="-6" on="1"/>
        <pt x="95" y="-1" on="0"/>
        <pt x="56" y="48" on="0"/>
        <pt x="56" y="142" on="0"/>
        <pt x="100" y="416" on="0"/>
        <pt x="116" y="458" on="1"/>
        <pt x="142" y="523" on="0"/>
        <pt x="201" y="538" on="1"/>
        <pt x="215" y="542" on="0"/>
        <pt x="232" y="543" on="1"/>
        <pt x="246" y="634" on="1"/>
        <pt x="276" y="634" on="0"/>
        <pt x="292" y="629" on="0"/>
        <pt x="292" y="606" on="0"/>
        <pt x="289" y="588" on="1"/>
        <pt x="281" y="542" on="1"/>
        <pt x="369" y="537" on="1"/>
        <pt x="363" y="502" on="0"/>
        <pt x="349" y="491" on="0"/>
        <pt x="311" y="491" on="1"/>
        <pt x="252" y="491" on="1"/>
        <pt x="194" y="491" on="0"/>
        <pt x="155" y="405" on="0"/>
        <pt x="116" y="156" on="0"/>
        <pt x="116" y="82" on="0"/>
        <pt x="146" y="46" on="0"/>
        <pt x="174" y="46" on="1"/>
        <pt x="232" y="46" on="0"/>
        <pt x="292" y="56" on="1"/>
        <pt x="285" y="10" on="1"/>
        <pt x="195" y="-5" on="1"/>
        <pt x="177" y="-118" on="1"/>
      </contour>
    </TTGlyph>
    <TTGlyph name="circumflex" xMin="155" yMin="617" xMax="399" yMax="732">
      <contour>
        <pt x="390" y="617" on="1"/>
        <pt x="283" y="683" on="1"/>
        <pt x="155" y="617" on="1"/>
        <pt x="164" y="672" on="1"/>
        <pt x="277" y="732" on="1"/>
        <pt x="303" y="732" on="1"/>
        <pt x="399" y="671" on="1"/>
      </contour>
    </TTGlyph>
    <TTGlyph name="colon" xMin="47" yMin="0" xMax="217" yMax="537">
      <contour>
        <pt x="140" y="32" on="0"/>
        <pt x="107" y="0" on="0"/>
        <pt x="70" y="0" on="0"/>
        <pt x="47" y="22" on="0"/>
        <pt x="47" y="59" on="0"/>
        <pt x="80" y="91" on="0"/>
        <pt x="118" y="91" on="0"/>
        <pt x="140" y="70" on="0"/>
      </contour>
      <contour>
        <pt x="217" y="478" on="0"/>
        <pt x="184" y="446" on="0"/>
        <pt x="147" y="446" on="0"/>
        <pt x="124" y="468" on="0"/>
        <pt x="124" y="505" on="0"/>
        <pt x="158" y="537" on="0"/>
        <pt x="196" y="537" on="0"/>
        <pt x="217" y="516" on="0"/>
      </contour>
    </TTGlyph>
    <TTGlyph name="comma" xMin="16" yMin="-114" xMax="142" yMax="91">
      <contour>
        <pt x="54" y="43" on="1"/>
        <pt x="54" y="62" on="0"/>
        <pt x="88" y="91" on="0"/>
        <pt x="107" y="91" on="1"/>
        <pt x="142" y="91" on="0"/>
        <pt x="142" y="60" on="1"/>
        <pt x="142" y="40" on="0"/>
        <pt x="52" y="-114" on="0"/>
        <pt x="46" y="-114" on="1"/>
        <pt x="16" y="-96" on="1"/>
        <pt x="46" y="-45" on="0"/>
        <pt x="54" y="-9" on="0"/>
        <pt x="55" y="2" on="0"/>
        <pt x="54" y="37" on="0"/>
      </contour>
    </TTGlyph>
    <TTGlyph name="copyright" xMin="83" yMin="30" xMax="661" yMax="590">
      <contour>
        <pt x="297" y="151" on="0"/>
        <pt x="265" y="194" on="0"/>
        <pt x="265" y="271" on="0"/>
        <pt x="277" y="342" on="0"/>
        <pt x="303" y="412" on="0"/>
        <pt x="354" y="455" on="0"/>
        <pt x="388" y="455" on="1"/>
        <pt x="393" y="455" on="0"/>
        <pt x="471" y="450" on="1"/>
        <pt x="467" y="423" on="0"/>
        <pt x="457" y="414" on="0"/>
        <pt x="433" y="414" on="1"/>
        <pt x="390" y="414" on="1"/>
        <pt x="354" y="414" on="0"/>
        <pt x="310" y="307" on="0"/>
        <pt x="310" y="196" on="0"/>
        <pt x="344" y="196" on="1"/>
        <pt x="432" y="206" on="1"/>
        <pt x="425" y="164" on="1"/>
        <pt x="337" y="151" on="1"/>
      </contour>
      <contour>
        <pt x="661" y="345" on="1"/>
        <pt x="661" y="209" on="0"/>
        <pt x="463" y="30" on="0"/>
        <pt x="326" y="30" on="1"/>
        <pt x="214" y="30" on="0"/>
        <pt x="83" y="141" on="0"/>
        <pt x="83" y="244" on="1"/>
        <pt x="83" y="329" on="0"/>
        <pt x="170" y="488" on="0"/>
        <pt x="327" y="590" on="0"/>
        <pt x="527" y="590" on="0"/>
        <pt x="661" y="451" on="0"/>
      </contour>
      <contour>
        <pt x="609" y="338" on="1"/>
        <pt x="609" y="425" on="0"/>
        <pt x="500" y="539" on="0"/>
        <pt x="411" y="539" on="1"/>
        <pt x="301" y="539" on="0"/>
        <pt x="135" y="367" on="0"/>
        <pt x="135" y="253" on="1"/>
        <pt x="135" y="169" on="0"/>
        <pt x="241" y="81" on="0"/>
        <pt x="334" y="81" on="1"/>
        <pt x="449" y="81" on="0"/>
        <pt x="609" y="225" on="0"/>
      </contour>
    </TTGlyph>
    <TTGlyph name="currency" xMin="119" yMin="201" xMax="506" yMax="549">
      <contour>
        <pt x="333" y="300" on="0"/>
        <pt x="390" y="353" on="0"/>
        <pt x="390" y="417" on="0"/>
        <pt x="351" y="455" on="0"/>
        <pt x="290" y="455" on="0"/>
        <pt x="263" y="432" on="1"/>
        <pt x="230" y="405" on="0"/>
        <pt x="230" y="337" on="0"/>
        <pt x="268" y="300" on="0"/>
      </contour>
      <contour>
        <pt x="367" y="269" on="1"/>
        <pt x="329" y="247" on="0"/>
        <pt x="252" y="247" on="0"/>
        <pt x="224" y="266" on="1"/>
        <pt x="138" y="201" on="1"/>
        <pt x="119" y="223" on="0"/>
        <pt x="119" y="240" on="0"/>
        <pt x="152" y="269" on="1"/>
        <pt x="192" y="303" on="1"/>
        <pt x="176" y="332" on="0"/>
        <pt x="176" y="362" on="1"/>
        <pt x="176" y="411" on="0"/>
        <pt x="213" y="450" on="1"/>
        <pt x="160" y="525" on="1"/>
        <pt x="187" y="549" on="0"/>
        <pt x="204" y="549" on="0"/>
        <pt x="227" y="522" on="1"/>
        <pt x="256" y="487" on="1"/>
        <pt x="293" y="508" on="0"/>
        <pt x="372" y="508" on="0"/>
        <pt x="402" y="484" on="1"/>
        <pt x="487" y="549" on="1"/>
        <pt x="506" y="525" on="0"/>
        <pt x="506" y="519" on="1"/>
        <pt x="505" y="506" on="0"/>
        <pt x="474" y="481" on="1"/>
        <pt x="433" y="447" on="1"/>
        <pt x="444" y="423" on="0"/>
        <pt x="444" y="397" on="1"/>
        <pt x="444" y="348" on="0"/>
        <pt x="409" y="305" on="1"/>
        <pt x="462" y="230" on="1"/>
        <pt x="435" y="206" on="0"/>
        <pt x="414" y="207" on="0"/>
        <pt x="394" y="233" on="1"/>
        <pt x="366" y="268" on="1"/>
      </contour>
    </TTGlyph>
    <TTGlyph name="d" xMin="71" yMin="-7" xMax="429" yMax="732">
      <contour>
        <pt x="119" y="-7" on="0"/>
        <pt x="71" y="40" on="0"/>
        <pt x="71" y="150" on="0"/>
        <pt x="87" y="290" on="0"/>
        <pt x="122" y="446" on="0"/>
        <pt x="193" y="550" on="0"/>
        <pt x="240" y="550" on="1"/>
        <pt x="345" y="544" on="1"/>
        <pt x="375" y="732" on="1"/>
        <pt x="423" y="732" on="0"/>
        <pt x="427" y="724" on="1"/>
        <pt x="429" y="720" on="0"/>
        <pt x="429" y="704" on="0"/>
        <pt x="426" y="686" on="1"/>
        <pt x="318" y="0" on="1"/>
        <pt x="270" y="0" on="0"/>
        <pt x="266" y="8" on="1"/>
        <pt x="264" y="12" on="0"/>
        <pt x="264" y="25" on="0"/>
        <pt x="268" y="53" on="1"/>
        <pt x="179" y="-7" on="1"/>
      </contour>
      <contour>
        <pt x="152" y="325" on="0"/>
        <pt x="132" y="160" on="0"/>
        <pt x="132" y="77" on="0"/>
        <pt x="158" y="46" on="0"/>
        <pt x="189" y="46" on="1"/>
        <pt x="278" y="91" on="1"/>
        <pt x="278" y="116" on="1"/>
        <pt x="333" y="466" on="1"/>
        <pt x="341" y="491" on="1"/>
        <pt x="246" y="493" on="1"/>
        <pt x="208" y="493" on="0"/>
      </contour>
    </TTGlyph>
    <TTGlyph name="dagger" xMin="63" yMin="0" xMax="344" yMax="732">
      <contour>
        <pt x="179" y="403" on="1"/>
        <pt x="179" y="428" on="1"/>
        <pt x="227" y="732" on="1"/>
        <pt x="290" y="732" on="1"/>
        <pt x="242" y="428" on="1"/>
        <pt x="234" y="403" on="1"/>
        <pt x="344" y="403" on="1"/>
        <pt x="336" y="352" on="1"/>
        <pt x="226" y="352" on="1"/>
        <pt x="226" y="327" on="1"/>
        <pt x="175" y="0" on="1"/>
        <pt x="112" y="0" on="1"/>
        <pt x="163" y="327" on="1"/>
        <pt x="171" y="352" on="1"/>
        <pt x="63" y="352" on="1"/>
        <pt x="71" y="403" on="1"/>
      </contour>
    </TTGlyph>
    <TTGlyph name="daggerdbl" xMin="65" yMin="0" xMax="363" yMax="732">
      <contour>
        <pt x="181" y="403" on="1"/>
        <pt x="181" y="428" on="1"/>
        <pt x="190" y="456" on="1"/>
        <pt x="82" y="456" on="1"/>
        <pt x="90" y="507" on="1"/>
        <pt x="198" y="507" on="1"/>
        <pt x="198" y="532" on="1"/>
        <pt x="229" y="732" on="1"/>
        <pt x="292" y="732" on="1"/>
        <pt x="261" y="532" on="1"/>
        <pt x="253" y="507" on="1"/>
        <pt x="363" y="507" on="1"/>
        <pt x="355" y="456" on="1"/>
        <pt x="245" y="456" on="1"/>
        <pt x="245" y="431" on="1"/>
        <pt x="236" y="403" on="1"/>
        <pt x="346" y="403" on="1"/>
        <pt x="338" y="352" on="1"/>
        <pt x="228" y="352" on="1"/>
        <pt x="228" y="327" on="1"/>
        <pt x="177" y="0" on="1"/>
        <pt x="114" y="0" on="1"/>
        <pt x="165" y="327" on="1"/>
        <pt x="173" y="352" on="1"/>
        <pt x="65" y="352" on="1"/>
        <pt x="73" y="403" on="1"/>
      </contour>
    </TTGlyph>
    <TTGlyph name="degree" xMin="134" yMin="470" xMax="403" yMax="731">
      <contour>
        <pt x="338" y="731" on="0"/>
        <pt x="403" y="667" on="0"/>
        <pt x="403" y="561" on="0"/>
        <pt x="307" y="470" on="0"/>
        <pt x="199" y="470" on="0"/>
        <pt x="134" y="533" on="0"/>
        <pt x="134" y="580" on="1"/>
        <pt x="134" y="647" on="0"/>
        <pt x="235" y="731" on="0"/>
      </contour>
      <contour>
        <pt x="290" y="523" on="0"/>
        <pt x="349" y="575" on="0"/>
        <pt x="349" y="639" on="0"/>
        <pt x="309" y="678" on="0"/>
        <pt x="248" y="678" on="0"/>
        <pt x="222" y="656" on="1"/>
        <pt x="189" y="628" on="0"/>
        <pt x="189" y="559" on="0"/>
        <pt x="226" y="523" on="0"/>
      </contour>
    </TTGlyph>
    <TTGlyph name="dieresis" xMin="158" yMin="629" xMax="394" yMax="720">
      <contour>
        <pt x="194" y="720" on="0"/>
        <pt x="230" y="720" on="0"/>
        <pt x="251" y="698" on="0"/>
        <pt x="251" y="661" on="0"/>
        <pt x="218" y="629" on="0"/>
        <pt x="181" y="629" on="0"/>
        <pt x="158" y="651" on="0"/>
        <pt x="158" y="662" on="1"/>
        <pt x="158" y="691" on="0"/>
      </contour>
      <contour>
        <pt x="337" y="720" on="0"/>
        <pt x="372" y="720" on="0"/>
        <pt x="394" y="698" on="0"/>
        <pt x="394" y="661" on="0"/>
        <pt x="361" y="629" on="0"/>
        <pt x="324" y="629" on="0"/>
        <pt x="301" y="651" on="0"/>
        <pt x="301" y="662" on="1"/>
        <pt x="301" y="691" on="0"/>
      </contour>
    </TTGlyph>
    <TTGlyph name="divide" xMin="73" yMin="0" xMax="295" yMax="537">
      <contour>
        <pt x="184" y="32" on="0"/>
        <pt x="151" y="0" on="0"/>
        <pt x="114" y="0" on="0"/>
        <pt x="91" y="22" on="0"/>
        <pt x="91" y="59" on="0"/>
        <pt x="124" y="91" on="0"/>
        <pt x="162" y="91" on="0"/>
        <pt x="184" y="70" on="0"/>
      </contour>
      <contour>
        <pt x="261" y="478" on="0"/>
        <pt x="228" y="446" on="0"/>
        <pt x="191" y="446" on="0"/>
        <pt x="168" y="468" on="0"/>
        <pt x="168" y="505" on="0"/>
        <pt x="202" y="537" on="0"/>
        <pt x="240" y="537" on="0"/>
        <pt x="261" y="516" on="0"/>
      </contour>
      <contour>
        <pt x="287" y="270" on="1"/>
        <pt x="73" y="270" on="1"/>
        <pt x="81" y="321" on="1"/>
        <pt x="295" y="321" on="1"/>
      </contour>
    </TTGlyph>
    <TTGlyph name="dollar" xMin="76" yMin="-121" xMax="370" yMax="631">
      <contour>
        <pt x="83" y="56" on="1"/>
        <pt x="163" y="46" on="0"/>
        <pt x="221" y="46" on="0"/>
        <pt x="252" y="60" on="0"/>
        <pt x="260" y="76" on="1"/>
        <pt x="273" y="101" on="0"/>
        <pt x="281" y="156" on="0"/>
        <pt x="282" y="160" on="1"/>
        <pt x="282" y="166" on="1"/>
        <pt x="282" y="201" on="0"/>
        <pt x="204" y="264" on="1"/>
        <pt x="175" y="288" on="0"/>
        <pt x="126" y="356" on="0"/>
        <pt x="126" y="389" on="1"/>
        <pt x="126" y="533" on="0"/>
        <pt x="259" y="543" on="1"/>
        <pt x="273" y="631" on="1"/>
        <pt x="302" y="631" on="0"/>
        <pt x="317" y="626" on="0"/>
        <pt x="317" y="613" on="1"/>
        <pt x="314" y="585" on="1"/>
        <pt x="308" y="537" on="1"/>
        <pt x="370" y="528" on="1"/>
        <pt x="362" y="483" on="0"/>
        <pt x="328" y="483" on="1"/>
        <pt x="323" y="483" on="0"/>
        <pt x="313" y="485" on="1"/>
        <pt x="279" y="491" on="1"/>
        <pt x="225" y="491" on="0"/>
        <pt x="186" y="442" on="0"/>
        <pt x="186" y="401" on="1"/>
        <pt x="186" y="379" on="0"/>
        <pt x="237" y="323" on="0"/>
        <pt x="299" y="276" on="0"/>
        <pt x="350" y="211" on="0"/>
        <pt x="350" y="180" on="1"/>
        <pt x="350" y="169" on="0"/>
        <pt x="338" y="107" on="0"/>
        <pt x="320" y="55" on="0"/>
        <pt x="308" y="41" on="1"/>
        <pt x="277" y="5" on="0"/>
        <pt x="226" y="-4" on="1"/>
        <pt x="206" y="-121" on="1"/>
        <pt x="178" y="-121" on="0"/>
        <pt x="162" y="-116" on="0"/>
        <pt x="162" y="-101" on="0"/>
        <pt x="166" y="-75" on="1"/>
        <pt x="175" y="-7" on="1"/>
        <pt x="164" y="-6" on="0"/>
        <pt x="76" y="10" on="1"/>
      </contour>
    </TTGlyph>
    <TTGlyph name="dotaccent" xMin="153" yMin="641" xMax="246" yMax="732">
      <contour>
        <pt x="246" y="673" on="0"/>
        <pt x="213" y="641" on="0"/>
        <pt x="176" y="641" on="0"/>
        <pt x="153" y="663" on="0"/>
        <pt x="153" y="700" on="0"/>
        <pt x="186" y="732" on="0"/>
        <pt x="224" y="732" on="0"/>
        <pt x="246" y="711" on="0"/>
      </contour>
    </TTGlyph>
    <TTGlyph name="dotlessi" xMin="74" yMin="128" xMax="215" yMax="449">
      <contour>
        <pt x="135" y="449" on="1"/>
        <pt x="215" y="449" on="1"/>
        <pt x="164" y="128" on="1"/>
        <pt x="111" y="128" on="1"/>
        <pt x="154" y="403" on="1"/>
        <pt x="74" y="403" on="1"/>
        <pt x="80" y="438" on="0"/>
        <pt x="95" y="449" on="0"/>
      </contour>
    </TTGlyph>
    <TTGlyph name="e" xMin="71" yMin="-7" xMax="369" yMax="544">
      <contour>
        <pt x="307" y="10" on="1"/>
        <pt x="228" y="-7" on="0"/>
        <pt x="121" y="-7" on="0"/>
        <pt x="71" y="39" on="0"/>
        <pt x="71" y="132" on="0"/>
        <pt x="99" y="311" on="0"/>
        <pt x="106" y="355" on="0"/>
        <pt x="121" y="425" on="0"/>
        <pt x="133" y="455" on="0"/>
        <pt x="153" y="500" on="0"/>
        <pt x="176" y="517" on="0"/>
        <pt x="192" y="528" on="1"/>
        <pt x="217" y="544" on="0"/>
        <pt x="328" y="544" on="0"/>
        <pt x="369" y="499" on="0"/>
        <pt x="369" y="452" on="1"/>
        <pt x="369" y="407" on="0"/>
        <pt x="352" y="346" on="1"/>
        <pt x="341" y="310" on="0"/>
        <pt x="285" y="263" on="0"/>
        <pt x="244" y="263" on="1"/>
        <pt x="145" y="263" on="1"/>
        <pt x="145" y="238" on="1"/>
        <pt x="130" y="148" on="0"/>
        <pt x="130" y="78" on="0"/>
        <pt x="159" y="48" on="0"/>
        <pt x="257" y="48" on="0"/>
        <pt x="315" y="61" on="1"/>
      </contour>
      <contour>
        <pt x="236" y="317" on="1"/>
        <pt x="258" y="317" on="0"/>
        <pt x="290" y="345" on="0"/>
        <pt x="297" y="366" on="1"/>
        <pt x="310" y="404" on="0"/>
        <pt x="310" y="430" on="1"/>
        <pt x="310" y="491" on="0"/>
        <pt x="266" y="491" on="1"/>
        <pt x="225" y="491" on="0"/>
        <pt x="203" y="468" on="1"/>
        <pt x="188" y="452" on="0"/>
        <pt x="173" y="379" on="0"/>
        <pt x="168" y="342" on="1"/>
        <pt x="160" y="317" on="1"/>
      </contour>
    </TTGlyph>
    <TTGlyph name="eacute" xMin="71" yMin="-7" xMax="405" yMax="740">
      <component glyphName="e" x="0" y="0" flags="0x1004"/>
      <component glyphName="acute" x="131" y="8" flags="0x1004"/>
    </TTGlyph>
    <TTGlyph name="ecircumflex" xMin="71" yMin="-7" xMax="407" yMax="744">
      <component glyphName="e" x="0" y="0" flags="0x1004"/>
      <component glyphName="circumflex" x="8" y="12" flags="0x1004"/>
    </TTGlyph>
    <TTGlyph name="edieresis" xMin="71" yMin="-7" xMax="406" yMax="713">
      <component glyphName="e" x="0" y="0" flags="0x1004"/>
      <component glyphName="dieresis" x="12" y="-7" flags="0x1004"/>
    </TTGlyph>
    <TTGlyph name="egrave" xMin="71" yMin="-7" xMax="369" yMax="740">
      <contour>
        <pt x="307" y="10" on="1"/>
        <pt x="228" y="-7" on="0"/>
        <pt x="121" y="-7" on="0"/>
        <pt x="71" y="39" on="0"/>
        <pt x="71" y="132" on="0"/>
        <pt x="99" y="311" on="0"/>
        <pt x="106" y="355" on="0"/>
        <pt x="121" y="425" on="0"/>
        <pt x="133" y="455" on="0"/>
        <pt x="153" y="500" on="0"/>
        <pt x="176" y="517" on="0"/>
        <pt x="192" y="528" on="1"/>
        <pt x="217" y="544" on="0"/>
        <pt x="328" y="544" on="0"/>
        <pt x="369" y="499" on="0"/>
        <pt x="369" y="452" on="1"/>
        <pt x="369" y="407" on="0"/>
        <pt x="352" y="346" on="1"/>
        <pt x="341" y="310" on="0"/>
        <pt x="285" y="263" on="0"/>
        <pt x="244" y="263" on="1"/>
        <pt x="145" y="263" on="1"/>
        <pt x="145" y="238" on="1"/>
        <pt x="130" y="148" on="0"/>
        <pt x="130" y="78" on="0"/>
        <pt x="159" y="48" on="0"/>
        <pt x="257" y="48" on="0"/>
        <pt x="315" y="61" on="1"/>
      </contour>
      <contour>
        <pt x="236" y="317" on="1"/>
        <pt x="258" y="317" on="0"/>
        <pt x="290" y="345" on="0"/>
        <pt x="297" y="366" on="1"/>
        <pt x="310" y="404" on="0"/>
        <pt x="310" y="430" on="1"/>
        <pt x="310" y="491" on="0"/>
        <pt x="266" y="491" on="1"/>
        <pt x="225" y="491" on="0"/>
        <pt x="203" y="468" on="1"/>
        <pt x="188" y="452" on="0"/>
        <pt x="173" y="379" on="0"/>
        <pt x="168" y="342" on="1"/>
        <pt x="160" y="317" on="1"/>
      </contour>
      <contour>
        <pt x="216" y="716" on="1"/>
        <pt x="243" y="740" on="0"/>
        <pt x="262" y="740" on="0"/>
        <pt x="289" y="707" on="1"/>
        <pt x="345" y="631" on="1"/>
        <pt x="304" y="595" on="1"/>
        <pt x="208" y="709" on="1"/>
      </contour>
    </TTGlyph>
    <TTGlyph name="eight" xMin="60" yMin="-7" xMax="408" yMax="740">
      <contour>
        <pt x="136" y="510" on="1"/>
        <pt x="136" y="632" on="0"/>
        <pt x="205" y="701" on="1"/>
        <pt x="244" y="740" on="0"/>
        <pt x="301" y="740" on="1"/>
        <pt x="408" y="740" on="0"/>
        <pt x="408" y="616" on="1"/>
        <pt x="408" y="535" on="0"/>
        <pt x="350" y="414" on="0"/>
        <pt x="311" y="388" on="1"/>
        <pt x="370" y="338" on="0"/>
        <pt x="370" y="250" on="1"/>
        <pt x="370" y="117" on="0"/>
        <pt x="288" y="37" on="1"/>
        <pt x="243" y="-7" on="0"/>
        <pt x="123" y="-7" on="0"/>
        <pt x="60" y="69" on="0"/>
        <pt x="60" y="230" on="0"/>
        <pt x="129" y="362" on="0"/>
        <pt x="181" y="397" on="1"/>
        <pt x="136" y="433" on="0"/>
      </contour>
      <contour>
        <pt x="191" y="49" on="1"/>
        <pt x="239" y="49" on="0"/>
        <pt x="307" y="160" on="0"/>
        <pt x="307" y="255" on="1"/>
        <pt x="307" y="307" on="0"/>
        <pt x="269" y="366" on="0"/>
        <pt x="241" y="366" on="1"/>
        <pt x="198" y="366" on="0"/>
        <pt x="123" y="244" on="0"/>
        <pt x="123" y="49" on="0"/>
      </contour>
      <contour>
        <pt x="198" y="458" on="0"/>
        <pt x="224" y="425" on="0"/>
        <pt x="279" y="425" on="0"/>
        <pt x="319" y="465" on="0"/>
        <pt x="328" y="498" on="1"/>
        <pt x="345" y="559" on="0"/>
        <pt x="345" y="655" on="0"/>
        <pt x="319" y="684" on="0"/>
        <pt x="263" y="684" on="0"/>
        <pt x="223" y="646" on="0"/>
        <pt x="214" y="614" on="1"/>
        <pt x="198" y="558" on="0"/>
      </contour>
    </TTGlyph>
    <TTGlyph name="ellipsis" xMin="62" yMin="0" xMax="441" yMax="91">
      <contour>
        <pt x="97" y="91" on="0"/>
        <pt x="133" y="91" on="0"/>
        <pt x="155" y="70" on="0"/>
        <pt x="155" y="32" on="0"/>
        <pt x="122" y="0" on="0"/>
        <pt x="85" y="0" on="0"/>
        <pt x="62" y="22" on="0"/>
        <pt x="62" y="33" on="1"/>
        <pt x="62" y="62" on="0"/>
      </contour>
      <contour>
        <pt x="243" y="91" on="0"/>
        <pt x="279" y="91" on="0"/>
        <pt x="301" y="70" on="0"/>
        <pt x="301" y="32" on="0"/>
        <pt x="268" y="0" on="0"/>
        <pt x="231" y="0" on="0"/>
        <pt x="208" y="22" on="0"/>
        <pt x="208" y="33" on="1"/>
        <pt x="208" y="62" on="0"/>
      </contour>
      <contour>
        <pt x="383" y="91" on="0"/>
        <pt x="419" y="91" on="0"/>
        <pt x="441" y="70" on="0"/>
        <pt x="441" y="32" on="0"/>
        <pt x="408" y="0" on="0"/>
        <pt x="371" y="0" on="0"/>
        <pt x="348" y="22" on="0"/>
        <pt x="348" y="33" on="1"/>
        <pt x="348" y="62" on="0"/>
      </contour>
    </TTGlyph>
    <TTGlyph name="emdash" xMin="107" yMin="300" xMax="607" yMax="351">
      <contour>
        <pt x="599" y="300" on="1"/>
        <pt x="107" y="300" on="1"/>
        <pt x="115" y="351" on="1"/>
        <pt x="607" y="351" on="1"/>
      </contour>
    </TTGlyph>
    <TTGlyph name="endash" xMin="107" yMin="300" xMax="388" yMax="351">
      <contour>
        <pt x="380" y="300" on="1"/>
        <pt x="107" y="300" on="1"/>
        <pt x="115" y="351" on="1"/>
        <pt x="388" y="351" on="1"/>
      </contour>
    </TTGlyph>
    <TTGlyph name="equal" xMin="99" yMin="247" xMax="396" yMax="402">
      <contour>
        <pt x="388" y="351" on="1"/>
        <pt x="115" y="351" on="1"/>
        <pt x="123" y="402" on="1"/>
        <pt x="396" y="402" on="1"/>
      </contour>
      <contour>
        <pt x="372" y="247" on="1"/>
        <pt x="99" y="247" on="1"/>
        <pt x="107" y="298" on="1"/>
        <pt x="380" y="298" on="1"/>
      </contour>
    </TTGlyph>
    <TTGlyph name="eth" xMin="50" yMin="0" xMax="401" yMax="732">
      <contour>
        <pt x="186" y="438" on="0"/>
        <pt x="152" y="375" on="0"/>
        <pt x="115" y="143" on="0"/>
        <pt x="115" y="79" on="0"/>
        <pt x="145" y="53" on="0"/>
        <pt x="184" y="53" on="1"/>
        <pt x="247" y="53" on="0"/>
        <pt x="283" y="131" on="0"/>
        <pt x="309" y="297" on="1"/>
        <pt x="324" y="406" on="1"/>
        <pt x="245" y="438" on="1"/>
      </contour>
      <contour>
        <pt x="328" y="457" on="1"/>
        <pt x="331" y="504" on="0"/>
        <pt x="331" y="557" on="1"/>
        <pt x="331" y="675" on="0"/>
        <pt x="260" y="675" on="1"/>
        <pt x="269" y="732" on="1"/>
        <pt x="341" y="732" on="0"/>
        <pt x="401" y="642" on="0"/>
        <pt x="401" y="485" on="0"/>
        <pt x="363" y="242" on="0"/>
        <pt x="353" y="184" on="0"/>
        <pt x="338" y="111" on="0"/>
        <pt x="325" y="78" on="0"/>
        <pt x="303" y="36" on="0"/>
        <pt x="280" y="21" on="0"/>
        <pt x="262" y="12" on="1"/>
        <pt x="237" y="0" on="0"/>
        <pt x="104" y="0" on="0"/>
        <pt x="50" y="40" on="0"/>
        <pt x="50" y="132" on="0"/>
        <pt x="76" y="290" on="0"/>
        <pt x="82" y="328" on="0"/>
        <pt x="94" y="388" on="0"/>
        <pt x="103" y="411" on="0"/>
        <pt x="118" y="449" on="0"/>
        <pt x="135" y="462" on="0"/>
        <pt x="159" y="481" on="0"/>
        <pt x="174" y="484" on="1"/>
        <pt x="221" y="491" on="0"/>
        <pt x="253" y="491" on="1"/>
      </contour>
    </TTGlyph>
    <TTGlyph name="exclam" xMin="40" yMin="4" xMax="255" yMax="723">
      <contour>
        <pt x="111" y="94" on="0"/>
        <pt x="133" y="72" on="0"/>
        <pt x="133" y="34" on="0"/>
        <pt x="101" y="4" on="0"/>
        <pt x="63" y="4" on="0"/>
        <pt x="40" y="25" on="0"/>
        <pt x="40" y="61" on="0"/>
        <pt x="73" y="94" on="0"/>
      </contour>
      <contour>
        <pt x="124" y="186" on="1"/>
        <pt x="93" y="188" on="1"/>
        <pt x="178" y="680" on="1"/>
        <pt x="182" y="706" on="0"/>
        <pt x="199" y="723" on="0"/>
        <pt x="220" y="723" on="1"/>
        <pt x="255" y="721" on="1"/>
        <pt x="159" y="230" on="1"/>
        <pt x="153" y="201" on="0"/>
        <pt x="143" y="186" on="0"/>
      </contour>
    </TTGlyph>
    <TTGlyph name="exclamdown" xMin="3" yMin="-178" xMax="205" yMax="542">
      <contour>
        <pt x="202" y="478" on="0"/>
        <pt x="171" y="451" on="0"/>
        <pt x="135" y="451" on="0"/>
        <pt x="112" y="473" on="0"/>
        <pt x="112" y="511" on="0"/>
        <pt x="145" y="542" on="0"/>
        <pt x="183" y="542" on="0"/>
        <pt x="205" y="521" on="0"/>
        <pt x="205" y="504" on="1"/>
        <pt x="205" y="497" on="1"/>
      </contour>
      <contour>
        <pt x="3" y="-178" on="1"/>
        <pt x="101" y="313" on="1"/>
        <pt x="108" y="349" on="0"/>
        <pt x="121" y="359" on="0"/>
        <pt x="164" y="359" on="1"/>
        <pt x="77" y="-132" on="1"/>
        <pt x="71" y="-165" on="0"/>
        <pt x="48" y="-178" on="0"/>
      </contour>
    </TTGlyph>
    <TTGlyph name="f" xMin="-72" yMin="-200" xMax="351" yMax="731">
      <contour>
        <pt x="156" y="537" on="1"/>
        <pt x="156" y="567" on="1"/>
        <pt x="158" y="578" on="1"/>
        <pt x="173" y="672" on="0"/>
        <pt x="190" y="689" on="1"/>
        <pt x="217" y="718" on="0"/>
        <pt x="240" y="722" on="1"/>
        <pt x="291" y="731" on="0"/>
        <pt x="351" y="731" on="1"/>
        <pt x="344" y="684" on="1"/>
        <pt x="266" y="684" on="0"/>
        <pt x="230" y="653" on="0"/>
        <pt x="218" y="578" on="1"/>
        <pt x="207" y="537" on="1"/>
        <pt x="297" y="537" on="1"/>
        <pt x="288" y="483" on="1"/>
        <pt x="197" y="483" on="1"/>
        <pt x="197" y="453" on="1"/>
        <pt x="125" y="0" on="1"/>
        <pt x="108" y="-96" on="0"/>
        <pt x="84" y="-136" on="0"/>
        <pt x="54" y="-171" on="0"/>
        <pt x="36" y="-180" on="1"/>
        <pt x="-9" y="-200" on="0"/>
        <pt x="-72" y="-200" on="1"/>
        <pt x="-65" y="-156" on="1"/>
        <pt x="-26" y="-156" on="0"/>
        <pt x="21" y="-139" on="0"/>
        <pt x="49" y="-93" on="0"/>
        <pt x="61" y="-46" on="0"/>
        <pt x="68" y="0" on="1"/>
        <pt x="138" y="453" on="1"/>
        <pt x="148" y="483" on="1"/>
        <pt x="94" y="483" on="1"/>
        <pt x="103" y="537" on="1"/>
      </contour>
    </TTGlyph>
    <TTGlyph name="f_f_i" xMin="-72" yMin="-200" xMax="623" yMax="731">
      <contour>
        <pt x="197" y="483" on="1"/>
        <pt x="197" y="453" on="1"/>
        <pt x="125" y="0" on="1"/>
        <pt x="108" y="-96" on="0"/>
        <pt x="84" y="-136" on="0"/>
        <pt x="54" y="-171" on="0"/>
        <pt x="36" y="-180" on="1"/>
        <pt x="-9" y="-200" on="0"/>
        <pt x="-72" y="-200" on="1"/>
        <pt x="-65" y="-156" on="1"/>
        <pt x="-26" y="-156" on="0"/>
        <pt x="21" y="-139" on="0"/>
        <pt x="49" y="-93" on="0"/>
        <pt x="61" y="-46" on="0"/>
        <pt x="68" y="0" on="1"/>
        <pt x="138" y="453" on="1"/>
        <pt x="148" y="483" on="1"/>
        <pt x="94" y="483" on="1"/>
        <pt x="103" y="537" on="1"/>
        <pt x="156" y="537" on="1"/>
        <pt x="156" y="567" on="1"/>
        <pt x="158" y="578" on="1"/>
        <pt x="173" y="672" on="0"/>
        <pt x="190" y="689" on="1"/>
        <pt x="217" y="718" on="0"/>
        <pt x="240" y="722" on="1"/>
        <pt x="291" y="731" on="0"/>
        <pt x="351" y="731" on="1"/>
        <pt x="344" y="684" on="1"/>
        <pt x="266" y="684" on="0"/>
        <pt x="230" y="653" on="0"/>
        <pt x="218" y="578" on="1"/>
        <pt x="207" y="537" on="1"/>
        <pt x="346" y="537" on="1"/>
        <pt x="346" y="567" on="1"/>
        <pt x="348" y="578" on="1"/>
        <pt x="363" y="672" on="0"/>
        <pt x="380" y="689" on="1"/>
        <pt x="407" y="718" on="0"/>
        <pt x="430" y="722" on="1"/>
        <pt x="481" y="731" on="0"/>
        <pt x="541" y="731" on="1"/>
        <pt x="623" y="731" on="1"/>
        <pt x="615" y="684" on="1"/>
        <pt x="534" y="684" on="1"/>
        <pt x="456" y="684" on="0"/>
        <pt x="420" y="653" on="0"/>
        <pt x="408" y="578" on="1"/>
        <pt x="397" y="537" on="1"/>
        <pt x="487" y="537" on="1"/>
        <pt x="478" y="483" on="1"/>
        <pt x="387" y="483" on="1"/>
        <pt x="387" y="453" on="1"/>
        <pt x="315" y="0" on="1"/>
        <pt x="298" y="-96" on="0"/>
        <pt x="274" y="-136" on="0"/>
        <pt x="244" y="-171" on="0"/>
        <pt x="226" y="-180" on="1"/>
        <pt x="181" y="-200" on="0"/>
        <pt x="118" y="-200" on="1"/>
        <pt x="125" y="-156" on="1"/>
        <pt x="164" y="-156" on="0"/>
        <pt x="211" y="-139" on="0"/>
        <pt x="239" y="-93" on="0"/>
        <pt x="251" y="-46" on="0"/>
        <pt x="258" y="0" on="1"/>
        <pt x="328" y="453" on="1"/>
        <pt x="338" y="483" on="1"/>
      </contour>
      <contour>
        <pt x="446" y="4" on="1"/>
        <pt x="444" y="8" on="0"/>
        <pt x="444" y="24" on="0"/>
        <pt x="526" y="537" on="1"/>
        <pt x="561" y="537" on="0"/>
        <pt x="581" y="532" on="0"/>
        <pt x="581" y="515" on="0"/>
        <pt x="577" y="491" on="1"/>
        <pt x="499" y="-4" on="1"/>
        <pt x="450" y="-4" on="0"/>
      </contour>
    </TTGlyph>
    <TTGlyph name="f_f_l" xMin="-72" yMin="-200" xMax="627" yMax="731">
      <contour>
        <pt x="197" y="483" on="1"/>
        <pt x="197" y="453" on="1"/>
        <pt x="125" y="0" on="1"/>
        <pt x="108" y="-96" on="0"/>
        <pt x="84" y="-136" on="0"/>
        <pt x="54" y="-171" on="0"/>
        <pt x="36" y="-180" on="1"/>
        <pt x="-9" y="-200" on="0"/>
        <pt x="-72" y="-200" on="1"/>
        <pt x="-65" y="-156" on="1"/>
        <pt x="-26" y="-156" on="0"/>
        <pt x="21" y="-139" on="0"/>
        <pt x="49" y="-93" on="0"/>
        <pt x="61" y="-46" on="0"/>
        <pt x="68" y="0" on="1"/>
        <pt x="138" y="453" on="1"/>
        <pt x="148" y="483" on="1"/>
        <pt x="94" y="483" on="1"/>
        <pt x="103" y="537" on="1"/>
        <pt x="156" y="537" on="1"/>
        <pt x="156" y="567" on="1"/>
        <pt x="158" y="578" on="1"/>
        <pt x="173" y="672" on="0"/>
        <pt x="190" y="689" on="1"/>
        <pt x="217" y="718" on="0"/>
        <pt x="240" y="722" on="1"/>
        <pt x="291" y="731" on="0"/>
        <pt x="351" y="731" on="1"/>
        <pt x="344" y="684" on="1"/>
        <pt x="266" y="684" on="0"/>
        <pt x="230" y="653" on="0"/>
        <pt x="218" y="578" on="1"/>
        <pt x="207" y="537" on="1"/>
        <pt x="344" y="537" on="1"/>
        <pt x="344" y="567" on="1"/>
        <pt x="346" y="578" on="1"/>
        <pt x="361" y="672" on="0"/>
        <pt x="378" y="689" on="1"/>
        <pt x="405" y="718" on="0"/>
        <pt x="428" y="722" on="1"/>
        <pt x="479" y="731" on="0"/>
        <pt x="539" y="731" on="1"/>
        <pt x="572" y="731" on="1"/>
        <pt x="621" y="731" on="0"/>
        <pt x="625" y="723" on="1"/>
        <pt x="627" y="719" on="0"/>
        <pt x="627" y="703" on="0"/>
        <pt x="515" y="-4" on="1"/>
        <pt x="466" y="-4" on="0"/>
        <pt x="462" y="4" on="1"/>
        <pt x="460" y="8" on="0"/>
        <pt x="460" y="24" on="0"/>
        <pt x="564" y="684" on="1"/>
        <pt x="531" y="684" on="1"/>
        <pt x="454" y="684" on="0"/>
        <pt x="418" y="653" on="0"/>
        <pt x="406" y="578" on="1"/>
        <pt x="395" y="537" on="1"/>
        <pt x="485" y="537" on="1"/>
        <pt x="476" y="483" on="1"/>
        <pt x="385" y="483" on="1"/>
        <pt x="385" y="453" on="1"/>
        <pt x="313" y="0" on="1"/>
        <pt x="296" y="-96" on="0"/>
        <pt x="272" y="-136" on="0"/>
        <pt x="242" y="-171" on="0"/>
        <pt x="224" y="-180" on="1"/>
        <pt x="179" y="-200" on="0"/>
        <pt x="116" y="-200" on="1"/>
        <pt x="123" y="-156" on="1"/>
        <pt x="162" y="-156" on="0"/>
        <pt x="209" y="-139" on="0"/>
        <pt x="237" y="-93" on="0"/>
        <pt x="249" y="-46" on="0"/>
        <pt x="256" y="0" on="1"/>
        <pt x="326" y="453" on="1"/>
        <pt x="336" y="483" on="1"/>
      </contour>
    </TTGlyph>
    <TTGlyph name="f_t" xMin="-72" yMin="-200" xMax="463" yMax="732">
      <contour>
        <pt x="283" y="-5" on="0"/>
        <pt x="248" y="29" on="0"/>
        <pt x="248" y="107" on="0"/>
        <pt x="338" y="684" on="1"/>
        <pt x="263" y="684" on="0"/>
        <pt x="230" y="654" on="0"/>
        <pt x="218" y="578" on="1"/>
        <pt x="125" y="0" on="1"/>
        <pt x="108" y="-96" on="0"/>
        <pt x="84" y="-136" on="0"/>
        <pt x="54" y="-171" on="0"/>
        <pt x="36" y="-180" on="1"/>
        <pt x="-9" y="-200" on="0"/>
        <pt x="-72" y="-200" on="1"/>
        <pt x="-65" y="-156" on="1"/>
        <pt x="-26" y="-156" on="0"/>
        <pt x="21" y="-139" on="0"/>
        <pt x="49" y="-93" on="0"/>
        <pt x="61" y="-46" on="0"/>
        <pt x="68" y="0" on="1"/>
        <pt x="138" y="453" on="1"/>
        <pt x="148" y="483" on="1"/>
        <pt x="94" y="483" on="1"/>
        <pt x="103" y="537" on="1"/>
        <pt x="156" y="537" on="1"/>
        <pt x="156" y="567" on="1"/>
        <pt x="158" y="578" on="1"/>
        <pt x="175" y="683" on="0"/>
        <pt x="198" y="700" on="1"/>
        <pt x="230" y="725" on="0"/>
        <pt x="304" y="732" on="0"/>
        <pt x="365" y="732" on="0"/>
        <pt x="381" y="731" on="0"/>
        <pt x="388" y="730" on="1"/>
        <pt x="400" y="727" on="0"/>
        <pt x="400" y="704" on="0"/>
        <pt x="371" y="537" on="1"/>
        <pt x="463" y="537" on="1"/>
        <pt x="457" y="500" on="0"/>
        <pt x="441" y="483" on="0"/>
        <pt x="406" y="483" on="1"/>
        <pt x="362" y="483" on="1"/>
        <pt x="362" y="458" on="1"/>
        <pt x="307" y="106" on="0"/>
        <pt x="308" y="88" on="1"/>
        <pt x="308" y="46" on="0"/>
        <pt x="337" y="46" on="1"/>
        <pt x="405" y="46" on="1"/>
        <pt x="398" y="0" on="1"/>
        <pt x="328" y="-5" on="1"/>
      </contour>
    </TTGlyph>
    <TTGlyph name="f_u" xMin="-72" yMin="-200" xMax="567" yMax="731">
      <contour>
        <pt x="278" y="-7" on="0"/>
        <pt x="232" y="40" on="0"/>
        <pt x="232" y="140" on="0"/>
        <pt x="253" y="271" on="1"/>
        <pt x="287" y="483" on="1"/>
        <pt x="197" y="483" on="1"/>
        <pt x="197" y="453" on="1"/>
        <pt x="125" y="0" on="1"/>
        <pt x="108" y="-96" on="0"/>
        <pt x="84" y="-136" on="0"/>
        <pt x="54" y="-171" on="0"/>
        <pt x="36" y="-180" on="1"/>
        <pt x="-9" y="-200" on="0"/>
        <pt x="-72" y="-200" on="1"/>
        <pt x="-65" y="-156" on="1"/>
        <pt x="-26" y="-156" on="0"/>
        <pt x="21" y="-139" on="0"/>
        <pt x="49" y="-93" on="0"/>
        <pt x="61" y="-46" on="0"/>
        <pt x="68" y="0" on="1"/>
        <pt x="138" y="453" on="1"/>
        <pt x="148" y="483" on="1"/>
        <pt x="94" y="483" on="1"/>
        <pt x="103" y="537" on="1"/>
        <pt x="156" y="537" on="1"/>
        <pt x="156" y="567" on="1"/>
        <pt x="158" y="578" on="1"/>
        <pt x="173" y="672" on="0"/>
        <pt x="190" y="689" on="1"/>
        <pt x="217" y="718" on="0"/>
        <pt x="240" y="722" on="1"/>
        <pt x="291" y="731" on="0"/>
        <pt x="351" y="731" on="1"/>
        <pt x="344" y="684" on="1"/>
        <pt x="266" y="684" on="0"/>
        <pt x="230" y="653" on="0"/>
        <pt x="218" y="578" on="1"/>
        <pt x="207" y="537" on="1"/>
        <pt x="297" y="537" on="1"/>
        <pt x="332" y="537" on="0"/>
        <pt x="351" y="532" on="0"/>
        <pt x="351" y="515" on="0"/>
        <pt x="347" y="491" on="1"/>
        <pt x="313" y="273" on="1"/>
        <pt x="294" y="148" on="0"/>
        <pt x="294" y="116" on="1"/>
        <pt x="294" y="46" on="0"/>
        <pt x="340" y="46" on="1"/>
        <pt x="448" y="111" on="1"/>
        <pt x="448" y="136" on="1"/>
        <pt x="512" y="537" on="1"/>
        <pt x="547" y="537" on="0"/>
        <pt x="567" y="532" on="0"/>
        <pt x="567" y="515" on="0"/>
        <pt x="563" y="491" on="1"/>
        <pt x="486" y="0" on="1"/>
        <pt x="450" y="0" on="0"/>
        <pt x="430" y="5" on="0"/>
        <pt x="430" y="17" on="1"/>
        <pt x="436" y="59" on="1"/>
        <pt x="335" y="-7" on="1"/>
      </contour>
    </TTGlyph>
    <TTGlyph name="fi" xMin="50" yMin="-200" xMax="456" yMax="732">
      <contour>
        <pt x="172" y="537" on="1"/>
        <pt x="172" y="562" on="1"/>
        <pt x="174" y="578" on="1"/>
        <pt x="181" y="622" on="0"/>
        <pt x="187" y="657" on="0"/>
        <pt x="206" y="703" on="0"/>
        <pt x="222" y="715" on="0"/>
        <pt x="265" y="731" on="0"/>
        <pt x="312" y="732" on="0"/>
        <pt x="355" y="732" on="1"/>
        <pt x="456" y="732" on="1"/>
        <pt x="449" y="682" on="1"/>
        <pt x="378" y="682" on="0"/>
        <pt x="295" y="682" on="0"/>
        <pt x="264" y="673" on="0"/>
        <pt x="257" y="666" on="0"/>
        <pt x="243" y="635" on="0"/>
        <pt x="239" y="610" on="0"/>
        <pt x="234" y="578" on="1"/>
        <pt x="232" y="562" on="1"/>
        <pt x="224" y="537" on="1"/>
        <pt x="376" y="537" on="1"/>
        <pt x="403" y="537" on="0"/>
        <pt x="421" y="530" on="0"/>
        <pt x="421" y="509" on="0"/>
        <pt x="418" y="491" on="1"/>
        <pt x="341" y="0" on="1"/>
        <pt x="292" y="0" on="0"/>
        <pt x="288" y="8" on="1"/>
        <pt x="286" y="12" on="0"/>
        <pt x="286" y="28" on="0"/>
        <pt x="289" y="46" on="1"/>
        <pt x="358" y="483" on="1"/>
        <pt x="214" y="483" on="1"/>
        <pt x="214" y="458" on="1"/>
        <pt x="119" y="-143" on="1"/>
        <pt x="112" y="-186" on="0"/>
        <pt x="94" y="-200" on="0"/>
        <pt x="50" y="-200" on="1"/>
        <pt x="155" y="458" on="1"/>
        <pt x="163" y="483" on="1"/>
        <pt x="110" y="483" on="1"/>
        <pt x="119" y="537" on="1"/>
      </contour>
    </TTGlyph>
    <TTGlyph name="five" xMin="60" yMin="-12" xMax="414" yMax="720">
      <contour>
        <pt x="171" y="46" on="1"/>
        <pt x="205" y="46" on="0"/>
        <pt x="258" y="110" on="0"/>
        <pt x="272" y="161" on="1"/>
        <pt x="301" y="261" on="0"/>
        <pt x="301" y="372" on="1"/>
        <pt x="301" y="407" on="0"/>
        <pt x="271" y="431" on="0"/>
        <pt x="232" y="431" on="1"/>
        <pt x="129" y="431" on="1"/>
        <pt x="175" y="720" on="1"/>
        <pt x="414" y="720" on="1"/>
        <pt x="405" y="667" on="1"/>
        <pt x="225" y="667" on="1"/>
        <pt x="225" y="642" on="1"/>
        <pt x="204" y="509" on="1"/>
        <pt x="196" y="484" on="1"/>
        <pt x="272" y="484" on="1"/>
        <pt x="325" y="484" on="0"/>
        <pt x="366" y="444" on="0"/>
        <pt x="366" y="340" on="0"/>
        <pt x="352" y="215" on="0"/>
        <pt x="320" y="77" on="0"/>
        <pt x="254" y="-12" on="0"/>
        <pt x="173" y="-12" on="0"/>
        <pt x="60" y="0" on="1"/>
        <pt x="67" y="46" on="1"/>
      </contour>
    </TTGlyph>
    <TTGlyph name="fl" xMin="49" yMin="-200" xMax="451" yMax="732">
      <contour>
        <pt x="171" y="537" on="1"/>
        <pt x="171" y="562" on="1"/>
        <pt x="173" y="578" on="1"/>
        <pt x="180" y="622" on="0"/>
        <pt x="186" y="657" on="0"/>
        <pt x="205" y="703" on="0"/>
        <pt x="221" y="715" on="0"/>
        <pt x="264" y="731" on="0"/>
        <pt x="311" y="732" on="0"/>
        <pt x="354" y="732" on="1"/>
        <pt x="396" y="732" on="1"/>
        <pt x="445" y="732" on="0"/>
        <pt x="449" y="724" on="1"/>
        <pt x="451" y="720" on="0"/>
        <pt x="451" y="704" on="0"/>
        <pt x="448" y="686" on="1"/>
        <pt x="340" y="0" on="1"/>
        <pt x="291" y="0" on="0"/>
        <pt x="287" y="8" on="1"/>
        <pt x="285" y="12" on="0"/>
        <pt x="285" y="28" on="0"/>
        <pt x="288" y="46" on="1"/>
        <pt x="389" y="682" on="1"/>
        <pt x="347" y="682" on="0"/>
        <pt x="294" y="682" on="0"/>
        <pt x="263" y="673" on="0"/>
        <pt x="256" y="666" on="0"/>
        <pt x="242" y="635" on="0"/>
        <pt x="238" y="610" on="0"/>
        <pt x="233" y="578" on="1"/>
        <pt x="231" y="562" on="1"/>
        <pt x="223" y="537" on="1"/>
        <pt x="292" y="537" on="1"/>
        <pt x="283" y="483" on="1"/>
        <pt x="213" y="483" on="1"/>
        <pt x="213" y="458" on="1"/>
        <pt x="118" y="-143" on="1"/>
        <pt x="111" y="-186" on="0"/>
        <pt x="93" y="-200" on="0"/>
        <pt x="49" y="-200" on="1"/>
        <pt x="154" y="458" on="1"/>
        <pt x="162" y="483" on="1"/>
        <pt x="109" y="483" on="1"/>
        <pt x="118" y="537" on="1"/>
      </contour>
    </TTGlyph>
    <TTGlyph name="florin" xMin="98" yMin="-110" xMax="356" yMax="540">
      <contour>
        <pt x="168" y="341" on="1"/>
        <pt x="168" y="366" on="1"/>
        <pt x="171" y="382" on="1"/>
        <pt x="188" y="474" on="0"/>
        <pt x="199" y="496" on="1"/>
        <pt x="220" y="540" on="0"/>
        <pt x="271" y="540" on="1"/>
        <pt x="356" y="537" on="1"/>
        <pt x="351" y="506" on="0"/>
        <pt x="337" y="496" on="0"/>
        <pt x="299" y="494" on="1"/>
        <pt x="271" y="493" on="1"/>
        <pt x="247" y="492" on="0"/>
        <pt x="231" y="382" on="1"/>
        <pt x="221" y="341" on="1"/>
        <pt x="320" y="341" on="1"/>
        <pt x="311" y="287" on="1"/>
        <pt x="211" y="287" on="1"/>
        <pt x="211" y="262" on="1"/>
        <pt x="152" y="-110" on="1"/>
        <pt x="130" y="-110" on="0"/>
        <pt x="121" y="-109" on="1"/>
        <pt x="98" y="-106" on="0"/>
        <pt x="98" y="-80" on="1"/>
        <pt x="98" y="-76" on="0"/>
        <pt x="100" y="-58" on="1"/>
        <pt x="152" y="262" on="1"/>
        <pt x="160" y="287" on="1"/>
        <pt x="107" y="287" on="1"/>
        <pt x="116" y="341" on="1"/>
      </contour>
    </TTGlyph>
    <TTGlyph name="four" xMin="10" yMin="0" xMax="359" yMax="720">
      <contour>
        <pt x="243" y="0" on="1"/>
        <pt x="195" y="0" on="0"/>
        <pt x="191" y="8" on="1"/>
        <pt x="189" y="12" on="0"/>
        <pt x="189" y="28" on="0"/>
        <pt x="192" y="46" on="1"/>
        <pt x="220" y="223" on="1"/>
        <pt x="228" y="248" on="1"/>
        <pt x="10" y="248" on="1"/>
        <pt x="285" y="720" on="1"/>
        <pt x="359" y="720" on="1"/>
        <pt x="296" y="325" on="1"/>
        <pt x="288" y="300" on="1"/>
        <pt x="332" y="300" on="1"/>
        <pt x="324" y="248" on="1"/>
        <pt x="280" y="248" on="1"/>
        <pt x="280" y="223" on="1"/>
        <pt x="245" y="0" on="1"/>
      </contour>
      <contour>
        <pt x="236" y="300" on="1"/>
        <pt x="236" y="325" on="1"/>
        <pt x="283" y="620" on="1"/>
        <pt x="275" y="620" on="1"/>
        <pt x="110" y="300" on="1"/>
      </contour>
    </TTGlyph>
    <TTGlyph name="fraction" xMin="5" yMin="0" xMax="482" yMax="732">
      <contour>
        <pt x="73" y="0" on="1"/>
        <pt x="5" y="0" on="1"/>
        <pt x="414" y="732" on="1"/>
        <pt x="482" y="732" on="1"/>
      </contour>
    </TTGlyph>
    <TTGlyph name="g" xMin="62" yMin="-200" xMax="402" yMax="548">
      <contour>
        <pt x="153" y="-200" on="1"/>
        <pt x="108" y="-200" on="1"/>
        <pt x="78" y="-200" on="0"/>
        <pt x="62" y="-195" on="0"/>
        <pt x="62" y="-182" on="1"/>
        <pt x="65" y="-153" on="1"/>
        <pt x="161" y="-146" on="1"/>
        <pt x="216" y="-146" on="0"/>
        <pt x="243" y="-117" on="0"/>
        <pt x="253" y="-57" on="1"/>
        <pt x="254" y="-53" on="0"/>
        <pt x="254" y="-47" on="0"/>
        <pt x="255" y="-44" on="1"/>
        <pt x="269" y="39" on="1"/>
        <pt x="185" y="-7" on="1"/>
        <pt x="121" y="-7" on="0"/>
        <pt x="70" y="45" on="0"/>
        <pt x="70" y="150" on="0"/>
        <pt x="79" y="256" on="0"/>
        <pt x="104" y="381" on="0"/>
        <pt x="141" y="481" on="0"/>
        <pt x="202" y="548" on="0"/>
        <pt x="240" y="548" on="1"/>
        <pt x="348" y="537" on="1"/>
        <pt x="382" y="537" on="0"/>
        <pt x="402" y="532" on="0"/>
        <pt x="402" y="516" on="0"/>
        <pt x="310" y="-68" on="1"/>
        <pt x="298" y="-144" on="0"/>
        <pt x="239" y="-200" on="0"/>
      </contour>
      <contour>
        <pt x="154" y="341" on="0"/>
        <pt x="131" y="182" on="0"/>
        <pt x="131" y="85" on="0"/>
        <pt x="161" y="46" on="0"/>
        <pt x="196" y="46" on="1"/>
        <pt x="282" y="91" on="1"/>
        <pt x="280" y="116" on="1"/>
        <pt x="335" y="466" on="1"/>
        <pt x="344" y="491" on="1"/>
        <pt x="251" y="493" on="1"/>
        <pt x="213" y="493" on="0"/>
      </contour>
    </TTGlyph>
    <TTGlyph name="germandbls" xMin="59" yMin="-7" xMax="507" yMax="731">
      <contour>
        <pt x="499" y="664" on="1"/>
        <pt x="498" y="654" on="1"/>
        <pt x="488" y="591" on="0"/>
        <pt x="472" y="523" on="0"/>
        <pt x="446" y="492" on="0"/>
        <pt x="425" y="486" on="0"/>
        <pt x="400" y="486" on="1"/>
        <pt x="345" y="486" on="0"/>
        <pt x="345" y="400" on="1"/>
        <pt x="345" y="378" on="0"/>
        <pt x="396" y="322" on="0"/>
        <pt x="456" y="276" on="0"/>
        <pt x="507" y="205" on="0"/>
        <pt x="507" y="169" on="1"/>
        <pt x="507" y="158" on="0"/>
        <pt x="502" y="129" on="0"/>
        <pt x="498" y="105" on="0"/>
        <pt x="486" y="66" on="0"/>
        <pt x="473" y="44" on="0"/>
        <pt x="449" y="17" on="0"/>
        <pt x="434" y="10" on="1"/>
        <pt x="396" y="-7" on="0"/>
        <pt x="345" y="-7" on="1"/>
        <pt x="223" y="0" on="1"/>
        <pt x="231" y="53" on="1"/>
        <pt x="356" y="53" on="1"/>
        <pt x="404" y="53" on="0"/>
        <pt x="419" y="82" on="1"/>
        <pt x="430" y="104" on="0"/>
        <pt x="437" y="149" on="1"/>
        <pt x="439" y="160" on="1"/>
        <pt x="439" y="167" on="1"/>
        <pt x="439" y="188" on="0"/>
        <pt x="391" y="243" on="0"/>
        <pt x="332" y="289" on="0"/>
        <pt x="284" y="356" on="0"/>
        <pt x="284" y="389" on="1"/>
        <pt x="284" y="449" on="0"/>
        <pt x="338" y="540" on="0"/>
        <pt x="398" y="540" on="1"/>
        <pt x="408" y="540" on="0"/>
        <pt x="413" y="544" on="1"/>
        <pt x="425" y="552" on="0"/>
        <pt x="440" y="641" on="1"/>
        <pt x="440" y="647" on="1"/>
        <pt x="440" y="679" on="0"/>
        <pt x="372" y="679" on="1"/>
        <pt x="325" y="679" on="1"/>
        <pt x="253" y="679" on="0"/>
        <pt x="225" y="654" on="0"/>
        <pt x="213" y="577" on="1"/>
        <pt x="130" y="58" on="1"/>
        <pt x="123" y="15" on="0"/>
        <pt x="104" y="0" on="0"/>
        <pt x="59" y="0" on="1"/>
        <pt x="151" y="577" on="1"/>
        <pt x="156" y="606" on="0"/>
        <pt x="159" y="627" on="0"/>
        <pt x="168" y="668" on="0"/>
        <pt x="173" y="679" on="0"/>
        <pt x="186" y="705" on="0"/>
        <pt x="196" y="710" on="0"/>
        <pt x="218" y="725" on="0"/>
        <pt x="228" y="725" on="1"/>
        <pt x="290" y="731" on="1"/>
        <pt x="386" y="731" on="1"/>
        <pt x="456" y="731" on="0"/>
        <pt x="487" y="696" on="1"/>
        <pt x="499" y="683" on="0"/>
      </contour>
    </TTGlyph>
    <TTGlyph name="grave" xMin="120" yMin="587" xMax="257" yMax="732">
      <contour>
        <pt x="128" y="708" on="1"/>
        <pt x="155" y="732" on="0"/>
        <pt x="174" y="732" on="0"/>
        <pt x="201" y="699" on="1"/>
        <pt x="257" y="623" on="1"/>
        <pt x="216" y="587" on="1"/>
        <pt x="120" y="701" on="1"/>
      </contour>
    </TTGlyph>
    <TTGlyph name="greater" xMin="47" yMin="57" xMax="275" yMax="537">
      <contour>
        <pt x="102" y="57" on="1"/>
        <pt x="47" y="57" on="1"/>
        <pt x="224" y="301" on="1"/>
        <pt x="124" y="537" on="1"/>
        <pt x="178" y="537" on="1"/>
        <pt x="275" y="314" on="1"/>
        <pt x="271" y="288" on="1"/>
      </contour>
    </TTGlyph>
    <TTGlyph name="guillemotleft" xMin="80" yMin="135" xMax="347" yMax="470">
      <contour>
        <pt x="181" y="135" on="1"/>
        <pt x="126" y="135" on="1"/>
        <pt x="80" y="289" on="1"/>
        <pt x="84" y="315" on="1"/>
        <pt x="180" y="470" on="1"/>
        <pt x="234" y="470" on="1"/>
        <pt x="131" y="302" on="1"/>
      </contour>
      <contour>
        <pt x="294" y="135" on="1"/>
        <pt x="239" y="135" on="1"/>
        <pt x="193" y="289" on="1"/>
        <pt x="197" y="315" on="1"/>
        <pt x="293" y="470" on="1"/>
        <pt x="347" y="470" on="1"/>
        <pt x="244" y="302" on="1"/>
      </contour>
    </TTGlyph>
    <TTGlyph name="guillemotright" xMin="71" yMin="135" xMax="337" yMax="470">
      <contour>
        <pt x="239" y="135" on="1"/>
        <pt x="184" y="135" on="1"/>
        <pt x="286" y="302" on="1"/>
        <pt x="237" y="470" on="1"/>
        <pt x="291" y="470" on="1"/>
        <pt x="337" y="315" on="1"/>
        <pt x="333" y="289" on="1"/>
      </contour>
      <contour>
        <pt x="126" y="135" on="1"/>
        <pt x="71" y="135" on="1"/>
        <pt x="173" y="302" on="1"/>
        <pt x="124" y="470" on="1"/>
        <pt x="178" y="470" on="1"/>
        <pt x="224" y="315" on="1"/>
        <pt x="220" y="289" on="1"/>
      </contour>
    </TTGlyph>
    <TTGlyph name="guilsinglleft" xMin="63" yMin="135" xMax="217" yMax="470">
      <contour>
        <pt x="164" y="135" on="1"/>
        <pt x="109" y="135" on="1"/>
        <pt x="63" y="289" on="1"/>
        <pt x="67" y="315" on="1"/>
        <pt x="163" y="470" on="1"/>
        <pt x="217" y="470" on="1"/>
        <pt x="114" y="302" on="1"/>
      </contour>
    </TTGlyph>
    <TTGlyph name="guilsinglright" xMin="63" yMin="135" xMax="216" yMax="470">
      <contour>
        <pt x="118" y="135" on="1"/>
        <pt x="63" y="135" on="1"/>
        <pt x="165" y="302" on="1"/>
        <pt x="116" y="470" on="1"/>
        <pt x="170" y="470" on="1"/>
        <pt x="216" y="315" on="1"/>
        <pt x="212" y="289" on="1"/>
      </contour>
    </TTGlyph>
    <TTGlyph name="h" xMin="65" yMin="0" xMax="403" yMax="732">
      <contour>
        <pt x="232" y="724" on="1"/>
        <pt x="234" y="720" on="0"/>
        <pt x="234" y="704" on="0"/>
        <pt x="209" y="544" on="1"/>
        <pt x="304" y="544" on="1"/>
        <pt x="359" y="544" on="0"/>
        <pt x="403" y="497" on="0"/>
        <pt x="403" y="399" on="0"/>
        <pt x="340" y="0" on="1"/>
        <pt x="291" y="0" on="0"/>
        <pt x="287" y="8" on="1"/>
        <pt x="285" y="12" on="0"/>
        <pt x="285" y="19" on="1"/>
        <pt x="341" y="382" on="0"/>
        <pt x="341" y="455" on="0"/>
        <pt x="321" y="491" on="0"/>
        <pt x="295" y="491" on="1"/>
        <pt x="198" y="491" on="1"/>
        <pt x="198" y="466" on="1"/>
        <pt x="131" y="46" on="1"/>
        <pt x="126" y="12" on="0"/>
        <pt x="109" y="0" on="0"/>
        <pt x="65" y="0" on="1"/>
        <pt x="180" y="732" on="1"/>
        <pt x="228" y="732" on="0"/>
      </contour>
    </TTGlyph>
    <TTGlyph name="hungarumlaut" xMin="130" yMin="587" xMax="464" yMax="732">
      <contour>
        <pt x="293" y="701" on="1"/>
        <pt x="159" y="587" on="1"/>
        <pt x="130" y="623" on="1"/>
        <pt x="210" y="699" on="1"/>
        <pt x="249" y="732" on="0"/>
        <pt x="266" y="732" on="0"/>
      </contour>
      <contour>
        <pt x="464" y="701" on="1"/>
        <pt x="330" y="587" on="1"/>
        <pt x="301" y="623" on="1"/>
        <pt x="381" y="699" on="1"/>
        <pt x="420" y="732" on="0"/>
        <pt x="437" y="732" on="0"/>
      </contour>
    </TTGlyph>
    <TTGlyph name="hyphen" xMin="107" yMin="300" xMax="329" yMax="351">
      <contour>
        <pt x="321" y="300" on="1"/>
        <pt x="107" y="300" on="1"/>
        <pt x="115" y="351" on="1"/>
        <pt x="329" y="351" on="1"/>
      </contour>
    </TTGlyph>
    <TTGlyph name="i" xMin="61" yMin="-4" xMax="234" yMax="720">
      <contour>
        <pt x="186" y="629" on="1"/>
        <pt x="152" y="629" on="0"/>
        <pt x="152" y="668" on="1"/>
        <pt x="152" y="688" on="0"/>
        <pt x="180" y="720" on="0"/>
        <pt x="201" y="720" on="1"/>
        <pt x="234" y="720" on="0"/>
        <pt x="234" y="682" on="1"/>
        <pt x="234" y="661" on="0"/>
        <pt x="206" y="629" on="0"/>
      </contour>
      <contour>
        <pt x="63" y="4" on="1"/>
        <pt x="61" y="8" on="0"/>
        <pt x="61" y="24" on="0"/>
        <pt x="143" y="537" on="1"/>
        <pt x="178" y="537" on="0"/>
        <pt x="198" y="532" on="0"/>
        <pt x="198" y="515" on="0"/>
        <pt x="194" y="491" on="1"/>
        <pt x="116" y="-4" on="1"/>
        <pt x="67" y="-4" on="0"/>
      </contour>
    </TTGlyph>
    <TTGlyph name="iacute" xMin="78" yMin="-4" xMax="322" yMax="740">
      <contour>
        <pt x="195" y="537" on="0"/>
        <pt x="215" y="532" on="0"/>
        <pt x="215" y="515" on="0"/>
        <pt x="211" y="491" on="1"/>
        <pt x="133" y="-4" on="1"/>
        <pt x="84" y="-4" on="0"/>
        <pt x="80" y="4" on="1"/>
        <pt x="78" y="8" on="0"/>
        <pt x="78" y="24" on="0"/>
        <pt x="81" y="42" on="1"/>
        <pt x="160" y="537" on="1"/>
      </contour>
      <contour>
        <pt x="322" y="709" on="1"/>
        <pt x="188" y="595" on="1"/>
        <pt x="159" y="631" on="1"/>
        <pt x="239" y="707" on="1"/>
        <pt x="278" y="740" on="0"/>
        <pt x="295" y="740" on="0"/>
      </contour>
    </TTGlyph>
    <TTGlyph name="icircumflex" xMin="93" yMin="-4" xMax="348" yMax="740">
      <contour>
        <pt x="210" y="537" on="0"/>
        <pt x="230" y="532" on="0"/>
        <pt x="230" y="515" on="0"/>
        <pt x="226" y="491" on="1"/>
        <pt x="148" y="-4" on="1"/>
        <pt x="99" y="-4" on="0"/>
        <pt x="95" y="4" on="1"/>
        <pt x="93" y="8" on="0"/>
        <pt x="93" y="24" on="0"/>
        <pt x="96" y="42" on="1"/>
        <pt x="175" y="537" on="1"/>
      </contour>
      <contour>
        <pt x="339" y="625" on="1"/>
        <pt x="232" y="691" on="1"/>
        <pt x="104" y="625" on="1"/>
        <pt x="113" y="680" on="1"/>
        <pt x="226" y="740" on="1"/>
        <pt x="252" y="740" on="1"/>
        <pt x="348" y="679" on="1"/>
      </contour>
    </TTGlyph>
    <TTGlyph name="idieresis" xMin="111" yMin="-4" xMax="360" yMax="713">
      <contour>
        <pt x="228" y="537" on="0"/>
        <pt x="248" y="532" on="0"/>
        <pt x="248" y="515" on="0"/>
        <pt x="244" y="491" on="1"/>
        <pt x="166" y="-4" on="1"/>
        <pt x="117" y="-4" on="0"/>
        <pt x="113" y="4" on="1"/>
        <pt x="111" y="8" on="0"/>
        <pt x="111" y="24" on="0"/>
        <pt x="114" y="42" on="1"/>
        <pt x="193" y="537" on="1"/>
      </contour>
      <contour>
        <pt x="160" y="713" on="0"/>
        <pt x="196" y="713" on="0"/>
        <pt x="217" y="692" on="0"/>
        <pt x="217" y="654" on="0"/>
        <pt x="184" y="622" on="0"/>
        <pt x="147" y="622" on="0"/>
        <pt x="124" y="644" on="0"/>
        <pt x="124" y="655" on="1"/>
        <pt x="124" y="684" on="0"/>
      </contour>
      <contour>
        <pt x="303" y="713" on="0"/>
        <pt x="338" y="713" on="0"/>
        <pt x="360" y="692" on="0"/>
        <pt x="360" y="654" on="0"/>
        <pt x="327" y="622" on="0"/>
        <pt x="290" y="622" on="0"/>
        <pt x="267" y="644" on="0"/>
        <pt x="267" y="655" on="1"/>
        <pt x="267" y="684" on="0"/>
      </contour>
    </TTGlyph>
    <TTGlyph name="igrave" xMin="75" yMin="-4" xMax="256" yMax="742">
      <contour>
        <pt x="192" y="537" on="0"/>
        <pt x="212" y="532" on="0"/>
        <pt x="212" y="515" on="0"/>
        <pt x="208" y="491" on="1"/>
        <pt x="130" y="-4" on="1"/>
        <pt x="81" y="-4" on="0"/>
        <pt x="77" y="4" on="1"/>
        <pt x="75" y="8" on="0"/>
        <pt x="75" y="24" on="0"/>
        <pt x="78" y="42" on="1"/>
        <pt x="157" y="537" on="1"/>
      </contour>
      <contour>
        <pt x="127" y="718" on="1"/>
        <pt x="154" y="742" on="0"/>
        <pt x="173" y="742" on="0"/>
        <pt x="200" y="709" on="1"/>
        <pt x="256" y="633" on="1"/>
        <pt x="215" y="597" on="1"/>
        <pt x="119" y="711" on="1"/>
      </contour>
    </TTGlyph>
    <TTGlyph name="j" xMin="-80" yMin="-200" xMax="234" yMax="720">
      <contour>
        <pt x="234" y="661" on="0"/>
        <pt x="206" y="629" on="0"/>
        <pt x="188" y="629" on="1"/>
        <pt x="151" y="629" on="0"/>
        <pt x="151" y="668" on="1"/>
        <pt x="151" y="689" on="0"/>
        <pt x="180" y="720" on="0"/>
        <pt x="201" y="720" on="1"/>
        <pt x="234" y="720" on="0"/>
        <pt x="234" y="682" on="1"/>
      </contour>
      <contour>
        <pt x="179" y="537" on="0"/>
        <pt x="198" y="532" on="0"/>
        <pt x="198" y="517" on="0"/>
        <pt x="112" y="-33" on="0"/>
        <pt x="104" y="-70" on="0"/>
        <pt x="87" y="-125" on="0"/>
        <pt x="61" y="-155" on="0"/>
        <pt x="41" y="-170" on="1"/>
        <pt x="3" y="-200" on="0"/>
        <pt x="-80" y="-200" on="1"/>
        <pt x="-73" y="-156" on="1"/>
        <pt x="-34" y="-156" on="0"/>
        <pt x="13" y="-139" on="0"/>
        <pt x="41" y="-92" on="0"/>
        <pt x="52" y="-47" on="0"/>
        <pt x="60" y="0" on="1"/>
        <pt x="145" y="537" on="1"/>
      </contour>
    </TTGlyph>
    <TTGlyph name="k" xMin="69" yMin="0" xMax="413" yMax="732">
      <contour>
        <pt x="71" y="8" on="1"/>
        <pt x="69" y="12" on="0"/>
        <pt x="69" y="28" on="0"/>
        <pt x="180" y="732" on="1"/>
        <pt x="229" y="732" on="0"/>
        <pt x="233" y="724" on="1"/>
        <pt x="235" y="720" on="0"/>
        <pt x="235" y="704" on="0"/>
        <pt x="124" y="0" on="1"/>
        <pt x="75" y="0" on="0"/>
      </contour>
      <contour>
        <pt x="346" y="0" on="1"/>
        <pt x="281" y="0" on="1"/>
        <pt x="193" y="293" on="1"/>
        <pt x="352" y="537" on="1"/>
        <pt x="413" y="537" on="1"/>
        <pt x="253" y="293" on="1"/>
      </contour>
    </TTGlyph>
    <TTGlyph name="l" xMin="63" yMin="-4" xMax="230" yMax="732">
      <contour>
        <pt x="65" y="4" on="1"/>
        <pt x="63" y="8" on="0"/>
        <pt x="63" y="24" on="0"/>
        <pt x="175" y="732" on="1"/>
        <pt x="224" y="732" on="0"/>
        <pt x="228" y="724" on="1"/>
        <pt x="230" y="720" on="0"/>
        <pt x="230" y="703" on="0"/>
        <pt x="118" y="-4" on="1"/>
        <pt x="69" y="-4" on="0"/>
      </contour>
    </TTGlyph>
    <TTGlyph name="less" xMin="55" yMin="57" xMax="282" yMax="537">
      <contour>
        <pt x="207" y="57" on="1"/>
        <pt x="152" y="57" on="1"/>
        <pt x="55" y="288" on="1"/>
        <pt x="59" y="314" on="1"/>
        <pt x="228" y="537" on="1"/>
        <pt x="282" y="537" on="1"/>
        <pt x="106" y="301" on="1"/>
      </contour>
    </TTGlyph>
    <TTGlyph name="logicalnot" xMin="76" yMin="222" xMax="351" yMax="355">
      <contour>
        <pt x="284" y="222" on="1"/>
        <pt x="296" y="302" on="1"/>
        <pt x="76" y="302" on="1"/>
        <pt x="85" y="355" on="1"/>
        <pt x="351" y="355" on="1"/>
        <pt x="338" y="275" on="1"/>
        <pt x="331" y="235" on="0"/>
        <pt x="318" y="222" on="0"/>
      </contour>
    </TTGlyph>
    <TTGlyph name="lslash" xMin="53" yMin="-4" xMax="334" yMax="732">
      <contour>
        <pt x="118" y="4" on="1"/>
        <pt x="116" y="8" on="0"/>
        <pt x="116" y="24" on="0"/>
        <pt x="228" y="732" on="1"/>
        <pt x="277" y="732" on="0"/>
        <pt x="281" y="724" on="1"/>
        <pt x="283" y="720" on="0"/>
        <pt x="283" y="703" on="0"/>
        <pt x="171" y="-4" on="1"/>
        <pt x="122" y="-4" on="0"/>
      </contour>
      <contour>
        <pt x="326" y="300" on="1"/>
        <pt x="53" y="300" on="1"/>
        <pt x="61" y="351" on="1"/>
        <pt x="334" y="351" on="1"/>
      </contour>
    </TTGlyph>
    <TTGlyph name="m" xMin="44" yMin="0" xMax="594" yMax="544">
      <contour>
        <pt x="181" y="523" on="1"/>
        <pt x="181" y="521" on="0"/>
        <pt x="180" y="514" on="1"/>
        <pt x="175" y="491" on="0"/>
        <pt x="175" y="486" on="1"/>
        <pt x="199" y="509" on="0"/>
        <pt x="260" y="544" on="0"/>
        <pt x="275" y="544" on="1"/>
        <pt x="314" y="544" on="0"/>
        <pt x="370" y="508" on="0"/>
        <pt x="370" y="477" on="1"/>
        <pt x="453" y="544" on="0"/>
        <pt x="488" y="544" on="1"/>
        <pt x="549" y="544" on="0"/>
        <pt x="594" y="513" on="0"/>
        <pt x="594" y="422" on="0"/>
        <pt x="528" y="0" on="1"/>
        <pt x="516" y="0" on="0"/>
        <pt x="501" y="0" on="0"/>
        <pt x="488" y="1" on="0"/>
        <pt x="485" y="2" on="0"/>
        <pt x="477" y="5" on="0"/>
        <pt x="476" y="10" on="0"/>
        <pt x="472" y="17" on="0"/>
        <pt x="473" y="26" on="0"/>
        <pt x="474" y="38" on="0"/>
        <pt x="532" y="408" on="0"/>
        <pt x="532" y="470" on="0"/>
        <pt x="509" y="491" on="0"/>
        <pt x="469" y="491" on="0"/>
        <pt x="435" y="473" on="0"/>
        <pt x="388" y="441" on="0"/>
        <pt x="377" y="435" on="1"/>
        <pt x="377" y="410" on="1"/>
        <pt x="313" y="0" on="1"/>
        <pt x="310" y="0" on="0"/>
        <pt x="273" y="0" on="0"/>
        <pt x="260" y="10" on="0"/>
        <pt x="260" y="33" on="0"/>
        <pt x="273" y="118" on="0"/>
        <pt x="296" y="265" on="0"/>
        <pt x="306" y="327" on="0"/>
        <pt x="310" y="358" on="1"/>
        <pt x="317" y="403" on="0"/>
        <pt x="317" y="460" on="0"/>
        <pt x="294" y="491" on="0"/>
        <pt x="266" y="491" on="1"/>
        <pt x="251" y="491" on="0"/>
        <pt x="174" y="441" on="0"/>
        <pt x="163" y="435" on="1"/>
        <pt x="163" y="410" on="1"/>
        <pt x="99" y="0" on="1"/>
        <pt x="50" y="0" on="0"/>
        <pt x="46" y="8" on="1"/>
        <pt x="44" y="12" on="0"/>
        <pt x="44" y="28" on="0"/>
        <pt x="47" y="46" on="1"/>
        <pt x="125" y="537" on="1"/>
        <pt x="162" y="537" on="0"/>
        <pt x="181" y="533" on="0"/>
      </contour>
    </TTGlyph>
    <TTGlyph name="macron" xMin="165" yMin="669" xMax="388" yMax="720">
      <contour>
        <pt x="379" y="669" on="1"/>
        <pt x="165" y="669" on="1"/>
        <pt x="174" y="720" on="1"/>
        <pt x="388" y="720" on="1"/>
      </contour>
    </TTGlyph>
    <TTGlyph name="minus" xMin="107" yMin="300" xMax="329" yMax="351">
      <contour>
        <pt x="321" y="300" on="1"/>
        <pt x="107" y="300" on="1"/>
        <pt x="115" y="351" on="1"/>
        <pt x="329" y="351" on="1"/>
      </contour>
    </TTGlyph>
    <TTGlyph name="mu" xMin="29" yMin="-193" xMax="440" yMax="539">
      <contour>
        <pt x="198" y="531" on="1"/>
        <pt x="200" y="527" on="0"/>
        <pt x="200" y="511" on="0"/>
        <pt x="197" y="493" on="1"/>
        <pt x="135" y="107" on="1"/>
        <pt x="126" y="85" on="1"/>
        <pt x="220" y="48" on="1"/>
        <pt x="263" y="48" on="0"/>
        <pt x="282" y="75" on="1"/>
        <pt x="294" y="91" on="0"/>
        <pt x="309" y="119" on="0"/>
        <pt x="316" y="151" on="1"/>
        <pt x="328" y="201" on="0"/>
        <pt x="339" y="272" on="1"/>
        <pt x="374" y="493" on="1"/>
        <pt x="379" y="528" on="0"/>
        <pt x="396" y="539" on="0"/>
        <pt x="440" y="539" on="1"/>
        <pt x="398" y="273" on="1"/>
        <pt x="375" y="118" on="0"/>
        <pt x="356" y="80" on="1"/>
        <pt x="331" y="27" on="0"/>
        <pt x="305" y="15" on="1"/>
        <pt x="262" y="-5" on="0"/>
        <pt x="212" y="-5" on="1"/>
        <pt x="118" y="34" on="1"/>
        <pt x="118" y="4" on="1"/>
        <pt x="94" y="-147" on="1"/>
        <pt x="89" y="-181" on="0"/>
        <pt x="72" y="-193" on="0"/>
        <pt x="29" y="-193" on="1"/>
        <pt x="145" y="539" on="1"/>
        <pt x="194" y="539" on="0"/>
      </contour>
    </TTGlyph>
    <TTGlyph name="multiply" xMin="75" yMin="209" xMax="271" yMax="440">
      <contour>
        <pt x="259" y="245" on="1"/>
        <pt x="222" y="209" on="1"/>
        <pt x="184" y="266" on="1"/>
        <pt x="172" y="289" on="1"/>
        <pt x="105" y="222" on="1"/>
        <pt x="75" y="263" on="1"/>
        <pt x="142" y="331" on="1"/>
        <pt x="124" y="348" on="1"/>
        <pt x="87" y="404" on="1"/>
        <pt x="123" y="440" on="1"/>
        <pt x="160" y="384" on="1"/>
        <pt x="172" y="361" on="1"/>
        <pt x="240" y="429" on="1"/>
        <pt x="271" y="387" on="1"/>
        <pt x="203" y="319" on="1"/>
        <pt x="220" y="302" on="1"/>
      </contour>
    </TTGlyph>
    <TTGlyph name="n" xMin="65" yMin="0" xMax="400" yMax="544">
      <contour>
        <pt x="182" y="537" on="0"/>
        <pt x="201" y="533" on="0"/>
        <pt x="201" y="516" on="0"/>
        <pt x="197" y="488" on="1"/>
        <pt x="208" y="494" on="0"/>
        <pt x="230" y="510" on="1"/>
        <pt x="277" y="544" on="0"/>
        <pt x="295" y="544" on="1"/>
        <pt x="355" y="544" on="0"/>
        <pt x="400" y="509" on="0"/>
        <pt x="400" y="411" on="0"/>
        <pt x="335" y="0" on="1"/>
        <pt x="293" y="0" on="0"/>
        <pt x="281" y="11" on="0"/>
        <pt x="281" y="34" on="0"/>
        <pt x="340" y="408" on="0"/>
        <pt x="340" y="469" on="0"/>
        <pt x="318" y="491" on="0"/>
        <pt x="282" y="491" on="0"/>
        <pt x="247" y="473" on="0"/>
        <pt x="197" y="443" on="0"/>
        <pt x="185" y="437" on="1"/>
        <pt x="185" y="412" on="1"/>
        <pt x="119" y="0" on="1"/>
        <pt x="77" y="0" on="0"/>
        <pt x="65" y="11" on="0"/>
        <pt x="65" y="34" on="0"/>
        <pt x="67" y="46" on="1"/>
        <pt x="145" y="537" on="1"/>
      </contour>
    </TTGlyph>
    <TTGlyph name="nine" xMin="60" yMin="0" xMax="422" yMax="732">
      <contour>
        <pt x="333" y="406" on="0"/>
        <pt x="360" y="593" on="0"/>
        <pt x="360" y="656" on="0"/>
        <pt x="337" y="679" on="0"/>
        <pt x="274" y="679" on="0"/>
        <pt x="221" y="615" on="0"/>
        <pt x="206" y="564" on="1"/>
        <pt x="178" y="465" on="0"/>
        <pt x="178" y="353" on="1"/>
        <pt x="178" y="318" on="0"/>
        <pt x="207" y="294" on="0"/>
        <pt x="247" y="294" on="1"/>
        <pt x="316" y="326" on="1"/>
      </contour>
      <contour>
        <pt x="188" y="57" on="1"/>
        <pt x="222" y="57" on="0"/>
        <pt x="276" y="160" on="0"/>
        <pt x="304" y="275" on="1"/>
        <pt x="239" y="241" on="1"/>
        <pt x="166" y="241" on="0"/>
        <pt x="113" y="279" on="0"/>
        <pt x="113" y="331" on="1"/>
        <pt x="113" y="732" on="0"/>
        <pt x="316" y="732" on="1"/>
        <pt x="376" y="732" on="0"/>
        <pt x="422" y="692" on="0"/>
        <pt x="422" y="593" on="0"/>
        <pt x="388" y="369" on="0"/>
        <pt x="375" y="297" on="0"/>
        <pt x="353" y="190" on="0"/>
        <pt x="332" y="131" on="0"/>
        <pt x="299" y="60" on="0"/>
        <pt x="280" y="42" on="1"/>
        <pt x="236" y="0" on="0"/>
        <pt x="179" y="0" on="1"/>
        <pt x="60" y="10" on="1"/>
        <pt x="68" y="57" on="1"/>
      </contour>
    </TTGlyph>
    <TTGlyph name="ntilde" xMin="67" yMin="0" xMax="428" yMax="692">
      <component glyphName="n" x="0" y="0" flags="0x1004"/>
      <component glyphName="tilde" x="12" y="-28" flags="0x1004"/>
    </TTGlyph>
    <TTGlyph name="numbersign" xMin="40" yMin="0" xMax="730" yMax="732">
      <contour>
        <pt x="628" y="239" on="1"/>
        <pt x="454" y="239" on="1"/>
        <pt x="321" y="0" on="1"/>
        <pt x="253" y="0" on="1"/>
        <pt x="386" y="239" on="1"/>
        <pt x="241" y="239" on="1"/>
        <pt x="108" y="0" on="1"/>
        <pt x="40" y="0" on="1"/>
        <pt x="173" y="239" on="1"/>
        <pt x="59" y="239" on="1"/>
        <pt x="69" y="302" on="1"/>
        <pt x="208" y="302" on="1"/>
        <pt x="288" y="444" on="1"/>
        <pt x="135" y="444" on="1"/>
        <pt x="145" y="507" on="1"/>
        <pt x="324" y="507" on="1"/>
        <pt x="449" y="732" on="1"/>
        <pt x="517" y="732" on="1"/>
        <pt x="392" y="507" on="1"/>
        <pt x="537" y="507" on="1"/>
        <pt x="662" y="732" on="1"/>
        <pt x="730" y="732" on="1"/>
        <pt x="605" y="507" on="1"/>
        <pt x="714" y="507" on="1"/>
        <pt x="704" y="444" on="1"/>
        <pt x="569" y="444" on="1"/>
        <pt x="489" y="302" on="1"/>
        <pt x="638" y="302" on="1"/>
      </contour>
      <contour>
        <pt x="421" y="302" on="1"/>
        <pt x="501" y="444" on="1"/>
        <pt x="356" y="444" on="1"/>
        <pt x="276" y="302" on="1"/>
      </contour>
    </TTGlyph>
    <TTGlyph name="o" xMin="72" yMin="-7" xMax="386" yMax="544">
      <contour>
        <pt x="325" y="79" on="0"/>
        <pt x="242" y="-7" on="0"/>
        <pt x="121" y="-7" on="0"/>
        <pt x="72" y="41" on="0"/>
        <pt x="72" y="176" on="0"/>
        <pt x="90" y="319" on="0"/>
        <pt x="132" y="459" on="0"/>
        <pt x="215" y="544" on="0"/>
        <pt x="336" y="544" on="0"/>
        <pt x="386" y="497" on="0"/>
        <pt x="386" y="366" on="0"/>
        <pt x="367" y="221" on="0"/>
      </contour>
      <contour>
        <pt x="160" y="46" on="0"/>
        <pt x="228" y="46" on="0"/>
        <pt x="282" y="133" on="0"/>
        <pt x="296" y="196" on="1"/>
        <pt x="325" y="321" on="0"/>
        <pt x="325" y="421" on="1"/>
        <pt x="325" y="459" on="0"/>
        <pt x="298" y="491" on="0"/>
        <pt x="230" y="491" on="0"/>
        <pt x="176" y="407" on="0"/>
        <pt x="162" y="345" on="1"/>
        <pt x="133" y="223" on="0"/>
        <pt x="133" y="117" on="1"/>
        <pt x="133" y="79" on="0"/>
      </contour>
    </TTGlyph>
    <TTGlyph name="o_t" xMin="72" yMin="-7" xMax="672" yMax="616">
      <contour>
        <pt x="492" y="-5" on="0"/>
        <pt x="457" y="29" on="0"/>
        <pt x="457" y="107" on="0"/>
        <pt x="476" y="228" on="1"/>
        <pt x="512" y="465" on="1"/>
        <pt x="520" y="490" on="1"/>
        <pt x="380" y="490" on="1"/>
        <pt x="386" y="469" on="0"/>
        <pt x="386" y="366" on="0"/>
        <pt x="367" y="221" on="0"/>
        <pt x="325" y="79" on="0"/>
        <pt x="242" y="-7" on="0"/>
        <pt x="121" y="-7" on="0"/>
        <pt x="72" y="41" on="0"/>
        <pt x="72" y="176" on="0"/>
        <pt x="90" y="319" on="0"/>
        <pt x="132" y="459" on="0"/>
        <pt x="215" y="544" on="0"/>
        <pt x="273" y="544" on="1"/>
        <pt x="529" y="544" on="1"/>
        <pt x="539" y="616" on="1"/>
        <pt x="588" y="616" on="0"/>
        <pt x="592" y="608" on="1"/>
        <pt x="594" y="604" on="0"/>
        <pt x="594" y="588" on="0"/>
        <pt x="591" y="570" on="1"/>
        <pt x="580" y="544" on="1"/>
        <pt x="672" y="544" on="1"/>
        <pt x="666" y="507" on="0"/>
        <pt x="650" y="490" on="0"/>
        <pt x="615" y="490" on="1"/>
        <pt x="571" y="490" on="1"/>
        <pt x="571" y="465" on="1"/>
        <pt x="535" y="228" on="1"/>
        <pt x="516" y="105" on="0"/>
        <pt x="517" y="88" on="1"/>
        <pt x="517" y="46" on="0"/>
        <pt x="546" y="46" on="1"/>
        <pt x="614" y="46" on="1"/>
        <pt x="607" y="0" on="1"/>
        <pt x="537" y="-5" on="1"/>
      </contour>
      <contour>
        <pt x="160" y="46" on="0"/>
        <pt x="228" y="46" on="0"/>
        <pt x="282" y="133" on="0"/>
        <pt x="296" y="196" on="1"/>
        <pt x="325" y="321" on="0"/>
        <pt x="325" y="421" on="1"/>
        <pt x="325" y="459" on="0"/>
        <pt x="298" y="491" on="0"/>
        <pt x="230" y="491" on="0"/>
        <pt x="176" y="407" on="0"/>
        <pt x="162" y="345" on="1"/>
        <pt x="133" y="223" on="0"/>
        <pt x="133" y="117" on="1"/>
        <pt x="133" y="79" on="0"/>
      </contour>
    </TTGlyph>
    <TTGlyph name="oacute" xMin="72" yMin="-7" xMax="406" yMax="744">
      <contour>
        <pt x="325" y="79" on="0"/>
        <pt x="242" y="-7" on="0"/>
        <pt x="121" y="-7" on="0"/>
        <pt x="72" y="41" on="0"/>
        <pt x="72" y="176" on="0"/>
        <pt x="90" y="319" on="0"/>
        <pt x="132" y="459" on="0"/>
        <pt x="215" y="544" on="0"/>
        <pt x="336" y="544" on="0"/>
        <pt x="386" y="497" on="0"/>
        <pt x="386" y="366" on="0"/>
        <pt x="367" y="221" on="0"/>
      </contour>
      <contour>
        <pt x="160" y="46" on="0"/>
        <pt x="228" y="46" on="0"/>
        <pt x="282" y="133" on="0"/>
        <pt x="296" y="196" on="1"/>
        <pt x="325" y="321" on="0"/>
        <pt x="325" y="421" on="1"/>
        <pt x="325" y="459" on="0"/>
        <pt x="298" y="491" on="0"/>
        <pt x="230" y="491" on="0"/>
        <pt x="176" y="407" on="0"/>
        <pt x="162" y="345" on="1"/>
        <pt x="133" y="223" on="0"/>
        <pt x="133" y="117" on="1"/>
        <pt x="133" y="79" on="0"/>
      </contour>
      <contour>
        <pt x="406" y="713" on="1"/>
        <pt x="272" y="599" on="1"/>
        <pt x="243" y="635" on="1"/>
        <pt x="323" y="711" on="1"/>
        <pt x="362" y="744" on="0"/>
        <pt x="379" y="744" on="0"/>
      </contour>
    </TTGlyph>
    <TTGlyph name="ocircumflex" xMin="72" yMin="-7" xMax="412" yMax="744">
      <component glyphName="o" x="0" y="0" flags="0x1004"/>
      <component glyphName="circumflex" x="13" y="12" flags="0x1004"/>
    </TTGlyph>
    <TTGlyph name="odieresis" xMin="72" yMin="-7" xMax="411" yMax="711">
      <contour>
        <pt x="325" y="79" on="0"/>
        <pt x="242" y="-7" on="0"/>
        <pt x="121" y="-7" on="0"/>
        <pt x="72" y="41" on="0"/>
        <pt x="72" y="176" on="0"/>
        <pt x="90" y="319" on="0"/>
        <pt x="132" y="459" on="0"/>
        <pt x="215" y="544" on="0"/>
        <pt x="336" y="544" on="0"/>
        <pt x="386" y="497" on="0"/>
        <pt x="386" y="366" on="0"/>
        <pt x="367" y="221" on="0"/>
      </contour>
      <contour>
        <pt x="160" y="46" on="0"/>
        <pt x="228" y="46" on="0"/>
        <pt x="282" y="133" on="0"/>
        <pt x="296" y="196" on="1"/>
        <pt x="325" y="321" on="0"/>
        <pt x="325" y="421" on="1"/>
        <pt x="325" y="459" on="0"/>
        <pt x="298" y="491" on="0"/>
        <pt x="230" y="491" on="0"/>
        <pt x="176" y="407" on="0"/>
        <pt x="162" y="345" on="1"/>
        <pt x="133" y="223" on="0"/>
        <pt x="133" y="117" on="1"/>
        <pt x="133" y="79" on="0"/>
      </contour>
      <contour>
        <pt x="211" y="711" on="0"/>
        <pt x="246" y="711" on="0"/>
        <pt x="268" y="690" on="0"/>
        <pt x="268" y="652" on="0"/>
        <pt x="235" y="620" on="0"/>
        <pt x="198" y="620" on="0"/>
        <pt x="175" y="642" on="0"/>
        <pt x="175" y="653" on="1"/>
        <pt x="175" y="682" on="0"/>
      </contour>
      <contour>
        <pt x="354" y="711" on="0"/>
        <pt x="390" y="711" on="0"/>
        <pt x="411" y="690" on="0"/>
        <pt x="411" y="652" on="0"/>
        <pt x="378" y="620" on="0"/>
        <pt x="341" y="620" on="0"/>
        <pt x="318" y="642" on="0"/>
        <pt x="318" y="653" on="1"/>
        <pt x="318" y="682" on="0"/>
      </contour>
    </TTGlyph>
    <TTGlyph name="oe" xMin="78" yMin="-7" xMax="620" yMax="544">
      <contour>
        <pt x="553" y="10" on="1"/>
        <pt x="475" y="-7" on="0"/>
        <pt x="384" y="-7" on="0"/>
        <pt x="338" y="13" on="0"/>
        <pt x="324" y="37" on="1"/>
        <pt x="287" y="-7" on="0"/>
        <pt x="132" y="-7" on="0"/>
        <pt x="78" y="44" on="0"/>
        <pt x="78" y="142" on="0"/>
        <pt x="106" y="318" on="0"/>
        <pt x="114" y="363" on="0"/>
        <pt x="128" y="430" on="0"/>
        <pt x="140" y="461" on="0"/>
        <pt x="161" y="502" on="0"/>
        <pt x="185" y="519" on="0"/>
        <pt x="202" y="528" on="1"/>
        <pt x="230" y="544" on="0"/>
        <pt x="289" y="544" on="1"/>
        <pt x="375" y="544" on="0"/>
        <pt x="398" y="504" on="1"/>
        <pt x="419" y="526" on="0"/>
        <pt x="472" y="544" on="0"/>
        <pt x="575" y="544" on="0"/>
        <pt x="620" y="498" on="0"/>
        <pt x="620" y="418" on="0"/>
        <pt x="605" y="322" on="1"/>
        <pt x="601" y="262" on="1"/>
        <pt x="381" y="262" on="1"/>
        <pt x="381" y="233" on="1"/>
        <pt x="366" y="146" on="0"/>
        <pt x="366" y="76" on="0"/>
        <pt x="398" y="46" on="0"/>
        <pt x="499" y="46" on="0"/>
        <pt x="561" y="59" on="1"/>
      </contour>
      <contour>
        <pt x="554" y="367" on="1"/>
        <pt x="563" y="425" on="0"/>
        <pt x="563" y="469" on="0"/>
        <pt x="540" y="491" on="0"/>
        <pt x="510" y="491" on="1"/>
        <pt x="452" y="491" on="0"/>
        <pt x="416" y="431" on="0"/>
        <pt x="405" y="349" on="1"/>
        <pt x="405" y="346" on="0"/>
        <pt x="404" y="341" on="0"/>
        <pt x="404" y="339" on="1"/>
        <pt x="396" y="317" on="1"/>
        <pt x="551" y="317" on="1"/>
      </contour>
      <contour>
        <pt x="210" y="46" on="1"/>
        <pt x="270" y="46" on="0"/>
        <pt x="311" y="135" on="0"/>
        <pt x="350" y="384" on="0"/>
        <pt x="350" y="456" on="0"/>
        <pt x="319" y="491" on="0"/>
        <pt x="258" y="491" on="0"/>
        <pt x="227" y="483" on="0"/>
        <pt x="202" y="453" on="0"/>
        <pt x="188" y="430" on="0"/>
        <pt x="180" y="398" on="1"/>
        <pt x="168" y="345" on="0"/>
        <pt x="139" y="156" on="0"/>
        <pt x="139" y="82" on="0"/>
        <pt x="171" y="46" on="0"/>
      </contour>
    </TTGlyph>
    <TTGlyph name="ogonek" xMin="9" yMin="-200" xMax="154" yMax="0">
      <contour>
        <pt x="154" y="-200" on="1"/>
        <pt x="89" y="-200" on="1"/>
        <pt x="9" y="-113" on="1"/>
        <pt x="13" y="-87" on="1"/>
        <pt x="67" y="0" on="1"/>
        <pt x="121" y="0" on="1"/>
        <pt x="60" y="-100" on="1"/>
      </contour>
    </TTGlyph>
    <TTGlyph name="ograve" xMin="72" yMin="-7" xMax="386" yMax="744">
      <contour>
        <pt x="325" y="79" on="0"/>
        <pt x="242" y="-7" on="0"/>
        <pt x="121" y="-7" on="0"/>
        <pt x="72" y="41" on="0"/>
        <pt x="72" y="176" on="0"/>
        <pt x="90" y="319" on="0"/>
        <pt x="132" y="459" on="0"/>
        <pt x="215" y="544" on="0"/>
        <pt x="336" y="544" on="0"/>
        <pt x="386" y="497" on="0"/>
        <pt x="386" y="366" on="0"/>
        <pt x="367" y="221" on="0"/>
      </contour>
      <contour>
        <pt x="160" y="46" on="0"/>
        <pt x="228" y="46" on="0"/>
        <pt x="282" y="133" on="0"/>
        <pt x="296" y="196" on="1"/>
        <pt x="325" y="321" on="0"/>
        <pt x="325" y="421" on="1"/>
        <pt x="325" y="459" on="0"/>
        <pt x="298" y="491" on="0"/>
        <pt x="230" y="491" on="0"/>
        <pt x="176" y="407" on="0"/>
        <pt x="162" y="345" on="1"/>
        <pt x="133" y="223" on="0"/>
        <pt x="133" y="117" on="1"/>
        <pt x="133" y="79" on="0"/>
      </contour>
      <contour>
        <pt x="233" y="720" on="1"/>
        <pt x="260" y="744" on="0"/>
        <pt x="279" y="744" on="0"/>
        <pt x="306" y="711" on="1"/>
        <pt x="362" y="635" on="1"/>
        <pt x="321" y="599" on="1"/>
        <pt x="225" y="713" on="1"/>
      </contour>
    </TTGlyph>
    <TTGlyph name="one" xMin="60" yMin="0" xMax="347" yMax="720">
      <contour>
        <pt x="273" y="720" on="1"/>
        <pt x="320" y="720" on="0"/>
        <pt x="324" y="712" on="1"/>
        <pt x="326" y="708" on="0"/>
        <pt x="326" y="692" on="0"/>
        <pt x="323" y="674" on="1"/>
        <pt x="226" y="57" on="1"/>
        <pt x="293" y="57" on="1"/>
        <pt x="327" y="57" on="0"/>
        <pt x="347" y="50" on="0"/>
        <pt x="347" y="28" on="0"/>
        <pt x="343" y="0" on="1"/>
        <pt x="60" y="0" on="1"/>
        <pt x="69" y="57" on="1"/>
        <pt x="162" y="57" on="1"/>
        <pt x="259" y="667" on="1"/>
        <pt x="195" y="657" on="1"/>
        <pt x="203" y="710" on="1"/>
        <pt x="268" y="720" on="1"/>
      </contour>
    </TTGlyph>
    <TTGlyph name="onehalf" xMin="85" yMin="0" xMax="323" yMax="733">
      <contour>
        <pt x="219" y="246" on="1"/>
        <pt x="219" y="268" on="0"/>
        <pt x="189" y="268" on="1"/>
        <pt x="158" y="268" on="1"/>
        <pt x="157" y="268" on="0"/>
        <pt x="143" y="268" on="0"/>
        <pt x="138" y="268" on="1"/>
        <pt x="129" y="270" on="0"/>
        <pt x="129" y="289" on="0"/>
        <pt x="132" y="307" on="1"/>
        <pt x="198" y="312" on="1"/>
        <pt x="239" y="311" on="0"/>
        <pt x="270" y="287" on="0"/>
        <pt x="270" y="247" on="0"/>
        <pt x="262" y="200" on="0"/>
        <pt x="207" y="152" on="0"/>
        <pt x="151" y="112" on="0"/>
        <pt x="147" y="94" on="1"/>
        <pt x="139" y="44" on="1"/>
        <pt x="239" y="44" on="1"/>
        <pt x="233" y="0" on="1"/>
        <pt x="85" y="0" on="1"/>
        <pt x="100" y="97" on="1"/>
        <pt x="104" y="123" on="0"/>
        <pt x="160" y="171" on="0"/>
        <pt x="215" y="214" on="0"/>
        <pt x="218" y="232" on="1"/>
        <pt x="219" y="237" on="0"/>
      </contour>
      <contour>
        <pt x="272" y="733" on="1"/>
        <pt x="290" y="733" on="0"/>
        <pt x="301" y="729" on="0"/>
        <pt x="301" y="718" on="0"/>
        <pt x="297" y="690" on="1"/>
        <pt x="254" y="423" on="1"/>
        <pt x="205" y="423" on="1"/>
        <pt x="247" y="687" on="1"/>
        <pt x="202" y="676" on="1"/>
        <pt x="209" y="722" on="1"/>
        <pt x="244" y="733" on="1"/>
      </contour>
      <contour>
        <pt x="316" y="342" on="1"/>
        <pt x="113" y="342" on="1"/>
        <pt x="120" y="389" on="1"/>
        <pt x="323" y="389" on="1"/>
      </contour>
    </TTGlyph>
    <TTGlyph name="onequarter" xMin="28" yMin="0" xMax="303" yMax="733">
      <contour>
        <pt x="177" y="0" on="1"/>
        <pt x="137" y="0" on="1"/>
        <pt x="146" y="57" on="1"/>
        <pt x="153" y="75" on="1"/>
        <pt x="28" y="75" on="1"/>
        <pt x="177" y="306" on="1"/>
        <pt x="225" y="306" on="1"/>
        <pt x="197" y="128" on="1"/>
        <pt x="189" y="113" on="1"/>
        <pt x="217" y="113" on="1"/>
        <pt x="211" y="75" on="1"/>
        <pt x="183" y="75" on="1"/>
        <pt x="186" y="57" on="1"/>
      </contour>
      <contour>
        <pt x="159" y="113" on="1"/>
        <pt x="157" y="128" on="1"/>
        <pt x="173" y="229" on="1"/>
        <pt x="94" y="113" on="1"/>
      </contour>
      <contour>
        <pt x="255" y="733" on="1"/>
        <pt x="273" y="733" on="0"/>
        <pt x="284" y="729" on="0"/>
        <pt x="284" y="718" on="0"/>
        <pt x="280" y="690" on="1"/>
        <pt x="237" y="423" on="1"/>
        <pt x="188" y="423" on="1"/>
        <pt x="230" y="687" on="1"/>
        <pt x="184" y="676" on="1"/>
        <pt x="191" y="722" on="1"/>
        <pt x="227" y="733" on="1"/>
      </contour>
      <contour>
        <pt x="296" y="342" on="1"/>
        <pt x="93" y="342" on="1"/>
        <pt x="100" y="389" on="1"/>
        <pt x="303" y="389" on="1"/>
      </contour>
    </TTGlyph>
    <TTGlyph name="onesuperior" xMin="146" yMin="423" xMax="245" yMax="733">
      <contour>
        <pt x="216" y="733" on="1"/>
        <pt x="234" y="733" on="0"/>
        <pt x="245" y="729" on="0"/>
        <pt x="245" y="718" on="0"/>
        <pt x="241" y="690" on="1"/>
        <pt x="198" y="423" on="1"/>
        <pt x="149" y="423" on="1"/>
        <pt x="191" y="687" on="1"/>
        <pt x="146" y="676" on="1"/>
        <pt x="153" y="722" on="1"/>
        <pt x="188" y="733" on="1"/>
      </contour>
    </TTGlyph>
    <TTGlyph name="ordfeminine" xMin="117" yMin="389" xMax="316" yMax="733">
      <contour>
        <pt x="173" y="523" on="1"/>
        <pt x="163" y="466" on="0"/>
        <pt x="163" y="436" on="0"/>
        <pt x="170" y="432" on="0"/>
        <pt x="182" y="432" on="1"/>
        <pt x="238" y="462" on="1"/>
        <pt x="252" y="550" on="1"/>
        <pt x="214" y="550" on="0"/>
        <pt x="176" y="540" on="0"/>
      </contour>
      <contour>
        <pt x="130" y="392" on="0"/>
        <pt x="117" y="408" on="0"/>
        <pt x="117" y="443" on="0"/>
        <pt x="129" y="522" on="1"/>
        <pt x="141" y="597" on="0"/>
        <pt x="263" y="597" on="1"/>
        <pt x="270" y="643" on="1"/>
        <pt x="273" y="656" on="0"/>
        <pt x="273" y="668" on="1"/>
        <pt x="273" y="692" on="0"/>
        <pt x="234" y="692" on="1"/>
        <pt x="199" y="692" on="1"/>
        <pt x="178" y="692" on="0"/>
        <pt x="167" y="695" on="0"/>
        <pt x="167" y="706" on="0"/>
        <pt x="169" y="724" on="1"/>
        <pt x="241" y="733" on="1"/>
        <pt x="284" y="733" on="0"/>
        <pt x="316" y="710" on="0"/>
        <pt x="316" y="685" on="1"/>
        <pt x="316" y="683" on="0"/>
        <pt x="311" y="643" on="1"/>
        <pt x="272" y="394" on="1"/>
        <pt x="247" y="394" on="0"/>
        <pt x="234" y="398" on="0"/>
        <pt x="234" y="411" on="0"/>
        <pt x="236" y="429" on="1"/>
        <pt x="173" y="389" on="1"/>
        <pt x="149" y="389" on="0"/>
      </contour>
    </TTGlyph>
    <TTGlyph name="ordmasculine" xMin="123" yMin="391" xMax="325" yMax="732">
      <contour>
        <pt x="297" y="457" on="0"/>
        <pt x="252" y="391" on="0"/>
        <pt x="156" y="391" on="0"/>
        <pt x="123" y="421" on="0"/>
        <pt x="123" y="497" on="0"/>
        <pt x="152" y="677" on="0"/>
        <pt x="192" y="732" on="0"/>
        <pt x="293" y="732" on="0"/>
        <pt x="325" y="708" on="0"/>
        <pt x="325" y="637" on="0"/>
      </contour>
      <contour>
        <pt x="170" y="457" on="0"/>
        <pt x="186" y="442" on="0"/>
        <pt x="233" y="442" on="0"/>
        <pt x="255" y="483" on="0"/>
        <pt x="277" y="623" on="0"/>
        <pt x="277" y="670" on="0"/>
        <pt x="262" y="681" on="0"/>
        <pt x="222" y="681" on="0"/>
        <pt x="214" y="676" on="1"/>
        <pt x="196" y="666" on="0"/>
        <pt x="170" y="499" on="0"/>
      </contour>
    </TTGlyph>
    <TTGlyph name="oslash" xMin="37" yMin="-94" xMax="445" yMax="638">
      <contour>
        <pt x="102" y="23" on="1"/>
        <pt x="83" y="46" on="0"/>
        <pt x="83" y="138" on="0"/>
        <pt x="110" y="314" on="0"/>
        <pt x="117" y="353" on="0"/>
        <pt x="129" y="417" on="0"/>
        <pt x="139" y="445" on="0"/>
        <pt x="154" y="488" on="0"/>
        <pt x="162" y="496" on="1"/>
        <pt x="183" y="517" on="1"/>
        <pt x="195" y="529" on="0"/>
        <pt x="210" y="533" on="1"/>
        <pt x="249" y="544" on="0"/>
        <pt x="306" y="544" on="0"/>
        <pt x="322" y="541" on="1"/>
        <pt x="377" y="638" on="1"/>
        <pt x="445" y="638" on="1"/>
        <pt x="376" y="516" on="1"/>
        <pt x="396" y="493" on="0"/>
        <pt x="397" y="407" on="0"/>
        <pt x="369" y="228" on="0"/>
        <pt x="363" y="190" on="0"/>
        <pt x="350" y="124" on="0"/>
        <pt x="341" y="97" on="0"/>
        <pt x="325" y="52" on="0"/>
        <pt x="309" y="34" on="0"/>
        <pt x="285" y="9" on="0"/>
        <pt x="270" y="4" on="1"/>
        <pt x="216" y="-12" on="0"/>
        <pt x="155" y="-3" on="1"/>
        <pt x="105" y="-94" on="1"/>
        <pt x="37" y="-94" on="1"/>
      </contour>
      <contour>
        <pt x="205" y="46" on="1"/>
        <pt x="257" y="46" on="0"/>
        <pt x="295" y="127" on="0"/>
        <pt x="336" y="391" on="0"/>
        <pt x="336" y="459" on="0"/>
        <pt x="309" y="491" on="0"/>
        <pt x="252" y="491" on="0"/>
        <pt x="220" y="474" on="0"/>
        <pt x="200" y="451" on="0"/>
        <pt x="191" y="420" on="1"/>
        <pt x="180" y="380" on="0"/>
        <pt x="144" y="160" on="0"/>
        <pt x="144" y="79" on="0"/>
        <pt x="171" y="46" on="0"/>
      </contour>
    </TTGlyph>
    <TTGlyph name="otilde" xMin="72" yMin="-7" xMax="420" yMax="698">
      <contour>
        <pt x="414" y="645" on="0"/>
        <pt x="397" y="637" on="0"/>
        <pt x="325" y="637" on="0"/>
        <pt x="236" y="647" on="0"/>
        <pt x="208" y="647" on="0"/>
        <pt x="192" y="645" on="1"/>
        <pt x="179" y="647" on="1"/>
        <pt x="182" y="668" on="1"/>
        <pt x="185" y="690" on="0"/>
        <pt x="202" y="698" on="0"/>
        <pt x="274" y="698" on="0"/>
        <pt x="362" y="687" on="0"/>
        <pt x="394" y="687" on="0"/>
        <pt x="408" y="690" on="1"/>
        <pt x="420" y="688" on="1"/>
        <pt x="417" y="667" on="1"/>
      </contour>
      <contour>
        <pt x="325" y="79" on="0"/>
        <pt x="242" y="-7" on="0"/>
        <pt x="121" y="-7" on="0"/>
        <pt x="72" y="41" on="0"/>
        <pt x="72" y="176" on="0"/>
        <pt x="90" y="319" on="0"/>
        <pt x="132" y="459" on="0"/>
        <pt x="215" y="544" on="0"/>
        <pt x="336" y="544" on="0"/>
        <pt x="386" y="497" on="0"/>
        <pt x="386" y="366" on="0"/>
        <pt x="367" y="221" on="0"/>
      </contour>
      <contour>
        <pt x="160" y="46" on="0"/>
        <pt x="228" y="46" on="0"/>
        <pt x="282" y="133" on="0"/>
        <pt x="296" y="196" on="1"/>
        <pt x="325" y="321" on="0"/>
        <pt x="325" y="421" on="1"/>
        <pt x="325" y="459" on="0"/>
        <pt x="298" y="491" on="0"/>
        <pt x="230" y="491" on="0"/>
        <pt x="176" y="407" on="0"/>
        <pt x="162" y="345" on="1"/>
        <pt x="133" y="223" on="0"/>
        <pt x="133" y="117" on="1"/>
        <pt x="133" y="79" on="0"/>
      </contour>
    </TTGlyph>
</ttFont>
